<svg version="1.1" id="el_ECt_Wx0Gy" xmlns="http://www.w3.org/2000/svg" xmlns:xlink="http://www.w3.org/1999/xlink" x="0px" y="0px" viewBox="0 0 500 500" style="enable-background:new 0 0 500 500;" xml:space="preserve"><style>@-webkit-keyframes kf_el_uFMQEcK7j02_an_FHUl-CJn2{0%{opacity: 0;}12.50%{opacity: 0;}15%{opacity: 1;}75%{opacity: 1;}81.25%{opacity: 0;}100%{opacity: 0;}}@keyframes kf_el_uFMQEcK7j02_an_FHUl-CJn2{0%{opacity: 0;}12.50%{opacity: 0;}15%{opacity: 1;}75%{opacity: 1;}81.25%{opacity: 0;}100%{opacity: 0;}}@-webkit-keyframes kf_el_uFMQEcK7j02_an_tMhQpfqWx{12.50%{-webkit-transform: translate(295.4849853515625px, 275.82000732421875px) translate(-295.4849853515625px, -275.82000732421875px) translate(0px, 25px);transform: translate(295.4849853515625px, 275.82000732421875px) translate(-295.4849853515625px, -275.82000732421875px) translate(0px, 25px);}15%{-webkit-transform: translate(295.4849853515625px, 275.82000732421875px) translate(-295.4849853515625px, -275.82000732421875px) translate(0px, 0px);transform: translate(295.4849853515625px, 275.82000732421875px) translate(-295.4849853515625px, -275.82000732421875px) translate(0px, 0px);}75%{-webkit-transform: translate(295.4849853515625px, 275.82000732421875px) translate(-295.4849853515625px, -275.82000732421875px) translate(0px, 0px);transform: translate(295.4849853515625px, 275.82000732421875px) translate(-295.4849853515625px, -275.82000732421875px) translate(0px, 0px);}100%{-webkit-transform: translate(295.4849853515625px, 275.82000732421875px) translate(-295.4849853515625px, -275.82000732421875px) translate(0px, 0px);transform: translate(295.4849853515625px, 275.82000732421875px) translate(-295.4849853515625px, -275.82000732421875px) translate(0px, 0px);}}@keyframes kf_el_uFMQEcK7j02_an_tMhQpfqWx{12.50%{-webkit-transform: translate(295.4849853515625px, 275.82000732421875px) translate(-295.4849853515625px, -275.82000732421875px) translate(0px, 25px);transform: translate(295.4849853515625px, 275.82000732421875px) translate(-295.4849853515625px, -275.82000732421875px) translate(0px, 25px);}15%{-webkit-transform: translate(295.4849853515625px, 275.82000732421875px) translate(-295.4849853515625px, -275.82000732421875px) translate(0px, 0px);transform: translate(295.4849853515625px, 275.82000732421875px) translate(-295.4849853515625px, -275.82000732421875px) translate(0px, 0px);}75%{-webkit-transform: translate(295.4849853515625px, 275.82000732421875px) translate(-295.4849853515625px, -275.82000732421875px) translate(0px, 0px);transform: translate(295.4849853515625px, 275.82000732421875px) translate(-295.4849853515625px, -275.82000732421875px) translate(0px, 0px);}100%{-webkit-transform: translate(295.4849853515625px, 275.82000732421875px) translate(-295.4849853515625px, -275.82000732421875px) translate(0px, 0px);transform: translate(295.4849853515625px, 275.82000732421875px) translate(-295.4849853515625px, -275.82000732421875px) translate(0px, 0px);}}@-webkit-keyframes kf_el_IEtpcxws5P_an_quUfgYlMv-{15%{opacity: 0;}17.50%{opacity: 1;}75%{opacity: 1;}81.25%{opacity: 0;}0%{opacity: 0;}100%{opacity: 0;}}@keyframes kf_el_IEtpcxws5P_an_quUfgYlMv-{15%{opacity: 0;}17.50%{opacity: 1;}75%{opacity: 1;}81.25%{opacity: 0;}0%{opacity: 0;}100%{opacity: 0;}}@-webkit-keyframes kf_el_IEtpcxws5P_an_a2lisLDEJ{15%{-webkit-transform: translate(227.4149932861328px, 275.8299865722656px) translate(-227.4149932861328px, -275.8299865722656px) translate(0px, 25px);transform: translate(227.4149932861328px, 275.8299865722656px) translate(-227.4149932861328px, -275.8299865722656px) translate(0px, 25px);}17.50%{-webkit-transform: translate(227.4149932861328px, 275.8299865722656px) translate(-227.4149932861328px, -275.8299865722656px) translate(0px, 0px);transform: translate(227.4149932861328px, 275.8299865722656px) translate(-227.4149932861328px, -275.8299865722656px) translate(0px, 0px);}75%{-webkit-transform: translate(227.4149932861328px, 275.8299865722656px) translate(-227.4149932861328px, -275.8299865722656px) translate(0px, 0px);transform: translate(227.4149932861328px, 275.8299865722656px) translate(-227.4149932861328px, -275.8299865722656px) translate(0px, 0px);}0%{-webkit-transform: translate(227.4149932861328px, 275.8299865722656px) translate(-227.4149932861328px, -275.8299865722656px) translate(0px, 25px);transform: translate(227.4149932861328px, 275.8299865722656px) translate(-227.4149932861328px, -275.8299865722656px) translate(0px, 25px);}100%{-webkit-transform: translate(227.4149932861328px, 275.8299865722656px) translate(-227.4149932861328px, -275.8299865722656px) translate(0px, 0px);transform: translate(227.4149932861328px, 275.8299865722656px) translate(-227.4149932861328px, -275.8299865722656px) translate(0px, 0px);}}@keyframes kf_el_IEtpcxws5P_an_a2lisLDEJ{15%{-webkit-transform: translate(227.4149932861328px, 275.8299865722656px) translate(-227.4149932861328px, -275.8299865722656px) translate(0px, 25px);transform: translate(227.4149932861328px, 275.8299865722656px) translate(-227.4149932861328px, -275.8299865722656px) translate(0px, 25px);}17.50%{-webkit-transform: translate(227.4149932861328px, 275.8299865722656px) translate(-227.4149932861328px, -275.8299865722656px) translate(0px, 0px);transform: translate(227.4149932861328px, 275.8299865722656px) translate(-227.4149932861328px, -275.8299865722656px) translate(0px, 0px);}75%{-webkit-transform: translate(227.4149932861328px, 275.8299865722656px) translate(-227.4149932861328px, -275.8299865722656px) translate(0px, 0px);transform: translate(227.4149932861328px, 275.8299865722656px) translate(-227.4149932861328px, -275.8299865722656px) translate(0px, 0px);}0%{-webkit-transform: translate(227.4149932861328px, 275.8299865722656px) translate(-227.4149932861328px, -275.8299865722656px) translate(0px, 25px);transform: translate(227.4149932861328px, 275.8299865722656px) translate(-227.4149932861328px, -275.8299865722656px) translate(0px, 25px);}100%{-webkit-transform: translate(227.4149932861328px, 275.8299865722656px) translate(-227.4149932861328px, -275.8299865722656px) translate(0px, 0px);transform: translate(227.4149932861328px, 275.8299865722656px) translate(-227.4149932861328px, -275.8299865722656px) translate(0px, 0px);}}@-webkit-keyframes kf_el_MVn80OIkJJ_an_CP2hiEPk0{0%{opacity: 0;}17.50%{opacity: 0;}20%{opacity: 1;}75%{opacity: 1;}81.25%{opacity: 0;}100%{opacity: 0;}}@keyframes kf_el_MVn80OIkJJ_an_CP2hiEPk0{0%{opacity: 0;}17.50%{opacity: 0;}20%{opacity: 1;}75%{opacity: 1;}81.25%{opacity: 0;}100%{opacity: 0;}}@-webkit-keyframes kf_el_MVn80OIkJJ_an_Doj16ufzI{17.50%{-webkit-transform: translate(153.24877548217773px, 275.83001708984375px) translate(-153.24877548217773px, -275.83001708984375px) translate(0px, 25px);transform: translate(153.24877548217773px, 275.83001708984375px) translate(-153.24877548217773px, -275.83001708984375px) translate(0px, 25px);}20%{-webkit-transform: translate(153.24877548217773px, 275.83001708984375px) translate(-153.24877548217773px, -275.83001708984375px) translate(0px, 0px);transform: translate(153.24877548217773px, 275.83001708984375px) translate(-153.24877548217773px, -275.83001708984375px) translate(0px, 0px);}75%{-webkit-transform: translate(153.24877548217773px, 275.83001708984375px) translate(-153.24877548217773px, -275.83001708984375px) translate(0px, 0px);transform: translate(153.24877548217773px, 275.83001708984375px) translate(-153.24877548217773px, -275.83001708984375px) translate(0px, 0px);}100%{-webkit-transform: translate(153.24877548217773px, 275.83001708984375px) translate(-153.24877548217773px, -275.83001708984375px) translate(0px, 0px);transform: translate(153.24877548217773px, 275.83001708984375px) translate(-153.24877548217773px, -275.83001708984375px) translate(0px, 0px);}}@keyframes kf_el_MVn80OIkJJ_an_Doj16ufzI{17.50%{-webkit-transform: translate(153.24877548217773px, 275.83001708984375px) translate(-153.24877548217773px, -275.83001708984375px) translate(0px, 25px);transform: translate(153.24877548217773px, 275.83001708984375px) translate(-153.24877548217773px, -275.83001708984375px) translate(0px, 25px);}20%{-webkit-transform: translate(153.24877548217773px, 275.83001708984375px) translate(-153.24877548217773px, -275.83001708984375px) translate(0px, 0px);transform: translate(153.24877548217773px, 275.83001708984375px) translate(-153.24877548217773px, -275.83001708984375px) translate(0px, 0px);}75%{-webkit-transform: translate(153.24877548217773px, 275.83001708984375px) translate(-153.24877548217773px, -275.83001708984375px) translate(0px, 0px);transform: translate(153.24877548217773px, 275.83001708984375px) translate(-153.24877548217773px, -275.83001708984375px) translate(0px, 0px);}100%{-webkit-transform: translate(153.24877548217773px, 275.83001708984375px) translate(-153.24877548217773px, -275.83001708984375px) translate(0px, 0px);transform: translate(153.24877548217773px, 275.83001708984375px) translate(-153.24877548217773px, -275.83001708984375px) translate(0px, 0px);}}@-webkit-keyframes kf_el_PdghGtt-sp_an_k7r6mzNsm{20%{-webkit-transform: translate(110.20999908447266px, 117.44000244140625px) scale(0, 0) translate(-110.20999908447266px, -117.44000244140625px);transform: translate(110.20999908447266px, 117.44000244140625px) scale(0, 0) translate(-110.20999908447266px, -117.44000244140625px);}22.50%{-webkit-transform: translate(110.20999908447266px, 117.44000244140625px) scale(1, 1) translate(-110.20999908447266px, -117.44000244140625px);transform: translate(110.20999908447266px, 117.44000244140625px) scale(1, 1) translate(-110.20999908447266px, -117.44000244140625px);}75%{-webkit-transform: translate(110.20999908447266px, 117.44000244140625px) scale(1, 1) translate(-110.20999908447266px, -117.44000244140625px);transform: translate(110.20999908447266px, 117.44000244140625px) scale(1, 1) translate(-110.20999908447266px, -117.44000244140625px);}81.25%{-webkit-transform: translate(110.20999908447266px, 117.44000244140625px) scale(0, 0) translate(-110.20999908447266px, -117.44000244140625px);transform: translate(110.20999908447266px, 117.44000244140625px) scale(0, 0) translate(-110.20999908447266px, -117.44000244140625px);}0%{-webkit-transform: translate(110.20999908447266px, 117.44000244140625px) scale(0, 0) translate(-110.20999908447266px, -117.44000244140625px);transform: translate(110.20999908447266px, 117.44000244140625px) scale(0, 0) translate(-110.20999908447266px, -117.44000244140625px);}100%{-webkit-transform: translate(110.20999908447266px, 117.44000244140625px) scale(0, 0) translate(-110.20999908447266px, -117.44000244140625px);transform: translate(110.20999908447266px, 117.44000244140625px) scale(0, 0) translate(-110.20999908447266px, -117.44000244140625px);}}@keyframes kf_el_PdghGtt-sp_an_k7r6mzNsm{20%{-webkit-transform: translate(110.20999908447266px, 117.44000244140625px) scale(0, 0) translate(-110.20999908447266px, -117.44000244140625px);transform: translate(110.20999908447266px, 117.44000244140625px) scale(0, 0) translate(-110.20999908447266px, -117.44000244140625px);}22.50%{-webkit-transform: translate(110.20999908447266px, 117.44000244140625px) scale(1, 1) translate(-110.20999908447266px, -117.44000244140625px);transform: translate(110.20999908447266px, 117.44000244140625px) scale(1, 1) translate(-110.20999908447266px, -117.44000244140625px);}75%{-webkit-transform: translate(110.20999908447266px, 117.44000244140625px) scale(1, 1) translate(-110.20999908447266px, -117.44000244140625px);transform: translate(110.20999908447266px, 117.44000244140625px) scale(1, 1) translate(-110.20999908447266px, -117.44000244140625px);}81.25%{-webkit-transform: translate(110.20999908447266px, 117.44000244140625px) scale(0, 0) translate(-110.20999908447266px, -117.44000244140625px);transform: translate(110.20999908447266px, 117.44000244140625px) scale(0, 0) translate(-110.20999908447266px, -117.44000244140625px);}0%{-webkit-transform: translate(110.20999908447266px, 117.44000244140625px) scale(0, 0) translate(-110.20999908447266px, -117.44000244140625px);transform: translate(110.20999908447266px, 117.44000244140625px) scale(0, 0) translate(-110.20999908447266px, -117.44000244140625px);}100%{-webkit-transform: translate(110.20999908447266px, 117.44000244140625px) scale(0, 0) translate(-110.20999908447266px, -117.44000244140625px);transform: translate(110.20999908447266px, 117.44000244140625px) scale(0, 0) translate(-110.20999908447266px, -117.44000244140625px);}}@-webkit-keyframes kf_el_sNpkE4n2Yc_an_l5Iks_hKY{21.25%{-webkit-transform: translate(130.07001113891602px, 117.44000244140625px) scale(0, 0) translate(-130.07001113891602px, -117.44000244140625px);transform: translate(130.07001113891602px, 117.44000244140625px) scale(0, 0) translate(-130.07001113891602px, -117.44000244140625px);}23.75%{-webkit-transform: translate(130.07001113891602px, 117.44000244140625px) scale(1, 1) translate(-130.07001113891602px, -117.44000244140625px);transform: translate(130.07001113891602px, 117.44000244140625px) scale(1, 1) translate(-130.07001113891602px, -117.44000244140625px);}75%{-webkit-transform: translate(130.07001113891602px, 117.44000244140625px) scale(1, 1) translate(-130.07001113891602px, -117.44000244140625px);transform: translate(130.07001113891602px, 117.44000244140625px) scale(1, 1) translate(-130.07001113891602px, -117.44000244140625px);}81.25%{-webkit-transform: translate(130.07001113891602px, 117.44000244140625px) scale(0, 0) translate(-130.07001113891602px, -117.44000244140625px);transform: translate(130.07001113891602px, 117.44000244140625px) scale(0, 0) translate(-130.07001113891602px, -117.44000244140625px);}0%{-webkit-transform: translate(130.07001113891602px, 117.44000244140625px) scale(0, 0) translate(-130.07001113891602px, -117.44000244140625px);transform: translate(130.07001113891602px, 117.44000244140625px) scale(0, 0) translate(-130.07001113891602px, -117.44000244140625px);}100%{-webkit-transform: translate(130.07001113891602px, 117.44000244140625px) scale(0, 0) translate(-130.07001113891602px, -117.44000244140625px);transform: translate(130.07001113891602px, 117.44000244140625px) scale(0, 0) translate(-130.07001113891602px, -117.44000244140625px);}}@keyframes kf_el_sNpkE4n2Yc_an_l5Iks_hKY{21.25%{-webkit-transform: translate(130.07001113891602px, 117.44000244140625px) scale(0, 0) translate(-130.07001113891602px, -117.44000244140625px);transform: translate(130.07001113891602px, 117.44000244140625px) scale(0, 0) translate(-130.07001113891602px, -117.44000244140625px);}23.75%{-webkit-transform: translate(130.07001113891602px, 117.44000244140625px) scale(1, 1) translate(-130.07001113891602px, -117.44000244140625px);transform: translate(130.07001113891602px, 117.44000244140625px) scale(1, 1) translate(-130.07001113891602px, -117.44000244140625px);}75%{-webkit-transform: translate(130.07001113891602px, 117.44000244140625px) scale(1, 1) translate(-130.07001113891602px, -117.44000244140625px);transform: translate(130.07001113891602px, 117.44000244140625px) scale(1, 1) translate(-130.07001113891602px, -117.44000244140625px);}81.25%{-webkit-transform: translate(130.07001113891602px, 117.44000244140625px) scale(0, 0) translate(-130.07001113891602px, -117.44000244140625px);transform: translate(130.07001113891602px, 117.44000244140625px) scale(0, 0) translate(-130.07001113891602px, -117.44000244140625px);}0%{-webkit-transform: translate(130.07001113891602px, 117.44000244140625px) scale(0, 0) translate(-130.07001113891602px, -117.44000244140625px);transform: translate(130.07001113891602px, 117.44000244140625px) scale(0, 0) translate(-130.07001113891602px, -117.44000244140625px);}100%{-webkit-transform: translate(130.07001113891602px, 117.44000244140625px) scale(0, 0) translate(-130.07001113891602px, -117.44000244140625px);transform: translate(130.07001113891602px, 117.44000244140625px) scale(0, 0) translate(-130.07001113891602px, -117.44000244140625px);}}@-webkit-keyframes kf_el_106vRJOu6__an_HEswgui5p{18.75%{-webkit-transform: translate(90.3499984741211px, 117.44000244140625px) scale(0, 0) translate(-90.3499984741211px, -117.44000244140625px);transform: translate(90.3499984741211px, 117.44000244140625px) scale(0, 0) translate(-90.3499984741211px, -117.44000244140625px);}21.25%{-webkit-transform: translate(90.3499984741211px, 117.44000244140625px) scale(1, 1) translate(-90.3499984741211px, -117.44000244140625px);transform: translate(90.3499984741211px, 117.44000244140625px) scale(1, 1) translate(-90.3499984741211px, -117.44000244140625px);}75%{-webkit-transform: translate(90.3499984741211px, 117.44000244140625px) scale(1, 1) translate(-90.3499984741211px, -117.44000244140625px);transform: translate(90.3499984741211px, 117.44000244140625px) scale(1, 1) translate(-90.3499984741211px, -117.44000244140625px);}81.25%{-webkit-transform: translate(90.3499984741211px, 117.44000244140625px) scale(0, 0) translate(-90.3499984741211px, -117.44000244140625px);transform: translate(90.3499984741211px, 117.44000244140625px) scale(0, 0) translate(-90.3499984741211px, -117.44000244140625px);}0%{-webkit-transform: translate(90.3499984741211px, 117.44000244140625px) scale(0, 0) translate(-90.3499984741211px, -117.44000244140625px);transform: translate(90.3499984741211px, 117.44000244140625px) scale(0, 0) translate(-90.3499984741211px, -117.44000244140625px);}100%{-webkit-transform: translate(90.3499984741211px, 117.44000244140625px) scale(0, 0) translate(-90.3499984741211px, -117.44000244140625px);transform: translate(90.3499984741211px, 117.44000244140625px) scale(0, 0) translate(-90.3499984741211px, -117.44000244140625px);}}@keyframes kf_el_106vRJOu6__an_HEswgui5p{18.75%{-webkit-transform: translate(90.3499984741211px, 117.44000244140625px) scale(0, 0) translate(-90.3499984741211px, -117.44000244140625px);transform: translate(90.3499984741211px, 117.44000244140625px) scale(0, 0) translate(-90.3499984741211px, -117.44000244140625px);}21.25%{-webkit-transform: translate(90.3499984741211px, 117.44000244140625px) scale(1, 1) translate(-90.3499984741211px, -117.44000244140625px);transform: translate(90.3499984741211px, 117.44000244140625px) scale(1, 1) translate(-90.3499984741211px, -117.44000244140625px);}75%{-webkit-transform: translate(90.3499984741211px, 117.44000244140625px) scale(1, 1) translate(-90.3499984741211px, -117.44000244140625px);transform: translate(90.3499984741211px, 117.44000244140625px) scale(1, 1) translate(-90.3499984741211px, -117.44000244140625px);}81.25%{-webkit-transform: translate(90.3499984741211px, 117.44000244140625px) scale(0, 0) translate(-90.3499984741211px, -117.44000244140625px);transform: translate(90.3499984741211px, 117.44000244140625px) scale(0, 0) translate(-90.3499984741211px, -117.44000244140625px);}0%{-webkit-transform: translate(90.3499984741211px, 117.44000244140625px) scale(0, 0) translate(-90.3499984741211px, -117.44000244140625px);transform: translate(90.3499984741211px, 117.44000244140625px) scale(0, 0) translate(-90.3499984741211px, -117.44000244140625px);}100%{-webkit-transform: translate(90.3499984741211px, 117.44000244140625px) scale(0, 0) translate(-90.3499984741211px, -117.44000244140625px);transform: translate(90.3499984741211px, 117.44000244140625px) scale(0, 0) translate(-90.3499984741211px, -117.44000244140625px);}}@-webkit-keyframes kf_el_EVDPu6IsQZ_an_g0SCz6AtV{0%{-webkit-transform: translate(225.4550018310547px, 331.3800048828125px) scale(0, 0) translate(-225.4550018310547px, -331.3800048828125px);transform: translate(225.4550018310547px, 331.3800048828125px) scale(0, 0) translate(-225.4550018310547px, -331.3800048828125px);}12.50%{-webkit-transform: translate(225.4550018310547px, 331.3800048828125px) scale(0, 0) translate(-225.4550018310547px, -331.3800048828125px);transform: translate(225.4550018310547px, 331.3800048828125px) scale(0, 0) translate(-225.4550018310547px, -331.3800048828125px);}20%{-webkit-transform: translate(225.4550018310547px, 331.3800048828125px) scale(1, 1) translate(-225.4550018310547px, -331.3800048828125px);transform: translate(225.4550018310547px, 331.3800048828125px) scale(1, 1) translate(-225.4550018310547px, -331.3800048828125px);}75%{-webkit-transform: translate(225.4550018310547px, 331.3800048828125px) scale(1, 1) translate(-225.4550018310547px, -331.3800048828125px);transform: translate(225.4550018310547px, 331.3800048828125px) scale(1, 1) translate(-225.4550018310547px, -331.3800048828125px);}81.25%{-webkit-transform: translate(225.4550018310547px, 331.3800048828125px) scale(0, 0) translate(-225.4550018310547px, -331.3800048828125px);transform: translate(225.4550018310547px, 331.3800048828125px) scale(0, 0) translate(-225.4550018310547px, -331.3800048828125px);}100%{-webkit-transform: translate(225.4550018310547px, 331.3800048828125px) scale(0, 0) translate(-225.4550018310547px, -331.3800048828125px);transform: translate(225.4550018310547px, 331.3800048828125px) scale(0, 0) translate(-225.4550018310547px, -331.3800048828125px);}}@keyframes kf_el_EVDPu6IsQZ_an_g0SCz6AtV{0%{-webkit-transform: translate(225.4550018310547px, 331.3800048828125px) scale(0, 0) translate(-225.4550018310547px, -331.3800048828125px);transform: translate(225.4550018310547px, 331.3800048828125px) scale(0, 0) translate(-225.4550018310547px, -331.3800048828125px);}12.50%{-webkit-transform: translate(225.4550018310547px, 331.3800048828125px) scale(0, 0) translate(-225.4550018310547px, -331.3800048828125px);transform: translate(225.4550018310547px, 331.3800048828125px) scale(0, 0) translate(-225.4550018310547px, -331.3800048828125px);}20%{-webkit-transform: translate(225.4550018310547px, 331.3800048828125px) scale(1, 1) translate(-225.4550018310547px, -331.3800048828125px);transform: translate(225.4550018310547px, 331.3800048828125px) scale(1, 1) translate(-225.4550018310547px, -331.3800048828125px);}75%{-webkit-transform: translate(225.4550018310547px, 331.3800048828125px) scale(1, 1) translate(-225.4550018310547px, -331.3800048828125px);transform: translate(225.4550018310547px, 331.3800048828125px) scale(1, 1) translate(-225.4550018310547px, -331.3800048828125px);}81.25%{-webkit-transform: translate(225.4550018310547px, 331.3800048828125px) scale(0, 0) translate(-225.4550018310547px, -331.3800048828125px);transform: translate(225.4550018310547px, 331.3800048828125px) scale(0, 0) translate(-225.4550018310547px, -331.3800048828125px);}100%{-webkit-transform: translate(225.4550018310547px, 331.3800048828125px) scale(0, 0) translate(-225.4550018310547px, -331.3800048828125px);transform: translate(225.4550018310547px, 331.3800048828125px) scale(0, 0) translate(-225.4550018310547px, -331.3800048828125px);}}@-webkit-keyframes kf_el_ybjDRKKABQ_an_HpGcZHFci{6.25%{-webkit-transform: translate(229.00000762939453px, 238.00502014160156px) scale(0, 0) translate(-229.00000762939453px, -238.00502014160156px);transform: translate(229.00000762939453px, 238.00502014160156px) scale(0, 0) translate(-229.00000762939453px, -238.00502014160156px);}12.50%{-webkit-transform: translate(229.00000762939453px, 238.00502014160156px) scale(1.1, 1.1) translate(-229.00000762939453px, -238.00502014160156px);transform: translate(229.00000762939453px, 238.00502014160156px) scale(1.1, 1.1) translate(-229.00000762939453px, -238.00502014160156px);}13.75%{-webkit-transform: translate(229.00000762939453px, 238.00502014160156px) scale(0.95, 0.95) translate(-229.00000762939453px, -238.00502014160156px);transform: translate(229.00000762939453px, 238.00502014160156px) scale(0.95, 0.95) translate(-229.00000762939453px, -238.00502014160156px);}15%{-webkit-transform: translate(229.00000762939453px, 238.00502014160156px) scale(1.05, 1.05) translate(-229.00000762939453px, -238.00502014160156px);transform: translate(229.00000762939453px, 238.00502014160156px) scale(1.05, 1.05) translate(-229.00000762939453px, -238.00502014160156px);}16.25%{-webkit-transform: translate(229.00000762939453px, 238.00502014160156px) scale(1, 1) translate(-229.00000762939453px, -238.00502014160156px);transform: translate(229.00000762939453px, 238.00502014160156px) scale(1, 1) translate(-229.00000762939453px, -238.00502014160156px);}80.83%{-webkit-transform: translate(229.00000762939453px, 238.00502014160156px) scale(1, 1) translate(-229.00000762939453px, -238.00502014160156px);transform: translate(229.00000762939453px, 238.00502014160156px) scale(1, 1) translate(-229.00000762939453px, -238.00502014160156px);}84.17%{-webkit-transform: translate(229.00000762939453px, 238.00502014160156px) scale(1.15, 1.15) translate(-229.00000762939453px, -238.00502014160156px);transform: translate(229.00000762939453px, 238.00502014160156px) scale(1.15, 1.15) translate(-229.00000762939453px, -238.00502014160156px);}87.50%{-webkit-transform: translate(229.00000762939453px, 238.00502014160156px) scale(0, 0) translate(-229.00000762939453px, -238.00502014160156px);transform: translate(229.00000762939453px, 238.00502014160156px) scale(0, 0) translate(-229.00000762939453px, -238.00502014160156px);}100%{-webkit-transform: translate(229.00000762939453px, 238.00502014160156px) scale(0, 0) translate(-229.00000762939453px, -238.00502014160156px);transform: translate(229.00000762939453px, 238.00502014160156px) scale(0, 0) translate(-229.00000762939453px, -238.00502014160156px);}0%{-webkit-transform: translate(229.00000762939453px, 238.00502014160156px) scale(0, 0) translate(-229.00000762939453px, -238.00502014160156px);transform: translate(229.00000762939453px, 238.00502014160156px) scale(0, 0) translate(-229.00000762939453px, -238.00502014160156px);}}@keyframes kf_el_ybjDRKKABQ_an_HpGcZHFci{6.25%{-webkit-transform: translate(229.00000762939453px, 238.00502014160156px) scale(0, 0) translate(-229.00000762939453px, -238.00502014160156px);transform: translate(229.00000762939453px, 238.00502014160156px) scale(0, 0) translate(-229.00000762939453px, -238.00502014160156px);}12.50%{-webkit-transform: translate(229.00000762939453px, 238.00502014160156px) scale(1.1, 1.1) translate(-229.00000762939453px, -238.00502014160156px);transform: translate(229.00000762939453px, 238.00502014160156px) scale(1.1, 1.1) translate(-229.00000762939453px, -238.00502014160156px);}13.75%{-webkit-transform: translate(229.00000762939453px, 238.00502014160156px) scale(0.95, 0.95) translate(-229.00000762939453px, -238.00502014160156px);transform: translate(229.00000762939453px, 238.00502014160156px) scale(0.95, 0.95) translate(-229.00000762939453px, -238.00502014160156px);}15%{-webkit-transform: translate(229.00000762939453px, 238.00502014160156px) scale(1.05, 1.05) translate(-229.00000762939453px, -238.00502014160156px);transform: translate(229.00000762939453px, 238.00502014160156px) scale(1.05, 1.05) translate(-229.00000762939453px, -238.00502014160156px);}16.25%{-webkit-transform: translate(229.00000762939453px, 238.00502014160156px) scale(1, 1) translate(-229.00000762939453px, -238.00502014160156px);transform: translate(229.00000762939453px, 238.00502014160156px) scale(1, 1) translate(-229.00000762939453px, -238.00502014160156px);}80.83%{-webkit-transform: translate(229.00000762939453px, 238.00502014160156px) scale(1, 1) translate(-229.00000762939453px, -238.00502014160156px);transform: translate(229.00000762939453px, 238.00502014160156px) scale(1, 1) translate(-229.00000762939453px, -238.00502014160156px);}84.17%{-webkit-transform: translate(229.00000762939453px, 238.00502014160156px) scale(1.15, 1.15) translate(-229.00000762939453px, -238.00502014160156px);transform: translate(229.00000762939453px, 238.00502014160156px) scale(1.15, 1.15) translate(-229.00000762939453px, -238.00502014160156px);}87.50%{-webkit-transform: translate(229.00000762939453px, 238.00502014160156px) scale(0, 0) translate(-229.00000762939453px, -238.00502014160156px);transform: translate(229.00000762939453px, 238.00502014160156px) scale(0, 0) translate(-229.00000762939453px, -238.00502014160156px);}100%{-webkit-transform: translate(229.00000762939453px, 238.00502014160156px) scale(0, 0) translate(-229.00000762939453px, -238.00502014160156px);transform: translate(229.00000762939453px, 238.00502014160156px) scale(0, 0) translate(-229.00000762939453px, -238.00502014160156px);}0%{-webkit-transform: translate(229.00000762939453px, 238.00502014160156px) scale(0, 0) translate(-229.00000762939453px, -238.00502014160156px);transform: translate(229.00000762939453px, 238.00502014160156px) scale(0, 0) translate(-229.00000762939453px, -238.00502014160156px);}}@-webkit-keyframes kf_el_cXHz_0Bjfd_an_JGs4k7SDw{0%{-webkit-transform: translate(271.00000762939453px, 262.00501251220703px) scale(0, 0) translate(-271.00000762939453px, -262.00501251220703px);transform: translate(271.00000762939453px, 262.00501251220703px) scale(0, 0) translate(-271.00000762939453px, -262.00501251220703px);}6.25%{-webkit-transform: translate(271.00000762939453px, 262.00501251220703px) scale(1.1, 1.1) translate(-271.00000762939453px, -262.00501251220703px);transform: translate(271.00000762939453px, 262.00501251220703px) scale(1.1, 1.1) translate(-271.00000762939453px, -262.00501251220703px);}7.50%{-webkit-transform: translate(271.00000762939453px, 262.00501251220703px) scale(0.95, 0.95) translate(-271.00000762939453px, -262.00501251220703px);transform: translate(271.00000762939453px, 262.00501251220703px) scale(0.95, 0.95) translate(-271.00000762939453px, -262.00501251220703px);}8.75%{-webkit-transform: translate(271.00000762939453px, 262.00501251220703px) scale(1.05, 1.05) translate(-271.00000762939453px, -262.00501251220703px);transform: translate(271.00000762939453px, 262.00501251220703px) scale(1.05, 1.05) translate(-271.00000762939453px, -262.00501251220703px);}10%{-webkit-transform: translate(271.00000762939453px, 262.00501251220703px) scale(1, 1) translate(-271.00000762939453px, -262.00501251220703px);transform: translate(271.00000762939453px, 262.00501251220703px) scale(1, 1) translate(-271.00000762939453px, -262.00501251220703px);}80.83%{-webkit-transform: translate(271.00000762939453px, 262.00501251220703px) scale(1, 1) translate(-271.00000762939453px, -262.00501251220703px);transform: translate(271.00000762939453px, 262.00501251220703px) scale(1, 1) translate(-271.00000762939453px, -262.00501251220703px);}84.17%{-webkit-transform: translate(271.00000762939453px, 262.00501251220703px) scale(1.15, 1.15) translate(-271.00000762939453px, -262.00501251220703px);transform: translate(271.00000762939453px, 262.00501251220703px) scale(1.15, 1.15) translate(-271.00000762939453px, -262.00501251220703px);}87.50%{-webkit-transform: translate(271.00000762939453px, 262.00501251220703px) scale(0, 0) translate(-271.00000762939453px, -262.00501251220703px);transform: translate(271.00000762939453px, 262.00501251220703px) scale(0, 0) translate(-271.00000762939453px, -262.00501251220703px);}100%{-webkit-transform: translate(271.00000762939453px, 262.00501251220703px) scale(0, 0) translate(-271.00000762939453px, -262.00501251220703px);transform: translate(271.00000762939453px, 262.00501251220703px) scale(0, 0) translate(-271.00000762939453px, -262.00501251220703px);}}@keyframes kf_el_cXHz_0Bjfd_an_JGs4k7SDw{0%{-webkit-transform: translate(271.00000762939453px, 262.00501251220703px) scale(0, 0) translate(-271.00000762939453px, -262.00501251220703px);transform: translate(271.00000762939453px, 262.00501251220703px) scale(0, 0) translate(-271.00000762939453px, -262.00501251220703px);}6.25%{-webkit-transform: translate(271.00000762939453px, 262.00501251220703px) scale(1.1, 1.1) translate(-271.00000762939453px, -262.00501251220703px);transform: translate(271.00000762939453px, 262.00501251220703px) scale(1.1, 1.1) translate(-271.00000762939453px, -262.00501251220703px);}7.50%{-webkit-transform: translate(271.00000762939453px, 262.00501251220703px) scale(0.95, 0.95) translate(-271.00000762939453px, -262.00501251220703px);transform: translate(271.00000762939453px, 262.00501251220703px) scale(0.95, 0.95) translate(-271.00000762939453px, -262.00501251220703px);}8.75%{-webkit-transform: translate(271.00000762939453px, 262.00501251220703px) scale(1.05, 1.05) translate(-271.00000762939453px, -262.00501251220703px);transform: translate(271.00000762939453px, 262.00501251220703px) scale(1.05, 1.05) translate(-271.00000762939453px, -262.00501251220703px);}10%{-webkit-transform: translate(271.00000762939453px, 262.00501251220703px) scale(1, 1) translate(-271.00000762939453px, -262.00501251220703px);transform: translate(271.00000762939453px, 262.00501251220703px) scale(1, 1) translate(-271.00000762939453px, -262.00501251220703px);}80.83%{-webkit-transform: translate(271.00000762939453px, 262.00501251220703px) scale(1, 1) translate(-271.00000762939453px, -262.00501251220703px);transform: translate(271.00000762939453px, 262.00501251220703px) scale(1, 1) translate(-271.00000762939453px, -262.00501251220703px);}84.17%{-webkit-transform: translate(271.00000762939453px, 262.00501251220703px) scale(1.15, 1.15) translate(-271.00000762939453px, -262.00501251220703px);transform: translate(271.00000762939453px, 262.00501251220703px) scale(1.15, 1.15) translate(-271.00000762939453px, -262.00501251220703px);}87.50%{-webkit-transform: translate(271.00000762939453px, 262.00501251220703px) scale(0, 0) translate(-271.00000762939453px, -262.00501251220703px);transform: translate(271.00000762939453px, 262.00501251220703px) scale(0, 0) translate(-271.00000762939453px, -262.00501251220703px);}100%{-webkit-transform: translate(271.00000762939453px, 262.00501251220703px) scale(0, 0) translate(-271.00000762939453px, -262.00501251220703px);transform: translate(271.00000762939453px, 262.00501251220703px) scale(0, 0) translate(-271.00000762939453px, -262.00501251220703px);}}#el_ECt_Wx0Gy *{-webkit-animation-duration: 8s;animation-duration: 8s;-webkit-animation-iteration-count: infinite;animation-iteration-count: infinite;-webkit-animation-timing-function: cubic-bezier(0, 0, 1, 1);animation-timing-function: cubic-bezier(0, 0, 1, 1);}#el_cXHz_0Bjfd{-webkit-clip-path: url(#SVGID_2_);clip-path: url(#SVGID_2_);}#el_vAivgKuctU{fill: url(#SVGID_3_);}#el_bn57tcfJ_5{fill: url(#SVGID_4_);}#el_ybjDRKKABQ{-webkit-clip-path: url(#SVGID_2_);clip-path: url(#SVGID_2_);}#el_0wk6Fpz56_{fill: #F1F1F1;}#el_BZ5yNGR8PI{fill: url(#SVGID_5_);}#el_Wbm0mO_G0Y{fill: url(#SVGID_6_);}#el_EVDPu6IsQZ{-webkit-clip-path: url(#SVGID_2_);clip-path: url(#SVGID_2_);fill: url(#SVGID_7_);}#el_SGTTjSyeG4{-webkit-clip-path: url(#SVGID_2_);clip-path: url(#SVGID_2_);}#el_106vRJOu6_{fill: url(#SVGID_8_);}#el_sNpkE4n2Yc{fill: url(#SVGID_9_);}#el_PdghGtt-sp{fill: url(#SVGID_10_);}#el_MVn80OIkJJ{-webkit-clip-path: url(#SVGID_2_);clip-path: url(#SVGID_2_);fill: url(#SVGID_11_);-webkit-animation-fill-mode: none;animation-fill-mode: none;-webkit-animation-name: kf_el_MVn80OIkJJ_an_CP2hiEPk0;animation-name: kf_el_MVn80OIkJJ_an_CP2hiEPk0;-webkit-animation-timing-function: cubic-bezier(0.42, 0, 0.58, 1);animation-timing-function: cubic-bezier(0.42, 0, 0.58, 1);}#el_IEtpcxws5P{-webkit-clip-path: url(#SVGID_2_);clip-path: url(#SVGID_2_);fill: url(#SVGID_12_);-webkit-animation-fill-mode: none;animation-fill-mode: none;-webkit-animation-name: kf_el_IEtpcxws5P_an_quUfgYlMv-;animation-name: kf_el_IEtpcxws5P_an_quUfgYlMv-;-webkit-animation-timing-function: cubic-bezier(0.42, 0, 0.58, 1);animation-timing-function: cubic-bezier(0.42, 0, 0.58, 1);}#el_uFMQEcK7j02{-webkit-clip-path: url(#SVGID_2_);clip-path: url(#SVGID_2_);fill: url(#SVGID_13_);-webkit-animation-fill-mode: none;animation-fill-mode: none;-webkit-animation-name: kf_el_uFMQEcK7j02_an_FHUl-CJn2;animation-name: kf_el_uFMQEcK7j02_an_FHUl-CJn2;-webkit-animation-timing-function: cubic-bezier(0.42, 0, 0.58, 1);animation-timing-function: cubic-bezier(0.42, 0, 0.58, 1);}#el_cXHz_0Bjfd_an_JGs4k7SDw{-webkit-animation-fill-mode: none;animation-fill-mode: none;-webkit-animation-name: kf_el_cXHz_0Bjfd_an_JGs4k7SDw;animation-name: kf_el_cXHz_0Bjfd_an_JGs4k7SDw;-webkit-animation-timing-function: cubic-bezier(0, 0, 1, 1);animation-timing-function: cubic-bezier(0, 0, 1, 1);}#el_ybjDRKKABQ_an_HpGcZHFci{-webkit-animation-fill-mode: none;animation-fill-mode: none;-webkit-animation-name: kf_el_ybjDRKKABQ_an_HpGcZHFci;animation-name: kf_el_ybjDRKKABQ_an_HpGcZHFci;-webkit-animation-timing-function: cubic-bezier(0, 0, 1, 1);animation-timing-function: cubic-bezier(0, 0, 1, 1);}#el_EVDPu6IsQZ_an_g0SCz6AtV{-webkit-animation-fill-mode: none;animation-fill-mode: none;-webkit-animation-name: kf_el_EVDPu6IsQZ_an_g0SCz6AtV;animation-name: kf_el_EVDPu6IsQZ_an_g0SCz6AtV;-webkit-animation-timing-function: cubic-bezier(0.42, 0, 0.58, 1);animation-timing-function: cubic-bezier(0.42, 0, 0.58, 1);}#el_106vRJOu6__an_HEswgui5p{-webkit-animation-fill-mode: none;animation-fill-mode: none;-webkit-animation-name: kf_el_106vRJOu6__an_HEswgui5p;animation-name: kf_el_106vRJOu6__an_HEswgui5p;-webkit-animation-timing-function: cubic-bezier(0.42, 0, 0.58, 1);animation-timing-function: cubic-bezier(0.42, 0, 0.58, 1);}#el_sNpkE4n2Yc_an_l5Iks_hKY{-webkit-animation-fill-mode: none;animation-fill-mode: none;-webkit-animation-name: kf_el_sNpkE4n2Yc_an_l5Iks_hKY;animation-name: kf_el_sNpkE4n2Yc_an_l5Iks_hKY;-webkit-animation-timing-function: cubic-bezier(0.42, 0, 0.58, 1);animation-timing-function: cubic-bezier(0.42, 0, 0.58, 1);}#el_PdghGtt-sp_an_k7r6mzNsm{-webkit-animation-fill-mode: none;animation-fill-mode: none;-webkit-animation-name: kf_el_PdghGtt-sp_an_k7r6mzNsm;animation-name: kf_el_PdghGtt-sp_an_k7r6mzNsm;-webkit-animation-timing-function: cubic-bezier(0.42, 0, 0.58, 1);animation-timing-function: cubic-bezier(0.42, 0, 0.58, 1);}#el_MVn80OIkJJ_an_Doj16ufzI{-webkit-animation-fill-mode: none;animation-fill-mode: none;-webkit-animation-name: kf_el_MVn80OIkJJ_an_Doj16ufzI;animation-name: kf_el_MVn80OIkJJ_an_Doj16ufzI;-webkit-animation-timing-function: cubic-bezier(0.42, 0, 0.58, 1);animation-timing-function: cubic-bezier(0.42, 0, 0.58, 1);}#el_IEtpcxws5P_an_a2lisLDEJ{-webkit-animation-fill-mode: none;animation-fill-mode: none;-webkit-animation-name: kf_el_IEtpcxws5P_an_a2lisLDEJ;animation-name: kf_el_IEtpcxws5P_an_a2lisLDEJ;-webkit-animation-timing-function: cubic-bezier(0.42, 0, 0.58, 1);animation-timing-function: cubic-bezier(0.42, 0, 0.58, 1);}#el_uFMQEcK7j02_an_tMhQpfqWx{-webkit-animation-fill-mode: none;animation-fill-mode: none;-webkit-animation-name: kf_el_uFMQEcK7j02_an_tMhQpfqWx;animation-name: kf_el_uFMQEcK7j02_an_tMhQpfqWx;-webkit-animation-timing-function: cubic-bezier(0.42, 0, 0.58, 1);animation-timing-function: cubic-bezier(0.42, 0, 0.58, 1);}</style>

<g id="el_JsVcyg23zM">
	<defs>
		<path id="SVGID_1_" d="M430.21,218.63c1.28,0,2.32-1.04,2.32-2.32v-92.61c0-1.28-1.04-2.32-2.32-2.32h-39.68V99.71&#10;&#9;&#9;&#9;c0-1.28-1.04-2.32-2.32-2.32H69.79c-1.28,0-2.32,1.04-2.32,2.32v228.83c0,1.28,1.04,2.32,2.32,2.32c0.81,0,1.53-0.42,1.94-1.06&#10;&#9;&#9;&#9;v20.4c-0.41-0.63-1.13-1.06-1.94-1.06c-1.28,0-2.32,1.04-2.32,2.32v24.82c0,1.28,1.04,2.32,2.32,2.32h39.68v21.68&#10;&#9;&#9;&#9;c0,1.28,1.04,2.32,2.32,2.32h318.43c1.28,0,2.32-1.04,2.32-2.32V239.31c0-1.28-1.04-2.32-2.32-2.32s-2.32,1.04-2.32,2.32v155.67&#10;&#9;&#9;&#9;c0,1.66-1.34,3-3,3H117.1c-1.66,0-3-1.34-3-3v-16.36h274.11c1.28,0,2.32-1.04,2.32-2.32V215.31c0-1.28-1.04-2.32-2.32-2.32&#10;&#9;&#9;&#9;s-2.32,1.04-2.32,2.32v155.67c0,1.66-1.34,3-3,3H113.54c-0.07-0.09-0.15-0.17-0.24-0.24h269.32c1.71,0,3.11-1.4,3.11-3.11V161.49&#10;&#9;&#9;&#9;h0.17v30.83c0,1.28,1.04,2.32,2.32,2.32s2.32-1.04,2.32-2.32v-30.83h34.36c1.66,0,3,1.34,3,3v51.83&#10;&#9;&#9;&#9;C427.9,217.59,428.94,218.63,430.21,218.63z M385.9,121.39h-0.17v-16.55c0-0.62-0.19-1.2-0.51-1.69c0.42,0.52,0.68,1.16,0.68,1.88&#10;&#9;&#9;&#9;V121.39z M385.73,126.03h0.17v3.82c0,0.34-0.07,0.65-0.17,0.96V126.03z M110.03,373.97H75.1c-0.76,0-1.45-0.29-1.98-0.76&#10;&#9;&#9;&#9;c0.49,0.33,1.08,0.52,1.71,0.52h35.44C110.18,373.81,110.1,373.89,110.03,373.97z M385.73,156.85v-17.32&#10;&#9;&#9;&#9;c0.1,0.3,0.17,0.62,0.17,0.96v16.36H385.73z M424.9,156.85h-34.36v-30.82h34.36c1.66,0,3,1.34,3,3v24.82&#10;&#9;&#9;&#9;C427.9,155.5,426.55,156.85,424.9,156.85z"/>
	</defs>
	<clipPath id="SVGID_2_">
		<use xlink:href="#SVGID_1_" style="overflow:visible;"/>
	</clipPath>
	<g id="el_cXHz_0Bjfd_an_JGs4k7SDw" data-animator-group="true" data-animator-type="2"><g id="el_cXHz_0Bjfd">
		<linearGradient id="SVGID_3_" gradientUnits="userSpaceOnUse" x1="3.4798" y1="284.0717" x2="340.501" y2="141.093">
			<stop offset="5.084014e-03" style="stop-color:#00B8CF"/>
			<stop offset="1" style="stop-color:#00FC96"/>
		</linearGradient>
		<path d="M427.9,164.49v51.83c0,1.28,1.04,2.32,2.32,2.32s2.32-1.04,2.32-2.32v-92.61c0-1.28-1.04-2.32-2.32-2.32&#10;&#9;&#9;&#9;H111.79c-1.28,0-2.32,1.04-2.32,2.32v228.83c0,1.28,1.04,2.32,2.32,2.32s2.32-1.04,2.32-2.32V164.49c0-1.66,1.34-3,3-3H424.9&#10;&#9;&#9;&#9;C426.55,161.49,427.9,162.83,427.9,164.49z M188.9,153.85c0,1.66-1.34,3-3,3H117.1c-1.66,0-3-1.34-3-3v-24.82c0-1.66,1.34-3,3-3&#10;&#9;&#9;&#9;h68.79c1.66,0,3,1.34,3,3V153.85z M193.53,153.85v-24.82c0-1.66,1.34-3,3-3H424.9c1.66,0,3,1.34,3,3v24.82c0,1.66-1.34,3-3,3&#10;&#9;&#9;&#9;H196.53C194.88,156.85,193.53,155.5,193.53,153.85z" id="el_vAivgKuctU"/>
		<linearGradient id="SVGID_4_" gradientUnits="userSpaceOnUse" x1="81.4146" y1="467.7751" x2="418.4359" y2="324.7964">
			<stop offset="5.084014e-03" style="stop-color:#00B8CF"/>
			<stop offset="1" style="stop-color:#00FC96"/>
		</linearGradient>
		<path d="M430.21,236.99c-1.28,0-2.32,1.04-2.32,2.32v155.67c0,1.66-1.34,3-3,3H117.1c-1.66,0-3-1.34-3-3v-19.5&#10;&#9;&#9;&#9;c0-1.28-1.04-2.32-2.32-2.32s-2.32,1.04-2.32,2.32v24.82c0,1.28,1.04,2.32,2.32,2.32h318.43c1.28,0,2.32-1.04,2.32-2.32V239.31&#10;&#9;&#9;&#9;C432.53,238.03,431.49,236.99,430.21,236.99z" id="el_bn57tcfJ_5"/>
	</g></g>
	<g id="el_ybjDRKKABQ_an_HpGcZHFci" data-animator-group="true" data-animator-type="2"><g id="el_ybjDRKKABQ">
		<path d="M382.62,373.73H74.83c-1.71,0-3.11-1.4-3.11-3.11V104.84c0-1.71,1.4-3.11,3.11-3.11h307.79&#10;&#9;&#9;&#9;c1.71,0,3.11,1.4,3.11,3.11v265.79C385.73,372.33,384.33,373.73,382.62,373.73z" id="el_0wk6Fpz56_"/>
		<linearGradient id="SVGID_5_" gradientUnits="userSpaceOnUse" x1="-38.5202" y1="260.0717" x2="298.501" y2="117.0929">
			<stop offset="5.084014e-03" style="stop-color:#00B8CF"/>
			<stop offset="1" style="stop-color:#00FC96"/>
		</linearGradient>
		<path d="M385.9,140.49v51.83c0,1.28,1.04,2.32,2.32,2.32s2.32-1.04,2.32-2.32V99.71c0-1.28-1.04-2.32-2.32-2.32H69.79&#10;&#9;&#9;&#9;c-1.28,0-2.32,1.04-2.32,2.32v228.83c0,1.28,1.04,2.32,2.32,2.32s2.32-1.04,2.32-2.32V140.49c0-1.66,1.34-3,3-3H382.9&#10;&#9;&#9;&#9;C384.55,137.49,385.9,138.83,385.9,140.49z M146.9,129.85c0,1.66-1.34,3-3,3H75.1c-1.66,0-3-1.34-3-3v-24.82c0-1.66,1.34-3,3-3&#10;&#9;&#9;&#9;h68.79c1.66,0,3,1.34,3,3V129.85z M151.53,129.85v-24.82c0-1.66,1.34-3,3-3H382.9c1.66,0,3,1.34,3,3v24.82c0,1.66-1.34,3-3,3&#10;&#9;&#9;&#9;H154.53C152.88,132.85,151.53,131.5,151.53,129.85z" id="el_BZ5yNGR8PI"/>
		<linearGradient id="SVGID_6_" gradientUnits="userSpaceOnUse" x1="39.4146" y1="443.7751" x2="376.4359" y2="300.7964">
			<stop offset="5.084014e-03" style="stop-color:#00B8CF"/>
			<stop offset="1" style="stop-color:#00FC96"/>
		</linearGradient>
		<path d="M388.21,212.99c-1.28,0-2.32,1.04-2.32,2.32v155.67c0,1.66-1.34,3-3,3H75.1c-1.66,0-3-1.34-3-3v-19.5&#10;&#9;&#9;&#9;c0-1.28-1.04-2.32-2.32-2.32s-2.32,1.04-2.32,2.32v24.82c0,1.28,1.04,2.32,2.32,2.32h318.43c1.28,0,2.32-1.04,2.32-2.32V215.31&#10;&#9;&#9;&#9;C390.53,214.03,389.49,212.99,388.21,212.99z" id="el_Wbm0mO_G0Y"/>
	</g></g>
	<linearGradient id="SVGID_7_" gradientUnits="userSpaceOnUse" x1="27.3804" y1="415.4089" x2="364.4017" y2="272.4302">
		<stop offset="5.084014e-03" style="stop-color:#00B8CF"/>
		<stop offset="1" style="stop-color:#00FC96"/>
	</linearGradient>
	<g id="el_EVDPu6IsQZ_an_g0SCz6AtV" data-animator-group="true" data-animator-type="2"><path d="M152.22,324.29v14.18c0,9.1,7.4,16.5,16.5,16.5h113.47c9.1,0,16.5-7.4,16.5-16.5v-14.18&#10;&#9;&#9;c0-9.1-7.4-16.5-16.5-16.5H168.72C159.62,307.78,152.22,315.19,152.22,324.29z M294.05,324.29v14.18c0,6.54-5.32,11.86-11.86,11.86&#10;&#9;&#9;H168.72c-6.54,0-11.86-5.32-11.86-11.86v-14.18c0-6.54,5.32-11.86,11.86-11.86h113.47C288.73,312.42,294.05,317.74,294.05,324.29z" id="el_EVDPu6IsQZ"/></g>
	<g id="el_SGTTjSyeG4">
		<linearGradient id="SVGID_8_" gradientUnits="userSpaceOnUse" x1="-70.1455" y1="185.5264" x2="266.8758" y2="42.5477">
			<stop offset="5.084014e-03" style="stop-color:#00B8CF"/>
			<stop offset="1" style="stop-color:#00FC96"/>
		</linearGradient>
		<g id="el_106vRJOu6__an_HEswgui5p" data-animator-group="true" data-animator-type="2"><path d="M90.35,119.76c1.28,0,2.32-1.04,2.32-2.32c0-1.28-1.04-2.32-2.32-2.32s-2.32,1.04-2.32,2.32&#10;&#9;&#9;&#9;C88.03,118.72,89.07,119.76,90.35,119.76z" id="el_106vRJOu6_"/></g>
		<linearGradient id="SVGID_9_" gradientUnits="userSpaceOnUse" x1="-64.0878" y1="199.8053" x2="272.9335" y2="56.8266">
			<stop offset="5.084014e-03" style="stop-color:#00B8CF"/>
			<stop offset="1" style="stop-color:#00FC96"/>
		</linearGradient>
		<g id="el_sNpkE4n2Yc_an_l5Iks_hKY" data-animator-group="true" data-animator-type="2"><path d="M130.07,119.76c1.28,0,2.32-1.04,2.32-2.32c0-1.28-1.04-2.32-2.32-2.32s-2.32,1.04-2.32,2.32&#10;&#9;&#9;&#9;C127.75,118.72,128.79,119.76,130.07,119.76z" id="el_sNpkE4n2Yc"/></g>
		<linearGradient id="SVGID_10_" gradientUnits="userSpaceOnUse" x1="-67.1166" y1="192.6659" x2="269.9047" y2="49.6872">
			<stop offset="5.084014e-03" style="stop-color:#00B8CF"/>
			<stop offset="1" style="stop-color:#00FC96"/>
		</linearGradient>
		<g id="el_PdghGtt-sp_an_k7r6mzNsm" data-animator-group="true" data-animator-type="2"><path d="M110.21,119.76c1.28,0,2.32-1.04,2.32-2.32c0-1.28-1.04-2.32-2.32-2.32s-2.32,1.04-2.32,2.32&#10;&#9;&#9;&#9;C107.89,118.72,108.93,119.76,110.21,119.76z" id="el_PdghGtt-sp"/></g>
	</g>
	<linearGradient id="SVGID_11_" gradientUnits="userSpaceOnUse" x1="-18.7191" y1="306.7458" x2="318.3022" y2="163.767">
		<stop offset="5.084014e-03" style="stop-color:#00B8CF"/>
		<stop offset="1" style="stop-color:#00FC96"/>
	</linearGradient>
	<g id="el_MVn80OIkJJ_an_Doj16ufzI" data-animator-group="true" data-animator-type="0"><path d="M155.43,179.11c-0.33-0.92-1.2-1.54-2.18-1.54h0c-0.97,0-1.85,0.61-2.18,1.53&#10;&#9;&#9;c-0.08,0.21-8.45,23.35-16.71,46.34c-13.27,36.91-16.74,46.77-16.86,47.95c0,0.03,0,0.07,0,0.1c-0.01,0.62,0.23,1.2,0.66,1.65&#10;&#9;&#9;c0.43,0.44,1.01,0.69,1.63,0.69c1.11,0,2.07-0.77,2.29-1.84c0.02-0.08,0.04-0.16,0.06-0.23c0.53-1.8,3.89-11.34,9.98-28.35&#10;&#9;&#9;c0.43-1.19,1.56-1.99,2.82-1.99h36.41c1.27,0,2.4,0.8,2.83,1.99l10.31,28.88c0.33,0.92,1.21,1.54,2.18,1.54&#10;&#9;&#9;c0.26,0,0.53-0.05,0.78-0.14c0.59-0.21,1.05-0.63,1.32-1.19c0.27-0.56,0.3-1.19,0.09-1.77L155.43,179.11z M170.01,237.5&#10;&#9;&#9;c-0.56,0.8-1.48,1.27-2.45,1.27h-28.8c-0.98,0-1.89-0.48-2.45-1.27c-0.56-0.8-0.7-1.82-0.37-2.74&#10;&#9;&#9;c5.26-14.67,10.77-29.94,14.46-40.16c0.43-1.19,1.56-1.98,2.82-1.98c0,0,0,0,0.01,0c1.27,0,2.39,0.8,2.82,1.99l14.34,40.16&#10;&#9;&#9;C170.71,235.69,170.57,236.71,170.01,237.5z" id="el_MVn80OIkJJ"/></g>
	<linearGradient id="SVGID_12_" gradientUnits="userSpaceOnUse" x1="-12.8006" y1="320.6965" x2="324.2207" y2="177.7178">
		<stop offset="5.084014e-03" style="stop-color:#00B8CF"/>
		<stop offset="1" style="stop-color:#00FC96"/>
	</linearGradient>
	<g id="el_IEtpcxws5P_an_a2lisLDEJ" data-animator-group="true" data-animator-type="0"><path d="M204.92,275.83c27.09,0,49.13-22.04,49.13-49.13s-22.04-49.13-49.13-49.13h-1.82c-1.28,0-2.32,1.04-2.32,2.32&#10;&#9;&#9;v93.61c0,1.28,1.04,2.32,2.32,2.32H204.92z M205.41,185.36c0-0.84,0.35-1.64,0.97-2.21c0.56-0.51,1.28-0.79,2.03-0.79&#10;&#9;&#9;c0.08,0,0.17,0,0.25,0.01c22.85,1.91,40.74,21.39,40.74,44.33c0,22.94-17.9,42.42-40.74,44.33c-0.08,0.01-0.17,0.01-0.25,0.01&#10;&#9;&#9;c-0.75,0-1.47-0.28-2.03-0.79c-0.62-0.57-0.97-1.37-0.97-2.21V185.36z" id="el_IEtpcxws5P"/></g>
	<linearGradient id="SVGID_13_" gradientUnits="userSpaceOnUse" x1="0.4278" y1="351.8777" x2="337.4491" y2="208.899">
		<stop offset="5.084014e-03" style="stop-color:#00B8CF"/>
		<stop offset="1" style="stop-color:#00FC96"/>
	</linearGradient>
	<g id="el_uFMQEcK7j02_an_tMhQpfqWx" data-animator-group="true" data-animator-type="0"><path d="M273.49,249.19c0-1.28-1.04-2.32-2.32-2.32s-2.32,1.04-2.32,2.32v3.34c0,12.84,10.45,23.29,23.29,23.29h6.69&#10;&#9;&#9;c12.84,0,23.29-10.45,23.29-23.29v-11.22c0-10.34-8.42-18.76-18.76-18.76h-11.22c-10.29,0-18.65-8.37-18.65-18.65v-3.04&#10;&#9;&#9;c0-10.29,8.37-18.65,18.65-18.65h6.69c10.29,0,18.65,8.37,18.65,18.65c0,1.28,1.04,2.32,2.32,2.32s2.32-1.04,2.32-2.32&#10;&#9;&#9;c0-12.84-10.45-23.29-23.29-23.29h-6.69c-12.84,0-23.29,10.45-23.29,23.29v3.04c0,12.84,10.45,23.29,23.29,23.29h11.22&#10;&#9;&#9;c7.79,0,14.12,6.34,14.12,14.12v11.22c0,10.29-8.37,18.65-18.65,18.65h-6.69c-10.29,0-18.65-8.37-18.65-18.65V249.19z" id="el_uFMQEcK7j02"/></g>
</g>
</svg>