<svg version="1.1" id="el_GzGyIWdER" xmlns="http://www.w3.org/2000/svg" xmlns:xlink="http://www.w3.org/1999/xlink" x="0px" y="0px" viewBox="0 0 500 500" style="enable-background:new 0 0 500 500;" xml:space="preserve"><style>@-webkit-keyframes kf_el_bWZx-p3z79s_an_4LcxE5st6{0%{-webkit-transform: translate(283.5900115966797px, 316.52001953125px) scale(1, 0) translate(-283.5900115966797px, -316.52001953125px);transform: translate(283.5900115966797px, 316.52001953125px) scale(1, 0) translate(-283.5900115966797px, -316.52001953125px);}12.50%{-webkit-transform: translate(283.5900115966797px, 316.52001953125px) scale(1, 0) translate(-283.5900115966797px, -316.52001953125px);transform: translate(283.5900115966797px, 316.52001953125px) scale(1, 0) translate(-283.5900115966797px, -316.52001953125px);}15%{-webkit-transform: translate(283.5900115966797px, 316.52001953125px) scale(1, 1) translate(-283.5900115966797px, -316.52001953125px);transform: translate(283.5900115966797px, 316.52001953125px) scale(1, 1) translate(-283.5900115966797px, -316.52001953125px);}81.25%{-webkit-transform: translate(283.5900115966797px, 316.52001953125px) scale(1, 1) translate(-283.5900115966797px, -316.52001953125px);transform: translate(283.5900115966797px, 316.52001953125px) scale(1, 1) translate(-283.5900115966797px, -316.52001953125px);}85%{-webkit-transform: translate(283.5900115966797px, 316.52001953125px) scale(1, 1.1) translate(-283.5900115966797px, -316.52001953125px);transform: translate(283.5900115966797px, 316.52001953125px) scale(1, 1.1) translate(-283.5900115966797px, -316.52001953125px);}87.50%{-webkit-transform: translate(283.5900115966797px, 316.52001953125px) scale(1, 0) translate(-283.5900115966797px, -316.52001953125px);transform: translate(283.5900115966797px, 316.52001953125px) scale(1, 0) translate(-283.5900115966797px, -316.52001953125px);}100%{-webkit-transform: translate(283.5900115966797px, 316.52001953125px) scale(1, 0) translate(-283.5900115966797px, -316.52001953125px);transform: translate(283.5900115966797px, 316.52001953125px) scale(1, 0) translate(-283.5900115966797px, -316.52001953125px);}}@keyframes kf_el_bWZx-p3z79s_an_4LcxE5st6{0%{-webkit-transform: translate(283.5900115966797px, 316.52001953125px) scale(1, 0) translate(-283.5900115966797px, -316.52001953125px);transform: translate(283.5900115966797px, 316.52001953125px) scale(1, 0) translate(-283.5900115966797px, -316.52001953125px);}12.50%{-webkit-transform: translate(283.5900115966797px, 316.52001953125px) scale(1, 0) translate(-283.5900115966797px, -316.52001953125px);transform: translate(283.5900115966797px, 316.52001953125px) scale(1, 0) translate(-283.5900115966797px, -316.52001953125px);}15%{-webkit-transform: translate(283.5900115966797px, 316.52001953125px) scale(1, 1) translate(-283.5900115966797px, -316.52001953125px);transform: translate(283.5900115966797px, 316.52001953125px) scale(1, 1) translate(-283.5900115966797px, -316.52001953125px);}81.25%{-webkit-transform: translate(283.5900115966797px, 316.52001953125px) scale(1, 1) translate(-283.5900115966797px, -316.52001953125px);transform: translate(283.5900115966797px, 316.52001953125px) scale(1, 1) translate(-283.5900115966797px, -316.52001953125px);}85%{-webkit-transform: translate(283.5900115966797px, 316.52001953125px) scale(1, 1.1) translate(-283.5900115966797px, -316.52001953125px);transform: translate(283.5900115966797px, 316.52001953125px) scale(1, 1.1) translate(-283.5900115966797px, -316.52001953125px);}87.50%{-webkit-transform: translate(283.5900115966797px, 316.52001953125px) scale(1, 0) translate(-283.5900115966797px, -316.52001953125px);transform: translate(283.5900115966797px, 316.52001953125px) scale(1, 0) translate(-283.5900115966797px, -316.52001953125px);}100%{-webkit-transform: translate(283.5900115966797px, 316.52001953125px) scale(1, 0) translate(-283.5900115966797px, -316.52001953125px);transform: translate(283.5900115966797px, 316.52001953125px) scale(1, 0) translate(-283.5900115966797px, -316.52001953125px);}}@-webkit-keyframes kf_el_9ympzjN6fO_an_ut_ma7rz1{11.25%{-webkit-transform: translate(217.4449920654297px, 316.52001953125px) scale(1, 0) translate(-217.4449920654297px, -316.52001953125px);transform: translate(217.4449920654297px, 316.52001953125px) scale(1, 0) translate(-217.4449920654297px, -316.52001953125px);}13.75%{-webkit-transform: translate(217.4449920654297px, 316.52001953125px) scale(1, 1) translate(-217.4449920654297px, -316.52001953125px);transform: translate(217.4449920654297px, 316.52001953125px) scale(1, 1) translate(-217.4449920654297px, -316.52001953125px);}81.25%{-webkit-transform: translate(217.4449920654297px, 316.52001953125px) scale(1, 1) translate(-217.4449920654297px, -316.52001953125px);transform: translate(217.4449920654297px, 316.52001953125px) scale(1, 1) translate(-217.4449920654297px, -316.52001953125px);}85%{-webkit-transform: translate(217.4449920654297px, 316.52001953125px) scale(1, 1.1) translate(-217.4449920654297px, -316.52001953125px);transform: translate(217.4449920654297px, 316.52001953125px) scale(1, 1.1) translate(-217.4449920654297px, -316.52001953125px);}87.50%{-webkit-transform: translate(217.4449920654297px, 316.52001953125px) scale(1, 0) translate(-217.4449920654297px, -316.52001953125px);transform: translate(217.4449920654297px, 316.52001953125px) scale(1, 0) translate(-217.4449920654297px, -316.52001953125px);}100%{-webkit-transform: translate(217.4449920654297px, 316.52001953125px) scale(1, 0) translate(-217.4449920654297px, -316.52001953125px);transform: translate(217.4449920654297px, 316.52001953125px) scale(1, 0) translate(-217.4449920654297px, -316.52001953125px);}0%{-webkit-transform: translate(217.4449920654297px, 316.52001953125px) scale(1, 0) translate(-217.4449920654297px, -316.52001953125px);transform: translate(217.4449920654297px, 316.52001953125px) scale(1, 0) translate(-217.4449920654297px, -316.52001953125px);}}@keyframes kf_el_9ympzjN6fO_an_ut_ma7rz1{11.25%{-webkit-transform: translate(217.4449920654297px, 316.52001953125px) scale(1, 0) translate(-217.4449920654297px, -316.52001953125px);transform: translate(217.4449920654297px, 316.52001953125px) scale(1, 0) translate(-217.4449920654297px, -316.52001953125px);}13.75%{-webkit-transform: translate(217.4449920654297px, 316.52001953125px) scale(1, 1) translate(-217.4449920654297px, -316.52001953125px);transform: translate(217.4449920654297px, 316.52001953125px) scale(1, 1) translate(-217.4449920654297px, -316.52001953125px);}81.25%{-webkit-transform: translate(217.4449920654297px, 316.52001953125px) scale(1, 1) translate(-217.4449920654297px, -316.52001953125px);transform: translate(217.4449920654297px, 316.52001953125px) scale(1, 1) translate(-217.4449920654297px, -316.52001953125px);}85%{-webkit-transform: translate(217.4449920654297px, 316.52001953125px) scale(1, 1.1) translate(-217.4449920654297px, -316.52001953125px);transform: translate(217.4449920654297px, 316.52001953125px) scale(1, 1.1) translate(-217.4449920654297px, -316.52001953125px);}87.50%{-webkit-transform: translate(217.4449920654297px, 316.52001953125px) scale(1, 0) translate(-217.4449920654297px, -316.52001953125px);transform: translate(217.4449920654297px, 316.52001953125px) scale(1, 0) translate(-217.4449920654297px, -316.52001953125px);}100%{-webkit-transform: translate(217.4449920654297px, 316.52001953125px) scale(1, 0) translate(-217.4449920654297px, -316.52001953125px);transform: translate(217.4449920654297px, 316.52001953125px) scale(1, 0) translate(-217.4449920654297px, -316.52001953125px);}0%{-webkit-transform: translate(217.4449920654297px, 316.52001953125px) scale(1, 0) translate(-217.4449920654297px, -316.52001953125px);transform: translate(217.4449920654297px, 316.52001953125px) scale(1, 0) translate(-217.4449920654297px, -316.52001953125px);}}@-webkit-keyframes kf_el_4n_SKH867x_an_ft15A6yT8{10%{-webkit-transform: translate(151.29000091552734px, 316.52001953125px) scale(1, 0) translate(-151.29000091552734px, -316.52001953125px);transform: translate(151.29000091552734px, 316.52001953125px) scale(1, 0) translate(-151.29000091552734px, -316.52001953125px);}12.50%{-webkit-transform: translate(151.29000091552734px, 316.52001953125px) scale(1, 1) translate(-151.29000091552734px, -316.52001953125px);transform: translate(151.29000091552734px, 316.52001953125px) scale(1, 1) translate(-151.29000091552734px, -316.52001953125px);}81.25%{-webkit-transform: translate(151.29000091552734px, 316.52001953125px) scale(1, 1) translate(-151.29000091552734px, -316.52001953125px);transform: translate(151.29000091552734px, 316.52001953125px) scale(1, 1) translate(-151.29000091552734px, -316.52001953125px);}85%{-webkit-transform: translate(151.29000091552734px, 316.52001953125px) scale(1, 1.1) translate(-151.29000091552734px, -316.52001953125px);transform: translate(151.29000091552734px, 316.52001953125px) scale(1, 1.1) translate(-151.29000091552734px, -316.52001953125px);}87.50%{-webkit-transform: translate(151.29000091552734px, 316.52001953125px) scale(1, 0) translate(-151.29000091552734px, -316.52001953125px);transform: translate(151.29000091552734px, 316.52001953125px) scale(1, 0) translate(-151.29000091552734px, -316.52001953125px);}100%{-webkit-transform: translate(151.29000091552734px, 316.52001953125px) scale(1, 0) translate(-151.29000091552734px, -316.52001953125px);transform: translate(151.29000091552734px, 316.52001953125px) scale(1, 0) translate(-151.29000091552734px, -316.52001953125px);}0%{-webkit-transform: translate(151.29000091552734px, 316.52001953125px) scale(1, 0) translate(-151.29000091552734px, -316.52001953125px);transform: translate(151.29000091552734px, 316.52001953125px) scale(1, 0) translate(-151.29000091552734px, -316.52001953125px);}}@keyframes kf_el_4n_SKH867x_an_ft15A6yT8{10%{-webkit-transform: translate(151.29000091552734px, 316.52001953125px) scale(1, 0) translate(-151.29000091552734px, -316.52001953125px);transform: translate(151.29000091552734px, 316.52001953125px) scale(1, 0) translate(-151.29000091552734px, -316.52001953125px);}12.50%{-webkit-transform: translate(151.29000091552734px, 316.52001953125px) scale(1, 1) translate(-151.29000091552734px, -316.52001953125px);transform: translate(151.29000091552734px, 316.52001953125px) scale(1, 1) translate(-151.29000091552734px, -316.52001953125px);}81.25%{-webkit-transform: translate(151.29000091552734px, 316.52001953125px) scale(1, 1) translate(-151.29000091552734px, -316.52001953125px);transform: translate(151.29000091552734px, 316.52001953125px) scale(1, 1) translate(-151.29000091552734px, -316.52001953125px);}85%{-webkit-transform: translate(151.29000091552734px, 316.52001953125px) scale(1, 1.1) translate(-151.29000091552734px, -316.52001953125px);transform: translate(151.29000091552734px, 316.52001953125px) scale(1, 1.1) translate(-151.29000091552734px, -316.52001953125px);}87.50%{-webkit-transform: translate(151.29000091552734px, 316.52001953125px) scale(1, 0) translate(-151.29000091552734px, -316.52001953125px);transform: translate(151.29000091552734px, 316.52001953125px) scale(1, 0) translate(-151.29000091552734px, -316.52001953125px);}100%{-webkit-transform: translate(151.29000091552734px, 316.52001953125px) scale(1, 0) translate(-151.29000091552734px, -316.52001953125px);transform: translate(151.29000091552734px, 316.52001953125px) scale(1, 0) translate(-151.29000091552734px, -316.52001953125px);}0%{-webkit-transform: translate(151.29000091552734px, 316.52001953125px) scale(1, 0) translate(-151.29000091552734px, -316.52001953125px);transform: translate(151.29000091552734px, 316.52001953125px) scale(1, 0) translate(-151.29000091552734px, -316.52001953125px);}}@-webkit-keyframes kf_el_l6UkOgx5VY_an_Fc39BKP_i{13.75%{-webkit-transform: translate(349.74000549316406px, 316.530029296875px) scale(1, 0) translate(-349.74000549316406px, -316.530029296875px);transform: translate(349.74000549316406px, 316.530029296875px) scale(1, 0) translate(-349.74000549316406px, -316.530029296875px);}16.25%{-webkit-transform: translate(349.74000549316406px, 316.530029296875px) scale(1, 1) translate(-349.74000549316406px, -316.530029296875px);transform: translate(349.74000549316406px, 316.530029296875px) scale(1, 1) translate(-349.74000549316406px, -316.530029296875px);}81.25%{-webkit-transform: translate(349.74000549316406px, 316.530029296875px) scale(1, 1) translate(-349.74000549316406px, -316.530029296875px);transform: translate(349.74000549316406px, 316.530029296875px) scale(1, 1) translate(-349.74000549316406px, -316.530029296875px);}85%{-webkit-transform: translate(349.74000549316406px, 316.530029296875px) scale(1, 1.1) translate(-349.74000549316406px, -316.530029296875px);transform: translate(349.74000549316406px, 316.530029296875px) scale(1, 1.1) translate(-349.74000549316406px, -316.530029296875px);}87.50%{-webkit-transform: translate(349.74000549316406px, 316.530029296875px) scale(1, 0) translate(-349.74000549316406px, -316.530029296875px);transform: translate(349.74000549316406px, 316.530029296875px) scale(1, 0) translate(-349.74000549316406px, -316.530029296875px);}100%{-webkit-transform: translate(349.74000549316406px, 316.530029296875px) scale(1, 0) translate(-349.74000549316406px, -316.530029296875px);transform: translate(349.74000549316406px, 316.530029296875px) scale(1, 0) translate(-349.74000549316406px, -316.530029296875px);}0%{-webkit-transform: translate(349.74000549316406px, 316.530029296875px) scale(1, 0) translate(-349.74000549316406px, -316.530029296875px);transform: translate(349.74000549316406px, 316.530029296875px) scale(1, 0) translate(-349.74000549316406px, -316.530029296875px);}}@keyframes kf_el_l6UkOgx5VY_an_Fc39BKP_i{13.75%{-webkit-transform: translate(349.74000549316406px, 316.530029296875px) scale(1, 0) translate(-349.74000549316406px, -316.530029296875px);transform: translate(349.74000549316406px, 316.530029296875px) scale(1, 0) translate(-349.74000549316406px, -316.530029296875px);}16.25%{-webkit-transform: translate(349.74000549316406px, 316.530029296875px) scale(1, 1) translate(-349.74000549316406px, -316.530029296875px);transform: translate(349.74000549316406px, 316.530029296875px) scale(1, 1) translate(-349.74000549316406px, -316.530029296875px);}81.25%{-webkit-transform: translate(349.74000549316406px, 316.530029296875px) scale(1, 1) translate(-349.74000549316406px, -316.530029296875px);transform: translate(349.74000549316406px, 316.530029296875px) scale(1, 1) translate(-349.74000549316406px, -316.530029296875px);}85%{-webkit-transform: translate(349.74000549316406px, 316.530029296875px) scale(1, 1.1) translate(-349.74000549316406px, -316.530029296875px);transform: translate(349.74000549316406px, 316.530029296875px) scale(1, 1.1) translate(-349.74000549316406px, -316.530029296875px);}87.50%{-webkit-transform: translate(349.74000549316406px, 316.530029296875px) scale(1, 0) translate(-349.74000549316406px, -316.530029296875px);transform: translate(349.74000549316406px, 316.530029296875px) scale(1, 0) translate(-349.74000549316406px, -316.530029296875px);}100%{-webkit-transform: translate(349.74000549316406px, 316.530029296875px) scale(1, 0) translate(-349.74000549316406px, -316.530029296875px);transform: translate(349.74000549316406px, 316.530029296875px) scale(1, 0) translate(-349.74000549316406px, -316.530029296875px);}0%{-webkit-transform: translate(349.74000549316406px, 316.530029296875px) scale(1, 0) translate(-349.74000549316406px, -316.530029296875px);transform: translate(349.74000549316406px, 316.530029296875px) scale(1, 0) translate(-349.74000549316406px, -316.530029296875px);}}@-webkit-keyframes kf_el_l6Q3cQ2wXw_an_fEw9F_lzfU{13.75%{-webkit-transform: translate(246.05997467041016px, 138.7700080871582px) scale(0, 0) translate(-246.05997467041016px, -138.7700080871582px);transform: translate(246.05997467041016px, 138.7700080871582px) scale(0, 0) translate(-246.05997467041016px, -138.7700080871582px);}16.25%{-webkit-transform: translate(246.05997467041016px, 138.7700080871582px) scale(1, 1) translate(-246.05997467041016px, -138.7700080871582px);transform: translate(246.05997467041016px, 138.7700080871582px) scale(1, 1) translate(-246.05997467041016px, -138.7700080871582px);}81.25%{-webkit-transform: translate(246.05997467041016px, 138.7700080871582px) scale(1, 1) translate(-246.05997467041016px, -138.7700080871582px);transform: translate(246.05997467041016px, 138.7700080871582px) scale(1, 1) translate(-246.05997467041016px, -138.7700080871582px);}85%{-webkit-transform: translate(246.05997467041016px, 138.7700080871582px) scale(1.1, 1.1) translate(-246.05997467041016px, -138.7700080871582px);transform: translate(246.05997467041016px, 138.7700080871582px) scale(1.1, 1.1) translate(-246.05997467041016px, -138.7700080871582px);}87.50%{-webkit-transform: translate(246.05997467041016px, 138.7700080871582px) scale(0, 0) translate(-246.05997467041016px, -138.7700080871582px);transform: translate(246.05997467041016px, 138.7700080871582px) scale(0, 0) translate(-246.05997467041016px, -138.7700080871582px);}100%{-webkit-transform: translate(246.05997467041016px, 138.7700080871582px) scale(0, 0) translate(-246.05997467041016px, -138.7700080871582px);transform: translate(246.05997467041016px, 138.7700080871582px) scale(0, 0) translate(-246.05997467041016px, -138.7700080871582px);}0%{-webkit-transform: translate(246.05997467041016px, 138.7700080871582px) scale(0, 0) translate(-246.05997467041016px, -138.7700080871582px);transform: translate(246.05997467041016px, 138.7700080871582px) scale(0, 0) translate(-246.05997467041016px, -138.7700080871582px);}}@keyframes kf_el_l6Q3cQ2wXw_an_fEw9F_lzfU{13.75%{-webkit-transform: translate(246.05997467041016px, 138.7700080871582px) scale(0, 0) translate(-246.05997467041016px, -138.7700080871582px);transform: translate(246.05997467041016px, 138.7700080871582px) scale(0, 0) translate(-246.05997467041016px, -138.7700080871582px);}16.25%{-webkit-transform: translate(246.05997467041016px, 138.7700080871582px) scale(1, 1) translate(-246.05997467041016px, -138.7700080871582px);transform: translate(246.05997467041016px, 138.7700080871582px) scale(1, 1) translate(-246.05997467041016px, -138.7700080871582px);}81.25%{-webkit-transform: translate(246.05997467041016px, 138.7700080871582px) scale(1, 1) translate(-246.05997467041016px, -138.7700080871582px);transform: translate(246.05997467041016px, 138.7700080871582px) scale(1, 1) translate(-246.05997467041016px, -138.7700080871582px);}85%{-webkit-transform: translate(246.05997467041016px, 138.7700080871582px) scale(1.1, 1.1) translate(-246.05997467041016px, -138.7700080871582px);transform: translate(246.05997467041016px, 138.7700080871582px) scale(1.1, 1.1) translate(-246.05997467041016px, -138.7700080871582px);}87.50%{-webkit-transform: translate(246.05997467041016px, 138.7700080871582px) scale(0, 0) translate(-246.05997467041016px, -138.7700080871582px);transform: translate(246.05997467041016px, 138.7700080871582px) scale(0, 0) translate(-246.05997467041016px, -138.7700080871582px);}100%{-webkit-transform: translate(246.05997467041016px, 138.7700080871582px) scale(0, 0) translate(-246.05997467041016px, -138.7700080871582px);transform: translate(246.05997467041016px, 138.7700080871582px) scale(0, 0) translate(-246.05997467041016px, -138.7700080871582px);}0%{-webkit-transform: translate(246.05997467041016px, 138.7700080871582px) scale(0, 0) translate(-246.05997467041016px, -138.7700080871582px);transform: translate(246.05997467041016px, 138.7700080871582px) scale(0, 0) translate(-246.05997467041016px, -138.7700080871582px);}}@-webkit-keyframes kf_el_l6Q3cQ2wXw_an_VcZBZ45S_{13.75%{-webkit-transform: translate(246.05997467041016px, 138.7700080871582px) rotate(360deg) translate(-246.05997467041016px, -138.7700080871582px);transform: translate(246.05997467041016px, 138.7700080871582px) rotate(360deg) translate(-246.05997467041016px, -138.7700080871582px);}16.25%{-webkit-transform: translate(246.05997467041016px, 138.7700080871582px) rotate(0deg) translate(-246.05997467041016px, -138.7700080871582px);transform: translate(246.05997467041016px, 138.7700080871582px) rotate(0deg) translate(-246.05997467041016px, -138.7700080871582px);}17.50%{-webkit-transform: translate(246.05997467041016px, 138.7700080871582px) rotate(-10deg) translate(-246.05997467041016px, -138.7700080871582px);transform: translate(246.05997467041016px, 138.7700080871582px) rotate(-10deg) translate(-246.05997467041016px, -138.7700080871582px);}18.75%{-webkit-transform: translate(246.05997467041016px, 138.7700080871582px) rotate(5deg) translate(-246.05997467041016px, -138.7700080871582px);transform: translate(246.05997467041016px, 138.7700080871582px) rotate(5deg) translate(-246.05997467041016px, -138.7700080871582px);}20%{-webkit-transform: translate(246.05997467041016px, 138.7700080871582px) rotate(0deg) translate(-246.05997467041016px, -138.7700080871582px);transform: translate(246.05997467041016px, 138.7700080871582px) rotate(0deg) translate(-246.05997467041016px, -138.7700080871582px);}81.25%{-webkit-transform: translate(246.05997467041016px, 138.7700080871582px) rotate(0deg) translate(-246.05997467041016px, -138.7700080871582px);transform: translate(246.05997467041016px, 138.7700080871582px) rotate(0deg) translate(-246.05997467041016px, -138.7700080871582px);}0%{-webkit-transform: translate(246.05997467041016px, 138.7700080871582px) rotate(360deg) translate(-246.05997467041016px, -138.7700080871582px);transform: translate(246.05997467041016px, 138.7700080871582px) rotate(360deg) translate(-246.05997467041016px, -138.7700080871582px);}100%{-webkit-transform: translate(246.05997467041016px, 138.7700080871582px) rotate(0deg) translate(-246.05997467041016px, -138.7700080871582px);transform: translate(246.05997467041016px, 138.7700080871582px) rotate(0deg) translate(-246.05997467041016px, -138.7700080871582px);}}@keyframes kf_el_l6Q3cQ2wXw_an_VcZBZ45S_{13.75%{-webkit-transform: translate(246.05997467041016px, 138.7700080871582px) rotate(360deg) translate(-246.05997467041016px, -138.7700080871582px);transform: translate(246.05997467041016px, 138.7700080871582px) rotate(360deg) translate(-246.05997467041016px, -138.7700080871582px);}16.25%{-webkit-transform: translate(246.05997467041016px, 138.7700080871582px) rotate(0deg) translate(-246.05997467041016px, -138.7700080871582px);transform: translate(246.05997467041016px, 138.7700080871582px) rotate(0deg) translate(-246.05997467041016px, -138.7700080871582px);}17.50%{-webkit-transform: translate(246.05997467041016px, 138.7700080871582px) rotate(-10deg) translate(-246.05997467041016px, -138.7700080871582px);transform: translate(246.05997467041016px, 138.7700080871582px) rotate(-10deg) translate(-246.05997467041016px, -138.7700080871582px);}18.75%{-webkit-transform: translate(246.05997467041016px, 138.7700080871582px) rotate(5deg) translate(-246.05997467041016px, -138.7700080871582px);transform: translate(246.05997467041016px, 138.7700080871582px) rotate(5deg) translate(-246.05997467041016px, -138.7700080871582px);}20%{-webkit-transform: translate(246.05997467041016px, 138.7700080871582px) rotate(0deg) translate(-246.05997467041016px, -138.7700080871582px);transform: translate(246.05997467041016px, 138.7700080871582px) rotate(0deg) translate(-246.05997467041016px, -138.7700080871582px);}81.25%{-webkit-transform: translate(246.05997467041016px, 138.7700080871582px) rotate(0deg) translate(-246.05997467041016px, -138.7700080871582px);transform: translate(246.05997467041016px, 138.7700080871582px) rotate(0deg) translate(-246.05997467041016px, -138.7700080871582px);}0%{-webkit-transform: translate(246.05997467041016px, 138.7700080871582px) rotate(360deg) translate(-246.05997467041016px, -138.7700080871582px);transform: translate(246.05997467041016px, 138.7700080871582px) rotate(360deg) translate(-246.05997467041016px, -138.7700080871582px);}100%{-webkit-transform: translate(246.05997467041016px, 138.7700080871582px) rotate(0deg) translate(-246.05997467041016px, -138.7700080871582px);transform: translate(246.05997467041016px, 138.7700080871582px) rotate(0deg) translate(-246.05997467041016px, -138.7700080871582px);}}@-webkit-keyframes kf_el_UCQB4AgafB_an_RmVIkYRYO{0%{-webkit-transform: translate(250.00498962402344px, 420.469970703125px) scale(0, 0) translate(-250.00498962402344px, -420.469970703125px);transform: translate(250.00498962402344px, 420.469970703125px) scale(0, 0) translate(-250.00498962402344px, -420.469970703125px);}6.25%{-webkit-transform: translate(250.00498962402344px, 420.469970703125px) scale(1.1, 1.1) translate(-250.00498962402344px, -420.469970703125px);transform: translate(250.00498962402344px, 420.469970703125px) scale(1.1, 1.1) translate(-250.00498962402344px, -420.469970703125px);}7.50%{-webkit-transform: translate(250.00498962402344px, 420.469970703125px) scale(0.95, 0.95) translate(-250.00498962402344px, -420.469970703125px);transform: translate(250.00498962402344px, 420.469970703125px) scale(0.95, 0.95) translate(-250.00498962402344px, -420.469970703125px);}8.75%{-webkit-transform: translate(250.00498962402344px, 420.469970703125px) scale(1.05, 1.05) translate(-250.00498962402344px, -420.469970703125px);transform: translate(250.00498962402344px, 420.469970703125px) scale(1.05, 1.05) translate(-250.00498962402344px, -420.469970703125px);}10%{-webkit-transform: translate(250.00498962402344px, 420.469970703125px) scale(1, 1) translate(-250.00498962402344px, -420.469970703125px);transform: translate(250.00498962402344px, 420.469970703125px) scale(1, 1) translate(-250.00498962402344px, -420.469970703125px);}87.50%{-webkit-transform: translate(250.00498962402344px, 420.469970703125px) scale(1, 1) translate(-250.00498962402344px, -420.469970703125px);transform: translate(250.00498962402344px, 420.469970703125px) scale(1, 1) translate(-250.00498962402344px, -420.469970703125px);}91.25%{-webkit-transform: translate(250.00498962402344px, 420.469970703125px) scale(1.1, 1.1) translate(-250.00498962402344px, -420.469970703125px);transform: translate(250.00498962402344px, 420.469970703125px) scale(1.1, 1.1) translate(-250.00498962402344px, -420.469970703125px);}93.75%{-webkit-transform: translate(250.00498962402344px, 420.469970703125px) scale(0, 0) translate(-250.00498962402344px, -420.469970703125px);transform: translate(250.00498962402344px, 420.469970703125px) scale(0, 0) translate(-250.00498962402344px, -420.469970703125px);}100%{-webkit-transform: translate(250.00498962402344px, 420.469970703125px) scale(0, 0) translate(-250.00498962402344px, -420.469970703125px);transform: translate(250.00498962402344px, 420.469970703125px) scale(0, 0) translate(-250.00498962402344px, -420.469970703125px);}}@keyframes kf_el_UCQB4AgafB_an_RmVIkYRYO{0%{-webkit-transform: translate(250.00498962402344px, 420.469970703125px) scale(0, 0) translate(-250.00498962402344px, -420.469970703125px);transform: translate(250.00498962402344px, 420.469970703125px) scale(0, 0) translate(-250.00498962402344px, -420.469970703125px);}6.25%{-webkit-transform: translate(250.00498962402344px, 420.469970703125px) scale(1.1, 1.1) translate(-250.00498962402344px, -420.469970703125px);transform: translate(250.00498962402344px, 420.469970703125px) scale(1.1, 1.1) translate(-250.00498962402344px, -420.469970703125px);}7.50%{-webkit-transform: translate(250.00498962402344px, 420.469970703125px) scale(0.95, 0.95) translate(-250.00498962402344px, -420.469970703125px);transform: translate(250.00498962402344px, 420.469970703125px) scale(0.95, 0.95) translate(-250.00498962402344px, -420.469970703125px);}8.75%{-webkit-transform: translate(250.00498962402344px, 420.469970703125px) scale(1.05, 1.05) translate(-250.00498962402344px, -420.469970703125px);transform: translate(250.00498962402344px, 420.469970703125px) scale(1.05, 1.05) translate(-250.00498962402344px, -420.469970703125px);}10%{-webkit-transform: translate(250.00498962402344px, 420.469970703125px) scale(1, 1) translate(-250.00498962402344px, -420.469970703125px);transform: translate(250.00498962402344px, 420.469970703125px) scale(1, 1) translate(-250.00498962402344px, -420.469970703125px);}87.50%{-webkit-transform: translate(250.00498962402344px, 420.469970703125px) scale(1, 1) translate(-250.00498962402344px, -420.469970703125px);transform: translate(250.00498962402344px, 420.469970703125px) scale(1, 1) translate(-250.00498962402344px, -420.469970703125px);}91.25%{-webkit-transform: translate(250.00498962402344px, 420.469970703125px) scale(1.1, 1.1) translate(-250.00498962402344px, -420.469970703125px);transform: translate(250.00498962402344px, 420.469970703125px) scale(1.1, 1.1) translate(-250.00498962402344px, -420.469970703125px);}93.75%{-webkit-transform: translate(250.00498962402344px, 420.469970703125px) scale(0, 0) translate(-250.00498962402344px, -420.469970703125px);transform: translate(250.00498962402344px, 420.469970703125px) scale(0, 0) translate(-250.00498962402344px, -420.469970703125px);}100%{-webkit-transform: translate(250.00498962402344px, 420.469970703125px) scale(0, 0) translate(-250.00498962402344px, -420.469970703125px);transform: translate(250.00498962402344px, 420.469970703125px) scale(0, 0) translate(-250.00498962402344px, -420.469970703125px);}}#el_GzGyIWdER *{-webkit-animation-duration: 8s;animation-duration: 8s;-webkit-animation-iteration-count: infinite;animation-iteration-count: infinite;-webkit-animation-timing-function: cubic-bezier(0, 0, 1, 1);animation-timing-function: cubic-bezier(0, 0, 1, 1);}#el_0ej0fK_26B{fill: url(#SVGID_1_);}#el_AjtJV7FGlM{fill: url(#SVGID_2_);}#el_lIpMHfQl-o{fill: url(#SVGID_3_);}#el_CX4QHy_3Vm{fill: #F1F1F1;}#el_9ispY98Xou{fill: #F1F1F1;}#el_6dKfpUS2j4{fill: #F1F1F1;}#el_HEZKi9oegL{fill: #F1F1F1;}#el_l6UkOgx5VY{fill: url(#SVGID_4_);}#el_4n_SKH867x{fill: url(#SVGID_5_);}#el_Vvag1FbtYx{fill: url(#SVGID_6_);}#el_K22y1rRehEm{fill: url(#SVGID_7_);}#el_bWZx-p3z79s{fill: url(#SVGID_8_);}#el_UCQB4AgafB_an_RmVIkYRYO{-webkit-animation-fill-mode: none;animation-fill-mode: none;-webkit-animation-name: kf_el_UCQB4AgafB_an_RmVIkYRYO;animation-name: kf_el_UCQB4AgafB_an_RmVIkYRYO;-webkit-animation-timing-function: cubic-bezier(0, 0, 1, 1);animation-timing-function: cubic-bezier(0, 0, 1, 1);}#el_l6Q3cQ2wXw_an_VcZBZ45S_{-webkit-animation-fill-mode: none;animation-fill-mode: none;-webkit-animation-name: kf_el_l6Q3cQ2wXw_an_VcZBZ45S_;animation-name: kf_el_l6Q3cQ2wXw_an_VcZBZ45S_;-webkit-animation-timing-function: cubic-bezier(0, 0, 1, 1);animation-timing-function: cubic-bezier(0, 0, 1, 1);}#el_l6Q3cQ2wXw_an_fEw9F_lzfU{-webkit-animation-fill-mode: none;animation-fill-mode: none;-webkit-animation-name: kf_el_l6Q3cQ2wXw_an_fEw9F_lzfU;animation-name: kf_el_l6Q3cQ2wXw_an_fEw9F_lzfU;-webkit-animation-timing-function: cubic-bezier(0.42, 0, 0.58, 1);animation-timing-function: cubic-bezier(0.42, 0, 0.58, 1);}#el_l6UkOgx5VY_an_Fc39BKP_i{-webkit-animation-fill-mode: none;animation-fill-mode: none;-webkit-animation-name: kf_el_l6UkOgx5VY_an_Fc39BKP_i;animation-name: kf_el_l6UkOgx5VY_an_Fc39BKP_i;-webkit-animation-timing-function: cubic-bezier(0.42, 0, 0.58, 1);animation-timing-function: cubic-bezier(0.42, 0, 0.58, 1);}#el_4n_SKH867x_an_ft15A6yT8{-webkit-animation-fill-mode: none;animation-fill-mode: none;-webkit-animation-name: kf_el_4n_SKH867x_an_ft15A6yT8;animation-name: kf_el_4n_SKH867x_an_ft15A6yT8;-webkit-animation-timing-function: cubic-bezier(0.42, 0, 0.58, 1);animation-timing-function: cubic-bezier(0.42, 0, 0.58, 1);}#el_9ympzjN6fO_an_ut_ma7rz1{-webkit-animation-fill-mode: none;animation-fill-mode: none;-webkit-animation-name: kf_el_9ympzjN6fO_an_ut_ma7rz1;animation-name: kf_el_9ympzjN6fO_an_ut_ma7rz1;-webkit-animation-timing-function: cubic-bezier(0.42, 0, 0.58, 1);animation-timing-function: cubic-bezier(0.42, 0, 0.58, 1);}#el_bWZx-p3z79s_an_4LcxE5st6{-webkit-animation-fill-mode: none;animation-fill-mode: none;-webkit-animation-name: kf_el_bWZx-p3z79s_an_4LcxE5st6;animation-name: kf_el_bWZx-p3z79s_an_4LcxE5st6;-webkit-animation-timing-function: cubic-bezier(0.42, 0, 0.58, 1);animation-timing-function: cubic-bezier(0.42, 0, 0.58, 1);}</style>

<g id="el_NDpdoQSj2z">
	<g id="el_w2mZ-KxyFW">
		<g id="el_UCQB4AgafB_an_RmVIkYRYO" data-animator-group="true" data-animator-type="2"><g id="el_UCQB4AgafB">
			<linearGradient id="SVGID_1_" gradientUnits="userSpaceOnUse" x1="81.8098" y1="190.0133" x2="418.1904" y2="190.0133">
				<stop offset="5.084014e-03" style="stop-color:#00B8CF"/>
				<stop offset="1" style="stop-color:#00FC96"/>
			</linearGradient>
			<path d="M84.8,173.21c1.65,0,2.99-1.34,2.99-2.99v-36.84c0-3.85,3.13-6.99,6.99-6.99h243.28h36.13h31.04&#10;&#9;&#9;&#9;&#9;c3.85,0,6.99,3.13,6.99,6.99v123.25c0,1.65,1.34,2.99,2.99,2.99c1.65,0,2.99-1.34,2.99-2.99V133.38&#10;&#9;&#9;&#9;&#9;c0-7.15-5.82-12.96-12.96-12.96h-30.18c0,0,0,0,0,0h-16.36c-0.02,0-0.04-0.01-0.07-0.01c-0.01,0-0.02,0.01-0.03,0.01H94.77&#10;&#9;&#9;&#9;&#9;c-7.15,0-12.96,5.82-12.96,12.96v36.84C81.81,171.87,83.15,173.21,84.8,173.21z" id="el_0ej0fK_26B"/>
			<linearGradient id="SVGID_2_" gradientUnits="userSpaceOnUse" x1="81.8091" y1="303.8297" x2="418.1909" y2="303.8297">
				<stop offset="5.084014e-03" style="stop-color:#00B8CF"/>
				<stop offset="1" style="stop-color:#00FC96"/>
			</linearGradient>
			<path d="M418.19,276.67c0-0.03,0-0.06,0-0.09c0-1.65-1.34-2.99-2.99-2.99c-1.65,0-2.99,1.34-2.99,2.99v37.52&#10;&#9;&#9;&#9;&#9;c0,1.1-0.9,2-2,2H89.79c-1.1,0-2-0.9-2-2V190.17c0-1.65-1.34-2.99-2.99-2.99c-1.65,0-2.99,1.34-2.99,2.99v165.08&#10;&#9;&#9;&#9;&#9;c0,7.15,5.82,12.96,12.96,12.96h109.24c0.57,0,1.11,0.24,1.49,0.67c0.38,0.43,0.56,0.99,0.49,1.56l-2.84,24.78&#10;&#9;&#9;&#9;&#9;c-0.12,1.01-0.97,1.77-1.99,1.77h-23.68c-1.65,0-2.99,1.34-2.99,2.99v17.5c0,1.65,1.34,2.99,2.99,2.99h145.02&#10;&#9;&#9;&#9;&#9;c1.65,0,2.99-1.34,2.99-2.99v-17.5c0-1.65-1.34-2.99-2.99-2.99h-23.68c-1.02,0-1.87-0.76-1.99-1.77L294,370.44&#10;&#9;&#9;&#9;&#9;c-0.06-0.57,0.11-1.13,0.49-1.56c0.38-0.43,0.92-0.67,1.49-0.67h109.24c7.15,0,12.96-5.82,12.96-12.96c0-0.35,0-35.77,0-36.06&#10;&#9;&#9;&#9;&#9;c0-0.04,0-0.1,0-0.15V276.67z M317.52,402.97c1.1,0,2,0.9,2,2v7.53c0,1.1-0.9,2-2,2H182.48c-1.1,0-2-0.9-2-2v-7.53&#10;&#9;&#9;&#9;&#9;c0-1.1,0.9-2,2-2H317.52z M209.22,394.77l2.84-24.78c0.12-1.01,0.97-1.77,1.99-1.77h71.89c1.02,0,1.87,0.76,1.99,1.77l2.84,24.78&#10;&#9;&#9;&#9;&#9;c0.07,0.57-0.11,1.13-0.49,1.56c-0.38,0.43-0.92,0.67-1.49,0.67h-77.58c-0.57,0-1.11-0.24-1.49-0.67&#10;&#9;&#9;&#9;&#9;C209.34,395.9,209.16,395.34,209.22,394.77z M412.21,355.25c0,1.86-0.73,3.62-2.05,4.94c-1.32,1.32-3.07,2.05-4.94,2.05H94.77&#10;&#9;&#9;&#9;&#9;c-3.85,0-6.99-3.13-6.99-6.99v-30.98c0-1.1,0.9-2,2-2h320.43c1.1,0,2,0.9,2,2V355.25z" id="el_AjtJV7FGlM"/>
		</g></g>
		<g id="el_l6Q3cQ2wXw_an_VcZBZ45S_" data-animator-group="true" data-animator-type="1"><g id="el_l6Q3cQ2wXw_an_fEw9F_lzfU" data-animator-group="true" data-animator-type="2"><g id="el_l6Q3cQ2wXw">
			<linearGradient id="SVGID_3_" gradientUnits="userSpaceOnUse" x1="127.8213" y1="138.7723" x2="364.3213" y2="138.7723">
				<stop offset="5.084014e-03" style="stop-color:#00B8CF"/>
				<stop offset="1" style="stop-color:#00FC96"/>
			</linearGradient>
			<path d="M346.82,79.52c-9.65,0-17.5,7.85-17.5,17.5c0,3.55,1.07,6.85,2.89,9.62l-39.7,36.4&#10;&#9;&#9;&#9;&#9;c-3.1-2.8-7.2-4.52-11.7-4.52c-5.86,0-11.05,2.91-14.23,7.35l-35.36-20.83c0.69-1.88,1.09-3.9,1.09-6.02&#10;&#9;&#9;&#9;&#9;c0-9.65-7.85-17.5-17.5-17.5s-17.5,7.85-17.5,17.5c0,3.21,0.88,6.21,2.4,8.8l-42.78,39.65c-3.09-2.76-7.16-4.45-11.62-4.45&#10;&#9;&#9;&#9;&#9;c-9.65,0-17.5,7.85-17.5,17.5s7.85,17.5,17.5,17.5s17.5-7.85,17.5-17.5c0-3.39-0.98-6.54-2.66-9.22l42.68-39.55&#10;&#9;&#9;&#9;&#9;c3.13,2.95,7.34,4.78,11.98,4.78c5.74,0,10.84-2.79,14.03-7.08l35.44,20.88c-0.62,1.79-0.97,3.7-0.97,5.7&#10;&#9;&#9;&#9;&#9;c0,9.65,7.85,17.5,17.5,17.5s17.5-7.85,17.5-17.5c0-3.35-0.96-6.47-2.6-9.13l39.82-36.51c3.05,2.58,6.99,4.15,11.28,4.15&#10;&#9;&#9;&#9;&#9;c9.65,0,17.5-7.85,17.5-17.5S356.47,79.52,346.82,79.52z M145.32,193.02c-6.89,0-12.5-5.61-12.5-12.5s5.61-12.5,12.5-12.5&#10;&#9;&#9;&#9;&#9;s12.5,5.61,12.5,12.5S152.21,193.02,145.32,193.02z M214.82,131.52c-6.89,0-12.5-5.61-12.5-12.5s5.61-12.5,12.5-12.5&#10;&#9;&#9;&#9;&#9;s12.5,5.61,12.5,12.5S221.71,131.52,214.82,131.52z M280.82,168.52c-6.89,0-12.5-5.61-12.5-12.5s5.61-12.5,12.5-12.5&#10;&#9;&#9;&#9;&#9;s12.5,5.61,12.5,12.5S287.71,168.52,280.82,168.52z M346.82,109.52c-6.89,0-12.5-5.61-12.5-12.5s5.61-12.5,12.5-12.5&#10;&#9;&#9;&#9;&#9;s12.5,5.61,12.5,12.5S353.71,109.52,346.82,109.52z" id="el_lIpMHfQl-o"/>
			<circle cx="145.32" cy="180.52" r="12.5" id="el_CX4QHy_3Vm"/>
			<circle cx="280.57" cy="155.77" r="12.75" id="el_9ispY98Xou"/>
			<circle cx="214.57" cy="118.77" r="12.75" id="el_6dKfpUS2j4"/>
			<circle cx="346.57" cy="96.77" r="12.75" id="el_HEZKi9oegL"/>
		</g></g></g>
		<linearGradient id="SVGID_4_" gradientUnits="userSpaceOnUse" x1="81.8091" y1="240.245" x2="418.1909" y2="240.245">
			<stop offset="5.084014e-03" style="stop-color:#00B8CF"/>
			<stop offset="1" style="stop-color:#00FC96"/>
		</linearGradient>
		<g id="el_l6UkOgx5VY_an_Fc39BKP_i" data-animator-group="true" data-animator-type="2"><path d="M333.97,212.94c0-1.1,0.9-2,2-2h27.55c1.1,0,2,0.9,2,2v103.58h5.97V166.96c0-1.65-1.34-2.99-2.99-2.99h-37.52&#10;&#9;&#9;&#9;c-1.65,0-2.99,1.34-2.99,2.99v149.57h5.98V212.94z M333.97,171.94c0-1.1,0.9-2,2-2h27.55c1.1,0,2,0.9,2,2v10.66c0,1.1-0.9,2-2,2&#10;&#9;&#9;&#9;h-27.55c-1.1,0-2-0.9-2-2V171.94z M333.97,192.58c0-1.1,0.9-2,2-2h27.55c1.1,0,2,0.9,2,2v10.38c0,1.1-0.9,2-2,2h-27.55&#10;&#9;&#9;&#9;c-1.1,0-2-0.9-2-2V192.58z" id="el_l6UkOgx5VY"/></g>
		<linearGradient id="SVGID_5_" gradientUnits="userSpaceOnUse" x1="81.8091" y1="286.6249" x2="418.1909" y2="286.6249">
			<stop offset="5.084014e-03" style="stop-color:#00B8CF"/>
			<stop offset="1" style="stop-color:#00FC96"/>
		</linearGradient>
		<g id="el_4n_SKH867x_an_ft15A6yT8" data-animator-group="true" data-animator-type="2"><path d="M135.52,305.7c0-1.1,0.9-2,2-2h27.55c1.1,0,2,0.9,2,2v10.82h5.97v-56.81c0-1.65-1.34-2.99-2.99-2.99h-37.52&#10;&#9;&#9;&#9;c-1.65,0-2.99,1.34-2.99,2.99v56.81h5.98V305.7z M135.52,264.7c0-1.1,0.9-2,2-2h27.55c1.1,0,2,0.9,2,2v10.66c0,1.1-0.9,2-2,2&#10;&#9;&#9;&#9;h-27.55c-1.1,0-2-0.9-2-2V264.7z M135.52,285.34c0-1.1,0.9-2,2-2h27.55c1.1,0,2,0.9,2,2v10.38c0,1.1-0.9,2-2,2h-27.55&#10;&#9;&#9;&#9;c-1.1,0-2-0.9-2-2V285.34z" id="el_4n_SKH867x"/></g>
		<g id="el_9ympzjN6fO_an_ut_ma7rz1" data-animator-group="true" data-animator-type="2"><g id="el_9ympzjN6fO">
			<linearGradient id="SVGID_6_" gradientUnits="userSpaceOnUse" x1="81.8091" y1="298.8616" x2="418.1909" y2="298.8616">
				<stop offset="5.084014e-03" style="stop-color:#00B8CF"/>
				<stop offset="1" style="stop-color:#00FC96"/>
			</linearGradient>
			<path d="M201.67,284.19c0-1.65-1.34-2.99-2.99-2.99c-1.65,0-2.99,1.34-2.99,2.99v32.33h5.98V284.19z" id="el_Vvag1FbtYx"/>
			<linearGradient id="SVGID_7_" gradientUnits="userSpaceOnUse" x1="81.8091" y1="254.4338" x2="418.1909" y2="254.4338">
				<stop offset="5.084014e-03" style="stop-color:#00B8CF"/>
				<stop offset="1" style="stop-color:#00FC96"/>
			</linearGradient>
			<path d="M239.19,195.33c0-1.65-1.34-2.99-2.99-2.99h-37.52c-1.65,0-2.99,1.34-2.99,2.99v68.9&#10;&#9;&#9;&#9;&#9;c0,1.65,1.34,2.99,2.99,2.99c1.65,0,2.99-1.34,2.99-2.99v-22.92c0-1.1,0.9-2,2-2h27.55c1.1,0,2,0.9,2,2v75.21h5.98V195.33z&#10;&#9;&#9;&#9;&#9; M201.67,200.32c0-1.1,0.9-2,2-2h27.55c1.1,0,2,0.9,2,2v10.66c0,1.1-0.9,2-2,2h-27.55c-1.1,0-2-0.9-2-2V200.32z M233.21,231.34&#10;&#9;&#9;&#9;&#9;c0,1.1-0.9,2-2,2h-27.55c-1.1,0-2-0.9-2-2v-10.38c0-1.1,0.9-2,2-2h27.55c1.1,0,2,0.9,2,2V231.34z" id="el_K22y1rRehEm"/>
		</g></g>
		<linearGradient id="SVGID_8_" gradientUnits="userSpaceOnUse" x1="81.8091" y1="286.6249" x2="418.1909" y2="286.6249">
			<stop offset="5.084014e-03" style="stop-color:#00B8CF"/>
			<stop offset="1" style="stop-color:#00FC96"/>
		</linearGradient>
		<g id="el_bWZx-p3z79s_an_4LcxE5st6" data-animator-group="true" data-animator-type="2"><path d="M267.82,305.7c0-1.1,0.9-2,2-2h27.55c1.1,0,2,0.9,2,2v10.82h5.97v-56.81c0-1.65-1.34-2.99-2.99-2.99h-37.52&#10;&#9;&#9;&#9;c-1.65,0-2.99,1.34-2.99,2.99v56.81h5.98V305.7z M267.82,264.7c0-1.1,0.9-2,2-2h27.55c1.1,0,2,0.9,2,2v10.66c0,1.1-0.9,2-2,2&#10;&#9;&#9;&#9;h-27.55c-1.1,0-2-0.9-2-2V264.7z M267.82,285.34c0-1.1,0.9-2,2-2h27.55c1.1,0,2,0.9,2,2v10.38c0,1.1-0.9,2-2,2h-27.55&#10;&#9;&#9;&#9;c-1.1,0-2-0.9-2-2V285.34z" id="el_bWZx-p3z79s"/></g>
	</g>
</g>
</svg>