<svg xmlns="http://www.w3.org/2000/svg" viewBox="0 0 123.56 123.56"><defs><style>.cls-1{fill:gray;}</style></defs><title>iconRecurso 1</title><g id="Capa_2" data-name="Capa 2"><g id="Capa_1-2" data-name="Capa 1"><path class="cls-1" d="M76.26,83.5a2.42,2.42,0,1,0,2.41,2.41,2.41,2.41,0,0,0-2.41-2.41Z"/><path class="cls-1" d="M111.49,0H12.07A12.08,12.08,0,0,0,0,12.07V85.91A12.08,12.08,0,0,0,12.07,98H49.71v11.1H47.3a12.09,12.09,0,0,0-12.07,12.07,2.41,2.41,0,0,0,2.42,2.41H85.91a2.41,2.41,0,0,0,2.42-2.41,12.08,12.08,0,0,0-12.07-12.07H73.85V98h37.64a12.08,12.08,0,0,0,12.07-12.07V12.07A12.08,12.08,0,0,0,111.49,0ZM12.07,4.83h99.42a7.24,7.24,0,0,1,7.24,7.24V73.85h-11.1V18.34a2.41,2.41,0,0,0-2.41-2.41H85.91a2.41,2.41,0,0,0-2.41,2.41V73.85H71.42c0-2.5-.09-5-.19-7.35a156.7,156.7,0,0,0-1.89-19.31,12.07,12.07,0,0,0,3.3-15.74L64.27,17a2.41,2.41,0,0,0-4.18,0L51.72,31.45a12.06,12.06,0,0,0,2.66,15.23,153.73,153.73,0,0,0-2,19.82c-.1,2.41-.17,4.87-.2,7.35H40.06V37.65a2.34,2.34,0,0,0-.24-1s0,0,0,0L30.15,17.26a2.41,2.41,0,0,0-4.31,0L16.18,36.57s0,0,0,0a2.37,2.37,0,0,0-.24,1v36.2H4.83V12.07a7.24,7.24,0,0,1,7.24-7.24Zm76.26,69V20.75h14.48v4.83h-2.42a2.42,2.42,0,0,0,0,4.83h2.42v7.24h-2.42a2.41,2.41,0,1,0,0,4.82h2.42v7.24h-2.42a2.42,2.42,0,0,0,0,4.83h2.42v9.65h-2.42a2.42,2.42,0,0,0,0,4.83h2.42v4.83ZM62.18,49.55a11.91,11.91,0,0,0,2.6-.29c.45,2.87,1.11,8,1.5,14.93h-9a149.18,149.18,0,0,1,1.57-15.1,12.25,12.25,0,0,0,3.31.46Zm0-4.83A7.25,7.25,0,0,1,55.9,33.87L62.18,23l6.27,10.87a7.24,7.24,0,0,1-6.27,10.85ZM57.07,69h9.42c.05,1.58.09,3.2.1,4.83H57c0-1.62.05-3.23.1-4.83ZM30.41,73.85V40.06h4.82V73.85Zm-9.66,0V40.06h4.83V73.85Zm1.49-38.62L28,23.74l5.75,11.49Zm60.85,83.5H40.47a7.42,7.42,0,0,1,1.71-2.7,7.19,7.19,0,0,1,5.12-2.12h29a7.25,7.25,0,0,1,6.83,4.82ZM69,109.08H54.54V98H69Zm42.47-15.93H12.07a7.24,7.24,0,0,1-7.24-7.24V78.67h113.9v7.24a7.24,7.24,0,0,1-7.24,7.24Z"/><path class="cls-1" d="M66.61,83.5H52.13a2.42,2.42,0,1,0,0,4.83H66.61a2.42,2.42,0,0,0,0-4.83Z"/></g></g></svg>