<svg xmlns="http://www.w3.org/2000/svg" viewBox="0 0 144.37 144.49"><defs><style>.cls-1{fill:gray;}</style></defs><title>iconRecurso 2</title><g id="Capa_2" data-name="Capa 2"><g id="Capa_1-2" data-name="Capa 1"><path class="cls-1" d="M136,83.83H130.4a9.31,9.31,0,0,0-7-9V67.53a7,7,0,0,0-7-7h-16.3a2.33,2.33,0,0,1,0-4.66h37.25a7,7,0,1,0,0-14H116.19a11.66,11.66,0,0,0-11.41-9.31H93.14V26.16L86.59,24.4c-.26-.7-.55-1.39-.87-2.08l3.39-5.89L76.71,4,70.82,7.42c-.69-.32-1.39-.61-2.08-.87L67,0H49.44L47.68,6.55c-.69.27-1.38.55-2.07.88L39.72,4,27.31,16.43l3.4,5.89c-.32.69-.61,1.39-.87,2.08l-6.56,1.76V32.6H11.64A11.65,11.65,0,0,0,0,44.24v60.54a11.66,11.66,0,0,0,11.64,11.65H34.93v9.31H25.61v4.66h65.2v-4.66H81.5v-9.31H98a32.93,32.93,0,0,0,22.34,27.82l.74.24.74-.24A32.94,32.94,0,0,0,144.37,113V103a26,26,0,0,0-7.67-18.51Zm-2,4.65a21.4,21.4,0,0,1,5.63,14H128.07a7,7,0,0,0-4.66-6.55V88.48Zm4.34,33a19.64,19.64,0,0,0-4.13-.42,17.77,17.77,0,0,0-9.65,2.61,14.45,14.45,0,0,1-14.84,0,18.73,18.73,0,0,0-6-2.3,28.13,28.13,0,0,1-1.29-8.43v-5.85H114.1a7,7,0,1,0,14,0h11.64V113a28.5,28.5,0,0,1-1.31,8.54Zm-19.65-33V95.9a7,7,0,0,0-4.65,6.55H102.48a21.39,21.39,0,0,1,5.62-14Zm4.66,14v4.66a2.33,2.33,0,0,1-4.66,0v-4.66a2.33,2.33,0,0,1,4.66,0Zm2.33-18.62h-9.31a4.66,4.66,0,1,1,9.31,0Zm-97.8-54.1,5.52-1.48.39-1.2a25,25,0,0,1,1.57-3.76L36,22.16l-2.86-5,7.35-7.35,5,2.86,1.12-.58a27.29,27.29,0,0,1,3.76-1.57l1.2-.38L53,4.66h10.4l1.48,5.51,1.21.39a26,26,0,0,1,3.75,1.57l1.13.58,5-2.87,7.35,7.36-2.86,5L81,23.29A27.18,27.18,0,0,1,82.58,27L83,28.25l5.51,1.48v10.4L83,41.61l-.39,1.2A25,25,0,0,1,81,46.57l-.58,1.12,2.86,5L75.94,60l-5-2.87-1.13.58a24.5,24.5,0,0,1-3.75,1.57l-1.21.39L63.41,65.2H53l-1.47-5.52-1.21-.39a24.5,24.5,0,0,1-3.75-1.57l-1.13-.57-5,2.86-7.36-7.35,2.87-5-.58-1.12a25,25,0,0,1-1.57-3.76l-.39-1.2-5.52-1.48Zm-16.3,7.53H23.28V43.7l6.56,1.76c.26.69.55,1.39.87,2.07l-3.4,5.89L39.72,65.83l5.89-3.4c.69.32,1.38.61,2.08.87l1.75,6.56H67l1.76-6.56c.7-.26,1.39-.55,2.08-.87l5.89,3.4,12.4-12.41-3.39-5.89c.32-.69.61-1.38.87-2.08l6.55-1.75V37.26h11.64a7,7,0,0,1,6.56,4.65H100.13v4.66h37.25a2.33,2.33,0,1,1,0,4.66H100.13a7,7,0,1,0,0,14h16.3a2.32,2.32,0,0,1,2.32,2.33v7.31a9.31,9.31,0,0,0-7,9h-5.62l-.69.68a26.26,26.26,0,0,0-5.73,8.63H4.66V44.24a7,7,0,0,1,7-7Zm-7,67.52v-7H98.32A26.63,26.63,0,0,0,97.8,103v8.75H11.64a7,7,0,0,1-7-7Zm72.18,21H39.58v-9.31H76.84Zm44.24,13.83a28.21,28.21,0,0,1-14.84-12.48l1.3.69a19.1,19.1,0,0,0,19.31,0,13.31,13.31,0,0,1,7.42-2,15.09,15.09,0,0,1,2.31.17,28.28,28.28,0,0,1-15.5,13.66Z"/><path class="cls-1" d="M58.21,55.88a21,21,0,1,0-21-21,21,21,0,0,0,21,21Zm0-37.25a16.3,16.3,0,1,1-16.3,16.3,16.32,16.32,0,0,1,16.3-16.3Z"/><path class="cls-1" d="M58.21,46.57A11.65,11.65,0,1,0,46.57,34.93,11.66,11.66,0,0,0,58.21,46.57Zm0-18.63a7,7,0,1,1-7,7,7,7,0,0,1,7-7Z"/><rect class="cls-1" x="18.63" y="102.45" width="4.66" height="4.66"/><rect class="cls-1" x="27.94" y="102.45" width="4.66" height="4.66"/><rect class="cls-1" x="9.31" y="102.45" width="4.66" height="4.66"/></g></g></svg>