<svg version="1.1" id="el_DcmvZitPJ" xmlns="http://www.w3.org/2000/svg" xmlns:xlink="http://www.w3.org/1999/xlink" x="0px" y="0px" viewBox="0 0 500 500" style="enable-background:new 0 0 500 500;" xml:space="preserve"><style>@-webkit-keyframes kf_el_k6bIuqU2uX_an_sMms0tMbp{20%{-webkit-transform: translate(205.67001342773438px, 194.92999267578125px) scale(0, 1) translate(-205.67001342773438px, -194.92999267578125px);transform: translate(205.67001342773438px, 194.92999267578125px) scale(0, 1) translate(-205.67001342773438px, -194.92999267578125px);}22.50%{-webkit-transform: translate(205.67001342773438px, 194.92999267578125px) scale(1, 1) translate(-205.67001342773438px, -194.92999267578125px);transform: translate(205.67001342773438px, 194.92999267578125px) scale(1, 1) translate(-205.67001342773438px, -194.92999267578125px);}81.25%{-webkit-transform: translate(205.67001342773438px, 194.92999267578125px) scale(1, 1) translate(-205.67001342773438px, -194.92999267578125px);transform: translate(205.67001342773438px, 194.92999267578125px) scale(1, 1) translate(-205.67001342773438px, -194.92999267578125px);}87.50%{-webkit-transform: translate(205.67001342773438px, 194.92999267578125px) scale(0, 1) translate(-205.67001342773438px, -194.92999267578125px);transform: translate(205.67001342773438px, 194.92999267578125px) scale(0, 1) translate(-205.67001342773438px, -194.92999267578125px);}100%{-webkit-transform: translate(205.67001342773438px, 194.92999267578125px) scale(0, 1) translate(-205.67001342773438px, -194.92999267578125px);transform: translate(205.67001342773438px, 194.92999267578125px) scale(0, 1) translate(-205.67001342773438px, -194.92999267578125px);}0%{-webkit-transform: translate(205.67001342773438px, 194.92999267578125px) scale(0, 1) translate(-205.67001342773438px, -194.92999267578125px);transform: translate(205.67001342773438px, 194.92999267578125px) scale(0, 1) translate(-205.67001342773438px, -194.92999267578125px);}}@keyframes kf_el_k6bIuqU2uX_an_sMms0tMbp{20%{-webkit-transform: translate(205.67001342773438px, 194.92999267578125px) scale(0, 1) translate(-205.67001342773438px, -194.92999267578125px);transform: translate(205.67001342773438px, 194.92999267578125px) scale(0, 1) translate(-205.67001342773438px, -194.92999267578125px);}22.50%{-webkit-transform: translate(205.67001342773438px, 194.92999267578125px) scale(1, 1) translate(-205.67001342773438px, -194.92999267578125px);transform: translate(205.67001342773438px, 194.92999267578125px) scale(1, 1) translate(-205.67001342773438px, -194.92999267578125px);}81.25%{-webkit-transform: translate(205.67001342773438px, 194.92999267578125px) scale(1, 1) translate(-205.67001342773438px, -194.92999267578125px);transform: translate(205.67001342773438px, 194.92999267578125px) scale(1, 1) translate(-205.67001342773438px, -194.92999267578125px);}87.50%{-webkit-transform: translate(205.67001342773438px, 194.92999267578125px) scale(0, 1) translate(-205.67001342773438px, -194.92999267578125px);transform: translate(205.67001342773438px, 194.92999267578125px) scale(0, 1) translate(-205.67001342773438px, -194.92999267578125px);}100%{-webkit-transform: translate(205.67001342773438px, 194.92999267578125px) scale(0, 1) translate(-205.67001342773438px, -194.92999267578125px);transform: translate(205.67001342773438px, 194.92999267578125px) scale(0, 1) translate(-205.67001342773438px, -194.92999267578125px);}0%{-webkit-transform: translate(205.67001342773438px, 194.92999267578125px) scale(0, 1) translate(-205.67001342773438px, -194.92999267578125px);transform: translate(205.67001342773438px, 194.92999267578125px) scale(0, 1) translate(-205.67001342773438px, -194.92999267578125px);}}@-webkit-keyframes kf_el_osCaO0Biml_an_M4gyUx77v{0.42%{-webkit-transform: translate(205.67001342773438px, 177.27000427246094px) scale(0, 1) translate(-205.67001342773438px, -177.27000427246094px);transform: translate(205.67001342773438px, 177.27000427246094px) scale(0, 1) translate(-205.67001342773438px, -177.27000427246094px);}17.50%{-webkit-transform: translate(205.67001342773438px, 177.27000427246094px) scale(0, 1) translate(-205.67001342773438px, -177.27000427246094px);transform: translate(205.67001342773438px, 177.27000427246094px) scale(0, 1) translate(-205.67001342773438px, -177.27000427246094px);}20%{-webkit-transform: translate(205.67001342773438px, 177.27000427246094px) scale(1, 1) translate(-205.67001342773438px, -177.27000427246094px);transform: translate(205.67001342773438px, 177.27000427246094px) scale(1, 1) translate(-205.67001342773438px, -177.27000427246094px);}81.25%{-webkit-transform: translate(205.67001342773438px, 177.27000427246094px) scale(1, 1) translate(-205.67001342773438px, -177.27000427246094px);transform: translate(205.67001342773438px, 177.27000427246094px) scale(1, 1) translate(-205.67001342773438px, -177.27000427246094px);}87.50%{-webkit-transform: translate(205.67001342773438px, 177.27000427246094px) scale(0, 1) translate(-205.67001342773438px, -177.27000427246094px);transform: translate(205.67001342773438px, 177.27000427246094px) scale(0, 1) translate(-205.67001342773438px, -177.27000427246094px);}100%{-webkit-transform: translate(205.67001342773438px, 177.27000427246094px) scale(0, 1) translate(-205.67001342773438px, -177.27000427246094px);transform: translate(205.67001342773438px, 177.27000427246094px) scale(0, 1) translate(-205.67001342773438px, -177.27000427246094px);}0%{-webkit-transform: translate(205.67001342773438px, 177.27000427246094px) scale(0, 1) translate(-205.67001342773438px, -177.27000427246094px);transform: translate(205.67001342773438px, 177.27000427246094px) scale(0, 1) translate(-205.67001342773438px, -177.27000427246094px);}}@keyframes kf_el_osCaO0Biml_an_M4gyUx77v{0.42%{-webkit-transform: translate(205.67001342773438px, 177.27000427246094px) scale(0, 1) translate(-205.67001342773438px, -177.27000427246094px);transform: translate(205.67001342773438px, 177.27000427246094px) scale(0, 1) translate(-205.67001342773438px, -177.27000427246094px);}17.50%{-webkit-transform: translate(205.67001342773438px, 177.27000427246094px) scale(0, 1) translate(-205.67001342773438px, -177.27000427246094px);transform: translate(205.67001342773438px, 177.27000427246094px) scale(0, 1) translate(-205.67001342773438px, -177.27000427246094px);}20%{-webkit-transform: translate(205.67001342773438px, 177.27000427246094px) scale(1, 1) translate(-205.67001342773438px, -177.27000427246094px);transform: translate(205.67001342773438px, 177.27000427246094px) scale(1, 1) translate(-205.67001342773438px, -177.27000427246094px);}81.25%{-webkit-transform: translate(205.67001342773438px, 177.27000427246094px) scale(1, 1) translate(-205.67001342773438px, -177.27000427246094px);transform: translate(205.67001342773438px, 177.27000427246094px) scale(1, 1) translate(-205.67001342773438px, -177.27000427246094px);}87.50%{-webkit-transform: translate(205.67001342773438px, 177.27000427246094px) scale(0, 1) translate(-205.67001342773438px, -177.27000427246094px);transform: translate(205.67001342773438px, 177.27000427246094px) scale(0, 1) translate(-205.67001342773438px, -177.27000427246094px);}100%{-webkit-transform: translate(205.67001342773438px, 177.27000427246094px) scale(0, 1) translate(-205.67001342773438px, -177.27000427246094px);transform: translate(205.67001342773438px, 177.27000427246094px) scale(0, 1) translate(-205.67001342773438px, -177.27000427246094px);}0%{-webkit-transform: translate(205.67001342773438px, 177.27000427246094px) scale(0, 1) translate(-205.67001342773438px, -177.27000427246094px);transform: translate(205.67001342773438px, 177.27000427246094px) scale(0, 1) translate(-205.67001342773438px, -177.27000427246094px);}}@-webkit-keyframes kf_el_wHV3ITDYvn_an_lqNUUCiSw{15%{-webkit-transform: translate(205.67001342773438px, 159.62001037597656px) scale(0, 1) translate(-205.67001342773438px, -159.62001037597656px);transform: translate(205.67001342773438px, 159.62001037597656px) scale(0, 1) translate(-205.67001342773438px, -159.62001037597656px);}17.50%{-webkit-transform: translate(205.67001342773438px, 159.62001037597656px) scale(1, 1) translate(-205.67001342773438px, -159.62001037597656px);transform: translate(205.67001342773438px, 159.62001037597656px) scale(1, 1) translate(-205.67001342773438px, -159.62001037597656px);}81.25%{-webkit-transform: translate(205.67001342773438px, 159.62001037597656px) scale(1, 1) translate(-205.67001342773438px, -159.62001037597656px);transform: translate(205.67001342773438px, 159.62001037597656px) scale(1, 1) translate(-205.67001342773438px, -159.62001037597656px);}87.50%{-webkit-transform: translate(205.67001342773438px, 159.62001037597656px) scale(0, 1) translate(-205.67001342773438px, -159.62001037597656px);transform: translate(205.67001342773438px, 159.62001037597656px) scale(0, 1) translate(-205.67001342773438px, -159.62001037597656px);}100%{-webkit-transform: translate(205.67001342773438px, 159.62001037597656px) scale(0, 1) translate(-205.67001342773438px, -159.62001037597656px);transform: translate(205.67001342773438px, 159.62001037597656px) scale(0, 1) translate(-205.67001342773438px, -159.62001037597656px);}0%{-webkit-transform: translate(205.67001342773438px, 159.62001037597656px) scale(0, 1) translate(-205.67001342773438px, -159.62001037597656px);transform: translate(205.67001342773438px, 159.62001037597656px) scale(0, 1) translate(-205.67001342773438px, -159.62001037597656px);}}@keyframes kf_el_wHV3ITDYvn_an_lqNUUCiSw{15%{-webkit-transform: translate(205.67001342773438px, 159.62001037597656px) scale(0, 1) translate(-205.67001342773438px, -159.62001037597656px);transform: translate(205.67001342773438px, 159.62001037597656px) scale(0, 1) translate(-205.67001342773438px, -159.62001037597656px);}17.50%{-webkit-transform: translate(205.67001342773438px, 159.62001037597656px) scale(1, 1) translate(-205.67001342773438px, -159.62001037597656px);transform: translate(205.67001342773438px, 159.62001037597656px) scale(1, 1) translate(-205.67001342773438px, -159.62001037597656px);}81.25%{-webkit-transform: translate(205.67001342773438px, 159.62001037597656px) scale(1, 1) translate(-205.67001342773438px, -159.62001037597656px);transform: translate(205.67001342773438px, 159.62001037597656px) scale(1, 1) translate(-205.67001342773438px, -159.62001037597656px);}87.50%{-webkit-transform: translate(205.67001342773438px, 159.62001037597656px) scale(0, 1) translate(-205.67001342773438px, -159.62001037597656px);transform: translate(205.67001342773438px, 159.62001037597656px) scale(0, 1) translate(-205.67001342773438px, -159.62001037597656px);}100%{-webkit-transform: translate(205.67001342773438px, 159.62001037597656px) scale(0, 1) translate(-205.67001342773438px, -159.62001037597656px);transform: translate(205.67001342773438px, 159.62001037597656px) scale(0, 1) translate(-205.67001342773438px, -159.62001037597656px);}0%{-webkit-transform: translate(205.67001342773438px, 159.62001037597656px) scale(0, 1) translate(-205.67001342773438px, -159.62001037597656px);transform: translate(205.67001342773438px, 159.62001037597656px) scale(0, 1) translate(-205.67001342773438px, -159.62001037597656px);}}@-webkit-keyframes kf_el_pKUtxu53rX_an_mI7ZvxSM9{0.42%{-webkit-transform: translate(205.67001342773438px, 141.97000122070312px) scale(0, 1) translate(-205.67001342773438px, -141.97000122070312px);transform: translate(205.67001342773438px, 141.97000122070312px) scale(0, 1) translate(-205.67001342773438px, -141.97000122070312px);}12.50%{-webkit-transform: translate(205.67001342773438px, 141.97000122070312px) scale(0, 1) translate(-205.67001342773438px, -141.97000122070312px);transform: translate(205.67001342773438px, 141.97000122070312px) scale(0, 1) translate(-205.67001342773438px, -141.97000122070312px);}15%{-webkit-transform: translate(205.67001342773438px, 141.97000122070312px) scale(1, 1) translate(-205.67001342773438px, -141.97000122070312px);transform: translate(205.67001342773438px, 141.97000122070312px) scale(1, 1) translate(-205.67001342773438px, -141.97000122070312px);}80.83%{-webkit-transform: translate(205.67001342773438px, 141.97000122070312px) scale(1, 1) translate(-205.67001342773438px, -141.97000122070312px);transform: translate(205.67001342773438px, 141.97000122070312px) scale(1, 1) translate(-205.67001342773438px, -141.97000122070312px);}87.50%{-webkit-transform: translate(205.67001342773438px, 141.97000122070312px) scale(0, 1) translate(-205.67001342773438px, -141.97000122070312px);transform: translate(205.67001342773438px, 141.97000122070312px) scale(0, 1) translate(-205.67001342773438px, -141.97000122070312px);}100%{-webkit-transform: translate(205.67001342773438px, 141.97000122070312px) scale(0, 1) translate(-205.67001342773438px, -141.97000122070312px);transform: translate(205.67001342773438px, 141.97000122070312px) scale(0, 1) translate(-205.67001342773438px, -141.97000122070312px);}0%{-webkit-transform: translate(205.67001342773438px, 141.97000122070312px) scale(0, 1) translate(-205.67001342773438px, -141.97000122070312px);transform: translate(205.67001342773438px, 141.97000122070312px) scale(0, 1) translate(-205.67001342773438px, -141.97000122070312px);}}@keyframes kf_el_pKUtxu53rX_an_mI7ZvxSM9{0.42%{-webkit-transform: translate(205.67001342773438px, 141.97000122070312px) scale(0, 1) translate(-205.67001342773438px, -141.97000122070312px);transform: translate(205.67001342773438px, 141.97000122070312px) scale(0, 1) translate(-205.67001342773438px, -141.97000122070312px);}12.50%{-webkit-transform: translate(205.67001342773438px, 141.97000122070312px) scale(0, 1) translate(-205.67001342773438px, -141.97000122070312px);transform: translate(205.67001342773438px, 141.97000122070312px) scale(0, 1) translate(-205.67001342773438px, -141.97000122070312px);}15%{-webkit-transform: translate(205.67001342773438px, 141.97000122070312px) scale(1, 1) translate(-205.67001342773438px, -141.97000122070312px);transform: translate(205.67001342773438px, 141.97000122070312px) scale(1, 1) translate(-205.67001342773438px, -141.97000122070312px);}80.83%{-webkit-transform: translate(205.67001342773438px, 141.97000122070312px) scale(1, 1) translate(-205.67001342773438px, -141.97000122070312px);transform: translate(205.67001342773438px, 141.97000122070312px) scale(1, 1) translate(-205.67001342773438px, -141.97000122070312px);}87.50%{-webkit-transform: translate(205.67001342773438px, 141.97000122070312px) scale(0, 1) translate(-205.67001342773438px, -141.97000122070312px);transform: translate(205.67001342773438px, 141.97000122070312px) scale(0, 1) translate(-205.67001342773438px, -141.97000122070312px);}100%{-webkit-transform: translate(205.67001342773438px, 141.97000122070312px) scale(0, 1) translate(-205.67001342773438px, -141.97000122070312px);transform: translate(205.67001342773438px, 141.97000122070312px) scale(0, 1) translate(-205.67001342773438px, -141.97000122070312px);}0%{-webkit-transform: translate(205.67001342773438px, 141.97000122070312px) scale(0, 1) translate(-205.67001342773438px, -141.97000122070312px);transform: translate(205.67001342773438px, 141.97000122070312px) scale(0, 1) translate(-205.67001342773438px, -141.97000122070312px);}}@-webkit-keyframes kf_el_43uTKZlGTX_an_ei2JjyqQq{10%{-webkit-transform: translate(248.12998962402344px, 170.94500732421875px) scale(0, 1) translate(-248.12998962402344px, -170.94500732421875px);transform: translate(248.12998962402344px, 170.94500732421875px) scale(0, 1) translate(-248.12998962402344px, -170.94500732421875px);}12.50%{-webkit-transform: translate(248.12998962402344px, 170.94500732421875px) scale(1, 1) translate(-248.12998962402344px, -170.94500732421875px);transform: translate(248.12998962402344px, 170.94500732421875px) scale(1, 1) translate(-248.12998962402344px, -170.94500732421875px);}87.50%{-webkit-transform: translate(248.12998962402344px, 170.94500732421875px) scale(1, 1) translate(-248.12998962402344px, -170.94500732421875px);transform: translate(248.12998962402344px, 170.94500732421875px) scale(1, 1) translate(-248.12998962402344px, -170.94500732421875px);}90.83%{-webkit-transform: translate(248.12998962402344px, 170.94500732421875px) scale(1.1, 1.1) translate(-248.12998962402344px, -170.94500732421875px);transform: translate(248.12998962402344px, 170.94500732421875px) scale(1.1, 1.1) translate(-248.12998962402344px, -170.94500732421875px);}93.75%{-webkit-transform: translate(248.12998962402344px, 170.94500732421875px) scale(0, 0) translate(-248.12998962402344px, -170.94500732421875px);transform: translate(248.12998962402344px, 170.94500732421875px) scale(0, 0) translate(-248.12998962402344px, -170.94500732421875px);}0%{-webkit-transform: translate(248.12998962402344px, 170.94500732421875px) scale(0, 1) translate(-248.12998962402344px, -170.94500732421875px);transform: translate(248.12998962402344px, 170.94500732421875px) scale(0, 1) translate(-248.12998962402344px, -170.94500732421875px);}100%{-webkit-transform: translate(248.12998962402344px, 170.94500732421875px) scale(0, 0) translate(-248.12998962402344px, -170.94500732421875px);transform: translate(248.12998962402344px, 170.94500732421875px) scale(0, 0) translate(-248.12998962402344px, -170.94500732421875px);}}@keyframes kf_el_43uTKZlGTX_an_ei2JjyqQq{10%{-webkit-transform: translate(248.12998962402344px, 170.94500732421875px) scale(0, 1) translate(-248.12998962402344px, -170.94500732421875px);transform: translate(248.12998962402344px, 170.94500732421875px) scale(0, 1) translate(-248.12998962402344px, -170.94500732421875px);}12.50%{-webkit-transform: translate(248.12998962402344px, 170.94500732421875px) scale(1, 1) translate(-248.12998962402344px, -170.94500732421875px);transform: translate(248.12998962402344px, 170.94500732421875px) scale(1, 1) translate(-248.12998962402344px, -170.94500732421875px);}87.50%{-webkit-transform: translate(248.12998962402344px, 170.94500732421875px) scale(1, 1) translate(-248.12998962402344px, -170.94500732421875px);transform: translate(248.12998962402344px, 170.94500732421875px) scale(1, 1) translate(-248.12998962402344px, -170.94500732421875px);}90.83%{-webkit-transform: translate(248.12998962402344px, 170.94500732421875px) scale(1.1, 1.1) translate(-248.12998962402344px, -170.94500732421875px);transform: translate(248.12998962402344px, 170.94500732421875px) scale(1.1, 1.1) translate(-248.12998962402344px, -170.94500732421875px);}93.75%{-webkit-transform: translate(248.12998962402344px, 170.94500732421875px) scale(0, 0) translate(-248.12998962402344px, -170.94500732421875px);transform: translate(248.12998962402344px, 170.94500732421875px) scale(0, 0) translate(-248.12998962402344px, -170.94500732421875px);}0%{-webkit-transform: translate(248.12998962402344px, 170.94500732421875px) scale(0, 1) translate(-248.12998962402344px, -170.94500732421875px);transform: translate(248.12998962402344px, 170.94500732421875px) scale(0, 1) translate(-248.12998962402344px, -170.94500732421875px);}100%{-webkit-transform: translate(248.12998962402344px, 170.94500732421875px) scale(0, 0) translate(-248.12998962402344px, -170.94500732421875px);transform: translate(248.12998962402344px, 170.94500732421875px) scale(0, 0) translate(-248.12998962402344px, -170.94500732421875px);}}@-webkit-keyframes kf_el_KPzzAx1br__an_BezziXspD{10%{-webkit-transform: translate(249.10997009277344px, 197.8499984741211px) scale(0, 1) translate(-249.10997009277344px, -197.8499984741211px);transform: translate(249.10997009277344px, 197.8499984741211px) scale(0, 1) translate(-249.10997009277344px, -197.8499984741211px);}12.50%{-webkit-transform: translate(249.10997009277344px, 197.8499984741211px) scale(1, 1) translate(-249.10997009277344px, -197.8499984741211px);transform: translate(249.10997009277344px, 197.8499984741211px) scale(1, 1) translate(-249.10997009277344px, -197.8499984741211px);}87.50%{-webkit-transform: translate(249.10997009277344px, 197.8499984741211px) scale(1, 1) translate(-249.10997009277344px, -197.8499984741211px);transform: translate(249.10997009277344px, 197.8499984741211px) scale(1, 1) translate(-249.10997009277344px, -197.8499984741211px);}90.83%{-webkit-transform: translate(249.10997009277344px, 197.8499984741211px) scale(1.1, 1.1) translate(-249.10997009277344px, -197.8499984741211px);transform: translate(249.10997009277344px, 197.8499984741211px) scale(1.1, 1.1) translate(-249.10997009277344px, -197.8499984741211px);}93.75%{-webkit-transform: translate(249.10997009277344px, 197.8499984741211px) scale(0, 0) translate(-249.10997009277344px, -197.8499984741211px);transform: translate(249.10997009277344px, 197.8499984741211px) scale(0, 0) translate(-249.10997009277344px, -197.8499984741211px);}0%{-webkit-transform: translate(249.10997009277344px, 197.8499984741211px) scale(0, 1) translate(-249.10997009277344px, -197.8499984741211px);transform: translate(249.10997009277344px, 197.8499984741211px) scale(0, 1) translate(-249.10997009277344px, -197.8499984741211px);}100%{-webkit-transform: translate(249.10997009277344px, 197.8499984741211px) scale(0, 0) translate(-249.10997009277344px, -197.8499984741211px);transform: translate(249.10997009277344px, 197.8499984741211px) scale(0, 0) translate(-249.10997009277344px, -197.8499984741211px);}}@keyframes kf_el_KPzzAx1br__an_BezziXspD{10%{-webkit-transform: translate(249.10997009277344px, 197.8499984741211px) scale(0, 1) translate(-249.10997009277344px, -197.8499984741211px);transform: translate(249.10997009277344px, 197.8499984741211px) scale(0, 1) translate(-249.10997009277344px, -197.8499984741211px);}12.50%{-webkit-transform: translate(249.10997009277344px, 197.8499984741211px) scale(1, 1) translate(-249.10997009277344px, -197.8499984741211px);transform: translate(249.10997009277344px, 197.8499984741211px) scale(1, 1) translate(-249.10997009277344px, -197.8499984741211px);}87.50%{-webkit-transform: translate(249.10997009277344px, 197.8499984741211px) scale(1, 1) translate(-249.10997009277344px, -197.8499984741211px);transform: translate(249.10997009277344px, 197.8499984741211px) scale(1, 1) translate(-249.10997009277344px, -197.8499984741211px);}90.83%{-webkit-transform: translate(249.10997009277344px, 197.8499984741211px) scale(1.1, 1.1) translate(-249.10997009277344px, -197.8499984741211px);transform: translate(249.10997009277344px, 197.8499984741211px) scale(1.1, 1.1) translate(-249.10997009277344px, -197.8499984741211px);}93.75%{-webkit-transform: translate(249.10997009277344px, 197.8499984741211px) scale(0, 0) translate(-249.10997009277344px, -197.8499984741211px);transform: translate(249.10997009277344px, 197.8499984741211px) scale(0, 0) translate(-249.10997009277344px, -197.8499984741211px);}0%{-webkit-transform: translate(249.10997009277344px, 197.8499984741211px) scale(0, 1) translate(-249.10997009277344px, -197.8499984741211px);transform: translate(249.10997009277344px, 197.8499984741211px) scale(0, 1) translate(-249.10997009277344px, -197.8499984741211px);}100%{-webkit-transform: translate(249.10997009277344px, 197.8499984741211px) scale(0, 0) translate(-249.10997009277344px, -197.8499984741211px);transform: translate(249.10997009277344px, 197.8499984741211px) scale(0, 0) translate(-249.10997009277344px, -197.8499984741211px);}}@-webkit-keyframes kf_el_L9SeOQ3zoI_an_Rerz8lgxT{0%{-webkit-transform: translate(249.99500274658203px, 419.47000885009766px) scale(0, 0) translate(-249.99500274658203px, -419.47000885009766px);transform: translate(249.99500274658203px, 419.47000885009766px) scale(0, 0) translate(-249.99500274658203px, -419.47000885009766px);}6.25%{-webkit-transform: translate(249.99500274658203px, 419.47000885009766px) scale(1.15, 1.15) translate(-249.99500274658203px, -419.47000885009766px);transform: translate(249.99500274658203px, 419.47000885009766px) scale(1.15, 1.15) translate(-249.99500274658203px, -419.47000885009766px);}7.50%{-webkit-transform: translate(249.99500274658203px, 419.47000885009766px) scale(0.95, 0.95) translate(-249.99500274658203px, -419.47000885009766px);transform: translate(249.99500274658203px, 419.47000885009766px) scale(0.95, 0.95) translate(-249.99500274658203px, -419.47000885009766px);}8.75%{-webkit-transform: translate(249.99500274658203px, 419.47000885009766px) scale(1.05, 1.05) translate(-249.99500274658203px, -419.47000885009766px);transform: translate(249.99500274658203px, 419.47000885009766px) scale(1.05, 1.05) translate(-249.99500274658203px, -419.47000885009766px);}10%{-webkit-transform: translate(249.99500274658203px, 419.47000885009766px) scale(1, 1) translate(-249.99500274658203px, -419.47000885009766px);transform: translate(249.99500274658203px, 419.47000885009766px) scale(1, 1) translate(-249.99500274658203px, -419.47000885009766px);}87.50%{-webkit-transform: translate(249.99500274658203px, 419.47000885009766px) scale(1, 1) translate(-249.99500274658203px, -419.47000885009766px);transform: translate(249.99500274658203px, 419.47000885009766px) scale(1, 1) translate(-249.99500274658203px, -419.47000885009766px);}93.75%{-webkit-transform: translate(249.99500274658203px, 419.47000885009766px) scale(1.1, 1.1) translate(-249.99500274658203px, -419.47000885009766px);transform: translate(249.99500274658203px, 419.47000885009766px) scale(1.1, 1.1) translate(-249.99500274658203px, -419.47000885009766px);}96.67%{-webkit-transform: translate(249.99500274658203px, 419.47000885009766px) scale(0, 0) translate(-249.99500274658203px, -419.47000885009766px);transform: translate(249.99500274658203px, 419.47000885009766px) scale(0, 0) translate(-249.99500274658203px, -419.47000885009766px);}100%{-webkit-transform: translate(249.99500274658203px, 419.47000885009766px) scale(0, 0) translate(-249.99500274658203px, -419.47000885009766px);transform: translate(249.99500274658203px, 419.47000885009766px) scale(0, 0) translate(-249.99500274658203px, -419.47000885009766px);}}@keyframes kf_el_L9SeOQ3zoI_an_Rerz8lgxT{0%{-webkit-transform: translate(249.99500274658203px, 419.47000885009766px) scale(0, 0) translate(-249.99500274658203px, -419.47000885009766px);transform: translate(249.99500274658203px, 419.47000885009766px) scale(0, 0) translate(-249.99500274658203px, -419.47000885009766px);}6.25%{-webkit-transform: translate(249.99500274658203px, 419.47000885009766px) scale(1.15, 1.15) translate(-249.99500274658203px, -419.47000885009766px);transform: translate(249.99500274658203px, 419.47000885009766px) scale(1.15, 1.15) translate(-249.99500274658203px, -419.47000885009766px);}7.50%{-webkit-transform: translate(249.99500274658203px, 419.47000885009766px) scale(0.95, 0.95) translate(-249.99500274658203px, -419.47000885009766px);transform: translate(249.99500274658203px, 419.47000885009766px) scale(0.95, 0.95) translate(-249.99500274658203px, -419.47000885009766px);}8.75%{-webkit-transform: translate(249.99500274658203px, 419.47000885009766px) scale(1.05, 1.05) translate(-249.99500274658203px, -419.47000885009766px);transform: translate(249.99500274658203px, 419.47000885009766px) scale(1.05, 1.05) translate(-249.99500274658203px, -419.47000885009766px);}10%{-webkit-transform: translate(249.99500274658203px, 419.47000885009766px) scale(1, 1) translate(-249.99500274658203px, -419.47000885009766px);transform: translate(249.99500274658203px, 419.47000885009766px) scale(1, 1) translate(-249.99500274658203px, -419.47000885009766px);}87.50%{-webkit-transform: translate(249.99500274658203px, 419.47000885009766px) scale(1, 1) translate(-249.99500274658203px, -419.47000885009766px);transform: translate(249.99500274658203px, 419.47000885009766px) scale(1, 1) translate(-249.99500274658203px, -419.47000885009766px);}93.75%{-webkit-transform: translate(249.99500274658203px, 419.47000885009766px) scale(1.1, 1.1) translate(-249.99500274658203px, -419.47000885009766px);transform: translate(249.99500274658203px, 419.47000885009766px) scale(1.1, 1.1) translate(-249.99500274658203px, -419.47000885009766px);}96.67%{-webkit-transform: translate(249.99500274658203px, 419.47000885009766px) scale(0, 0) translate(-249.99500274658203px, -419.47000885009766px);transform: translate(249.99500274658203px, 419.47000885009766px) scale(0, 0) translate(-249.99500274658203px, -419.47000885009766px);}100%{-webkit-transform: translate(249.99500274658203px, 419.47000885009766px) scale(0, 0) translate(-249.99500274658203px, -419.47000885009766px);transform: translate(249.99500274658203px, 419.47000885009766px) scale(0, 0) translate(-249.99500274658203px, -419.47000885009766px);}}#el_DcmvZitPJ *{-webkit-animation-duration: 8s;animation-duration: 8s;-webkit-animation-iteration-count: infinite;animation-iteration-count: infinite;-webkit-animation-timing-function: cubic-bezier(0, 0, 1, 1);animation-timing-function: cubic-bezier(0, 0, 1, 1);}#el_Z-jZP-2fok{fill: url(#SVGID_1_);}#el_bK7cV4pw9n{fill: url(#SVGID_2_);}#el_KPzzAx1br_{fill: url(#SVGID_3_);}#el_43uTKZlGTX{fill: #1B1B1B;}#el_pKUtxu53rX{fill: url(#SVGID_4_);}#el_wHV3ITDYvn{fill: url(#SVGID_5_);}#el_osCaO0Biml{fill: url(#SVGID_6_);}#el_k6bIuqU2uX{fill: url(#SVGID_7_);}#el_L9SeOQ3zoI_an_Rerz8lgxT{-webkit-animation-fill-mode: none;animation-fill-mode: none;-webkit-animation-name: kf_el_L9SeOQ3zoI_an_Rerz8lgxT;animation-name: kf_el_L9SeOQ3zoI_an_Rerz8lgxT;-webkit-animation-timing-function: cubic-bezier(0, 0, 1, 1);animation-timing-function: cubic-bezier(0, 0, 1, 1);}#el_KPzzAx1br__an_BezziXspD{-webkit-animation-fill-mode: none;animation-fill-mode: none;-webkit-animation-name: kf_el_KPzzAx1br__an_BezziXspD;animation-name: kf_el_KPzzAx1br__an_BezziXspD;-webkit-animation-timing-function: cubic-bezier(0.42, 0, 0.58, 1);animation-timing-function: cubic-bezier(0.42, 0, 0.58, 1);}#el_43uTKZlGTX_an_ei2JjyqQq{-webkit-animation-fill-mode: none;animation-fill-mode: none;-webkit-animation-name: kf_el_43uTKZlGTX_an_ei2JjyqQq;animation-name: kf_el_43uTKZlGTX_an_ei2JjyqQq;-webkit-animation-timing-function: cubic-bezier(0.42, 0, 0.58, 1);animation-timing-function: cubic-bezier(0.42, 0, 0.58, 1);}#el_pKUtxu53rX_an_mI7ZvxSM9{-webkit-animation-fill-mode: none;animation-fill-mode: none;-webkit-animation-name: kf_el_pKUtxu53rX_an_mI7ZvxSM9;animation-name: kf_el_pKUtxu53rX_an_mI7ZvxSM9;-webkit-animation-timing-function: cubic-bezier(0.42, 0, 0.58, 1);animation-timing-function: cubic-bezier(0.42, 0, 0.58, 1);}#el_wHV3ITDYvn_an_lqNUUCiSw{-webkit-animation-fill-mode: none;animation-fill-mode: none;-webkit-animation-name: kf_el_wHV3ITDYvn_an_lqNUUCiSw;animation-name: kf_el_wHV3ITDYvn_an_lqNUUCiSw;-webkit-animation-timing-function: cubic-bezier(0.42, 0, 0.58, 1);animation-timing-function: cubic-bezier(0.42, 0, 0.58, 1);}#el_osCaO0Biml_an_M4gyUx77v{-webkit-animation-fill-mode: none;animation-fill-mode: none;-webkit-animation-name: kf_el_osCaO0Biml_an_M4gyUx77v;animation-name: kf_el_osCaO0Biml_an_M4gyUx77v;-webkit-animation-timing-function: cubic-bezier(0.42, 0, 0.58, 1);animation-timing-function: cubic-bezier(0.42, 0, 0.58, 1);}#el_k6bIuqU2uX_an_sMms0tMbp{-webkit-animation-fill-mode: none;animation-fill-mode: none;-webkit-animation-name: kf_el_k6bIuqU2uX_an_sMms0tMbp;animation-name: kf_el_k6bIuqU2uX_an_sMms0tMbp;-webkit-animation-timing-function: cubic-bezier(0.42, 0, 0.58, 1);animation-timing-function: cubic-bezier(0.42, 0, 0.58, 1);}</style>

<g id="el_Ul9m7tLi_7">
	<g id="el_L9SeOQ3zoI_an_Rerz8lgxT" data-animator-group="true" data-animator-type="2"><g id="el_L9SeOQ3zoI">
		<g id="el_wikh8Lbs78">
			<linearGradient id="SVGID_1_" gradientUnits="userSpaceOnUse" x1="-444.4705" y1="243.5722" x2="637.0941" y2="243.5722">
				<stop offset="5.084014e-03" style="stop-color:#00B8CF"/>
				<stop offset="1" style="stop-color:#00FC96"/>
			</linearGradient>
			<path d="M380.75,140.43h-38.68c0-0.01,0-0.03,0-0.04c-0.07,0.01-0.13,0.04-0.21,0.04h-26.42H119.25&#10;&#9;&#9;&#9;&#9;c-1.38,0-2.51,1.12-2.51,2.51v201.32c0,1.38,1.12,2.51,2.51,2.51h261.49c1.38,0,2.51-1.12,2.51-2.51V142.93&#10;&#9;&#9;&#9;&#9;C383.25,141.55,382.13,140.43,380.75,140.43z M378.24,340.75c0,0.55-0.45,1-1,1H122.76c-0.55,0-1-0.45-1-1V146.44&#10;&#9;&#9;&#9;&#9;c0-0.55,0.45-1,1-1h192.61h26.49c0.17,0,0.32,0.05,0.45,0.12c0-0.04,0-0.08-0.01-0.12h34.93c0.55,0,1,0.45,1,1V340.75z" id="el_Z-jZP-2fok"/>
			<linearGradient id="SVGID_2_" gradientUnits="userSpaceOnUse" x1="-534.5211" y1="271.3026" x2="687.2881" y2="271.3026">
				<stop offset="5.084014e-03" style="stop-color:#00B8CF"/>
				<stop offset="1" style="stop-color:#00FC96"/>
			</linearGradient>
			<path d="M389.39,123.15h-58.42h-15.31H110.61c-6.15,0-11.15,5-11.15,11.15v218.6c0,6.15,5,11.15,11.15,11.15h109.68&#10;&#9;&#9;&#9;&#9;c0.55,0,1,0.45,1,1v21c0,0.55-0.45,1-1,1h-14.95c-8.94,0-16.21,7.27-16.21,16.21c0,8.94,7.27,16.21,16.21,16.21h89.31&#10;&#9;&#9;&#9;&#9;c8.94,0,16.21-7.27,16.21-16.21c0-8.94-7.27-16.21-16.21-16.21h-12.72c-0.55,0-1-0.45-1-1v-21c0-0.55,0.45-1,1-1h107.45&#10;&#9;&#9;&#9;&#9;c6.15,0,11.15-5,11.15-11.15V134.3C400.53,128.15,395.53,123.15,389.39,123.15z M294.65,392.05c6.17,0,11.2,5.02,11.2,11.2&#10;&#9;&#9;&#9;&#9;s-5.02,11.2-11.2,11.2h-89.31c-6.17,0-11.2-5.02-11.2-11.2s5.02-11.2,11.2-11.2H294.65z M226.31,386.04v-21c0-0.55,0.45-1,1-1&#10;&#9;&#9;&#9;&#9;h47.61c0.55,0,1,0.45,1,1v21c0,0.55-0.45,1-1,1h-47.61C226.75,387.04,226.31,386.59,226.31,386.04z M395.52,352.89&#10;&#9;&#9;&#9;&#9;c0,3.38-2.75,6.13-6.13,6.13H110.61c-3.38,0-6.13-2.75-6.13-6.13V134.3c0-3.38,2.75-6.13,6.13-6.13h205.01h15.57h58.19&#10;&#9;&#9;&#9;&#9;c3.38,0,6.13,2.75,6.13,6.13V352.89z" id="el_bK7cV4pw9n"/>
		</g>
	</g></g>
	<g id="el_dqZYp7Ixi1">
		<linearGradient id="SVGID_3_" gradientUnits="userSpaceOnUse" x1="98.4683" y1="197.8615" x2="401.5317" y2="197.8615">
			<stop offset="5.084014e-03" style="stop-color:#00B8CF"/>
			<stop offset="1" style="stop-color:#00FC96"/>
		</linearGradient>
		<g id="el_KPzzAx1br__an_BezziXspD" data-animator-group="true" data-animator-type="2"><path d="M163,204.16c-0.31,0.2-0.56,0.44-0.75,0.73c-0.02,0.03-0.04,0.07-0.05,0.09l-0.03,0.06l-0.05,0.1&#10;&#9;&#9;&#9;c-0.07,0.14-0.12,0.26-0.16,0.39c-0.02,0.05-0.03,0.11-0.05,0.17c-0.03,0.15-0.05,0.3-0.06,0.46c0,0.06-0.01,0.11-0.02,0.16&#10;&#9;&#9;&#9;v106.35c0.01,0.06,0.02,0.11,0.02,0.17l0,0.05c0.01,0.08,0.01,0.16,0.02,0.23c0.01,0.06,0.03,0.11,0.04,0.16l0.02,0.08l0.02,0.07&#10;&#9;&#9;&#9;c0.01,0.05,0.03,0.1,0.05,0.15c0.03,0.08,0.07,0.15,0.11,0.23c0.04,0.08,0.07,0.13,0.09,0.18c0.01,0.01,0.02,0.03,0.03,0.04&#10;&#9;&#9;&#9;c0.1,0.16,0.23,0.31,0.37,0.44l0.12,0.09c0.12,0.1,0.23,0.18,0.35,0.25c0.05,0.03,0.1,0.06,0.15,0.08&#10;&#9;&#9;&#9;c0.12,0.06,0.25,0.11,0.4,0.15l0.11,0.03c0.25,0.06,0.44,0.09,0.61,0.09h169.56c0.17,0,0.36-0.02,0.57-0.07l0.04-0.01l0.1-0.03&#10;&#9;&#9;&#9;c0.15-0.05,0.28-0.09,0.4-0.15c0.06-0.03,0.11-0.06,0.16-0.09c0.12-0.07,0.23-0.15,0.34-0.25l0.1-0.08&#10;&#9;&#9;&#9;c0.16-0.15,0.29-0.3,0.39-0.47c0.01-0.01,0.02-0.03,0.03-0.05c0.01-0.04,0.03-0.08,0.06-0.13c0.06-0.11,0.1-0.18,0.13-0.26&#10;&#9;&#9;&#9;c0.02-0.05,0.03-0.11,0.05-0.16l0.02-0.07l0.02-0.08c0.02-0.05,0.03-0.11,0.04-0.16c0.01-0.08,0.02-0.17,0.02-0.25&#10;&#9;&#9;&#9;c0.01-0.09,0.01-0.15,0.02-0.2l0-106.34c-0.01-0.05-0.01-0.1-0.02-0.16c-0.01-0.16-0.03-0.31-0.06-0.46&#10;&#9;&#9;&#9;c-0.01-0.06-0.03-0.12-0.05-0.17c-0.04-0.12-0.09-0.25-0.16-0.39l-0.05-0.1l-0.03-0.06c-0.02-0.03-0.04-0.07-0.05-0.1&#10;&#9;&#9;&#9;c-0.19-0.28-0.44-0.53-0.75-0.73c-0.03-0.02-0.07-0.05-0.1-0.07l-21.28-12.98c-0.3-0.18-0.48-0.51-0.48-0.85V83.05&#10;&#9;&#9;&#9;c0-1.38-1.12-2.51-2.51-2.51h-93.84c-0.04,0-0.07,0.01-0.11,0.01c-0.16,0-0.3,0.02-0.41,0.04c-0.02,0.01-0.05,0.01-0.07,0.02&#10;&#9;&#9;&#9;c-0.13,0.03-0.26,0.07-0.38,0.12c-0.04,0.02-0.08,0.04-0.12,0.05c-0.1,0.05-0.19,0.1-0.28,0.15l-0.06,0.04L215.56,81&#10;&#9;&#9;&#9;c-0.13,0.09-0.24,0.18-0.33,0.27c-0.01,0.01-0.03,0.03-0.05,0.04l-31.6,31.8c-0.09,0.09-0.18,0.2-0.27,0.34l-0.07,0.11&#10;&#9;&#9;&#9;c-0.05,0.08-0.1,0.18-0.15,0.28c-0.02,0.04-0.04,0.09-0.06,0.13c-0.05,0.12-0.08,0.24-0.11,0.36c0,0.02-0.02,0.07-0.03,0.09&#10;&#9;&#9;&#9;c0,0.01,0,0.01,0,0.01c0.11,10.58-0.04,77.04-0.04,77.04c0,0.35-0.18,0.67-0.48,0.85l-19.27,11.76&#10;&#9;&#9;&#9;C163.07,204.11,163.04,204.14,163,204.16z M322.69,309.44c-0.12,0.43-0.52,0.72-0.96,0.72H176.53c-0.45,0-0.84-0.29-0.96-0.72&#10;&#9;&#9;&#9;s0.05-0.89,0.43-1.12l72.6-45.56c0.16-0.1,0.35-0.15,0.53-0.15s0.37,0.05,0.53,0.15l72.6,45.56&#10;&#9;&#9;&#9;C322.64,308.56,322.81,309.01,322.69,309.44z M313.4,198.46c0-0.36,0.2-0.7,0.51-0.87c0.15-0.09,0.32-0.13,0.49-0.13&#10;&#9;&#9;&#9;c0.18,0,0.36,0.05,0.52,0.15l12.85,7.84c0.3,0.18,0.48,0.5,0.48,0.85s-0.18,0.67-0.47,0.85l-12.85,8.06&#10;&#9;&#9;&#9;c-0.16,0.1-0.35,0.15-0.53,0.15c-0.17,0-0.33-0.04-0.48-0.13c-0.32-0.18-0.52-0.51-0.52-0.88V198.46z M329.87,211.75&#10;&#9;&#9;&#9;c0.16-0.1,0.35-0.15,0.53-0.15c0.17,0,0.33,0.04,0.48,0.13c0.32,0.18,0.52,0.51,0.52,0.88v93.73c0,0.36-0.2,0.7-0.52,0.88&#10;&#9;&#9;&#9;c-0.15,0.08-0.32,0.13-0.48,0.13c-0.18,0-0.37-0.05-0.53-0.15l-74.68-46.87c-0.29-0.18-0.47-0.5-0.47-0.85s0.18-0.66,0.47-0.85&#10;&#9;&#9;&#9;L329.87,211.75z M193.08,110.66l19.7-19.82c0.19-0.19,0.45-0.3,0.71-0.3c0.13,0,0.26,0.02,0.38,0.08&#10;&#9;&#9;&#9;c0.37,0.15,0.62,0.52,0.62,0.92v19.82c0,0.55-0.45,1-1,1h-19.7c-0.4,0-0.77-0.24-0.92-0.62&#10;&#9;&#9;&#9;C192.71,111.38,192.8,110.95,193.08,110.66z M187.87,118.38c0-0.55,0.45-1,1-1H217c1.38,0,2.51-1.12,2.51-2.51V86.56&#10;&#9;&#9;&#9;c0-0.55,0.45-1,1-1h86.88c0.55,0,1,0.45,1,1v132.21c0,0.34-0.18,0.66-0.47,0.85l-58.26,36.56c-0.16,0.1-0.35,0.15-0.53,0.15&#10;&#9;&#9;&#9;s-0.37-0.05-0.53-0.15l-60.26-37.82c-0.29-0.18-0.47-0.5-0.47-0.85V118.38z M170.49,205.45l10.85-6.62&#10;&#9;&#9;&#9;c0.16-0.1,0.34-0.15,0.52-0.15c0.17,0,0.34,0.04,0.49,0.13c0.32,0.18,0.51,0.51,0.51,0.87v13.42c0,0.36-0.2,0.7-0.52,0.88&#10;&#9;&#9;&#9;c-0.15,0.08-0.32,0.13-0.48,0.13c-0.18,0-0.37-0.05-0.53-0.15l-10.85-6.81c-0.29-0.18-0.47-0.51-0.47-0.85&#10;&#9;&#9;&#9;S170.2,205.63,170.49,205.45z M166.86,212.6c0-0.36,0.2-0.7,0.52-0.88c0.15-0.08,0.32-0.13,0.48-0.13c0.18,0,0.37,0.05,0.53,0.15&#10;&#9;&#9;&#9;l74.68,46.87c0.29,0.18,0.47,0.5,0.47,0.85s-0.18,0.66-0.47,0.85l-74.68,46.87c-0.16,0.1-0.35,0.15-0.53,0.15&#10;&#9;&#9;&#9;c-0.17,0-0.33-0.04-0.48-0.13c-0.32-0.18-0.52-0.51-0.52-0.88V212.6z" id="el_KPzzAx1br_"/></g>
		<g id="el_43uTKZlGTX_an_ei2JjyqQq" data-animator-group="true" data-animator-type="2"><path d="M187.87,118.38c0-0.55,0.45-1,1-1H217c1.38,0,2.51-1.12,2.51-2.51V86.56c0-0.55,0.45-1,1-1h86.88&#10;&#9;&#9;&#9;c0.55,0,1,0.45,1,1v132.21c0,0.34-0.18,0.66-0.47,0.85l-58.26,36.56c-0.16,0.1-0.35,0.15-0.53,0.15s-0.37-0.05-0.53-0.15&#10;&#9;&#9;&#9;l-60.26-37.82c-0.29-0.18-0.47-0.5-0.47-0.85V118.38z" id="el_43uTKZlGTX"/></g>
		<linearGradient id="SVGID_4_" gradientUnits="userSpaceOnUse" x1="204.6758" y1="141.97" x2="287.1377" y2="141.97">
			<stop offset="5.084014e-03" style="stop-color:#00B8CF"/>
			<stop offset="1" style="stop-color:#00FC96"/>
		</linearGradient>
		<g id="el_pKUtxu53rX_an_mI7ZvxSM9" data-animator-group="true" data-animator-type="2"><path d="M208.18,144.48h75.45c1.38,0,2.51-1.12,2.51-2.51s-1.12-2.51-2.51-2.51h-75.45c-1.38,0-2.51,1.12-2.51,2.51&#10;&#9;&#9;&#9;S206.8,144.48,208.18,144.48z" id="el_pKUtxu53rX"/></g>
		<linearGradient id="SVGID_5_" gradientUnits="userSpaceOnUse" x1="204.6758" y1="159.6233" x2="287.1377" y2="159.6233">
			<stop offset="5.084014e-03" style="stop-color:#00B8CF"/>
			<stop offset="1" style="stop-color:#00FC96"/>
		</linearGradient>
		<g id="el_wHV3ITDYvn_an_lqNUUCiSw" data-animator-group="true" data-animator-type="2"><path d="M208.18,162.13h75.45c1.38,0,2.51-1.12,2.51-2.51s-1.12-2.51-2.51-2.51h-75.45c-1.38,0-2.51,1.12-2.51,2.51&#10;&#9;&#9;&#9;S206.8,162.13,208.18,162.13z" id="el_wHV3ITDYvn"/></g>
		<linearGradient id="SVGID_6_" gradientUnits="userSpaceOnUse" x1="204.6758" y1="177.2751" x2="287.1377" y2="177.2751">
			<stop offset="5.084014e-03" style="stop-color:#00B8CF"/>
			<stop offset="1" style="stop-color:#00FC96"/>
		</linearGradient>
		<g id="el_osCaO0Biml_an_M4gyUx77v" data-animator-group="true" data-animator-type="2"><path d="M208.18,179.78h75.45c1.38,0,2.51-1.12,2.51-2.51s-1.12-2.51-2.51-2.51h-75.45c-1.38,0-2.51,1.12-2.51,2.51&#10;&#9;&#9;&#9;S206.8,179.78,208.18,179.78z" id="el_osCaO0Biml"/></g>
		<linearGradient id="SVGID_7_" gradientUnits="userSpaceOnUse" x1="204.6758" y1="194.9285" x2="287.1377" y2="194.9285">
			<stop offset="5.084014e-03" style="stop-color:#00B8CF"/>
			<stop offset="1" style="stop-color:#00FC96"/>
		</linearGradient>
		<g id="el_k6bIuqU2uX_an_sMms0tMbp" data-animator-group="true" data-animator-type="2"><path d="M286.14,194.93c0-1.38-1.12-2.51-2.51-2.51h-75.45c-1.38,0-2.51,1.12-2.51,2.51s1.12,2.51,2.51,2.51h75.45&#10;&#9;&#9;&#9;C285.01,197.43,286.14,196.31,286.14,194.93z" id="el_k6bIuqU2uX"/></g>
	</g>
</g>
</svg>