<svg xmlns="http://www.w3.org/2000/svg" viewBox="0 0 198.76 124.22"><defs><style>.cls-1{fill:gray;}</style></defs><title>iconRecurso 3</title><g id="Capa_2" data-name="Capa 2"><g id="Capa_1-2" data-name="Capa 1"><path class="cls-1" d="M109.39,55.75V0H0V68.47H53.23v55.75H198.76V55.75ZM4.86,4.86h99.67V63.61H4.86Zm189,114.49H58.09V68.47h51.3V60.61h84.5Z"/><path class="cls-1" d="M34.27,23a8.93,8.93,0,0,1,9,6.42l4.9-1.87c-1.65-5.08-6.42-9.37-13.89-9.37-8,0-15.49,5.9-15.49,16S25.9,50.27,33.93,50.27c4.9,0,8.07-2.3,9.41-4.56l.39,3.91h4.21V34H32.88V38.6H43c-.26,2.64-2.6,6.9-8.81,6.9-5.3,0-10.16-3.78-10.16-11.29S29.28,23,34.27,23"/><path class="cls-1" d="M75,18.2c-8.08,0-15.63,5.94-15.63,16S66.87,50.27,75,50.27s15.67-5.94,15.67-16.06S83,18.2,75,18.2m0,27.12c-5.17,0-10.29-3.68-10.29-11.11S69.78,23.1,75,23.1s10.33,3.69,10.33,11.11S80.16,45.32,75,45.32"/><polygon class="cls-1" points="78.26 74.6 73.06 74.6 73.06 105.37 92.37 105.37 92.37 100.42 78.26 100.42 78.26 74.6"/><rect class="cls-1" x="104.09" y="74.6" width="5.29" height="30.77"/><polygon class="cls-1" points="131.92 105.37 137.21 105.37 148.84 74.6 143.33 74.6 134.69 98.55 126.1 74.6 120.46 74.6 131.92 105.37"/><polygon class="cls-1" points="178.93 100.51 165.13 100.51 165.13 92.35 177.63 92.35 177.63 87.62 165.13 87.62 165.13 79.46 178.93 79.46 178.93 74.6 159.92 74.6 159.92 105.37 178.93 105.37 178.93 100.51"/></g></g></svg>