<svg xmlns="http://www.w3.org/2000/svg" viewBox="0 0 142 95.75"><defs><style>.cls-1{fill:#fff;}</style></defs><title>Recurso 12</title><g id="Capa_2" data-name="Capa 2"><g id="Capa_1-2" data-name="Capa 1"><path class="cls-1" d="M23.36,0l6.71,95.75h-13V76.32H13l-.46,19.43H0L6.71,0ZM13.41,65.22h2.78l-.93-41.17h-.92Z"/><path class="cls-1" d="M43.94,95.75H31V0H52.14c3.9,0,7.07,4.55,7.07,7.07V37c0,4.63-4.17,7.4-4.17,7.4v.47h0c4.17.92,4.63,4.84,4.63,7.4V95.75h-13V53.15a1.36,1.36,0,0,0-1.35-1.35H43.94Zm0-86V41.17h.77a2,2,0,0,0,2-2V11.5a1.79,1.79,0,0,0-1.79-1.79Z"/><polygon class="cls-1" points="65.68 12.03 65.68 95.75 78.63 95.75 78.63 12.03 84.18 12.03 84.18 0 60.13 0 60.13 12.03 65.68 12.03"/><polygon class="cls-1" points="85.57 0 85.57 95.75 107.31 95.75 107.31 83.72 98.52 83.72 98.52 51.34 105.92 51.34 105.92 39.32 98.52 39.32 98.52 12.03 106.85 12.03 106.85 0 85.57 0"/><path class="cls-1" d="M113.79,0V24.05h10.63V12h6.94C118,50,118,95.75,118,95.75h13S128.59,54.58,142,11.1V0Z"/></g></g></svg>