<svg xmlns="http://www.w3.org/2000/svg" viewBox="0 0 251.87 34.8"><defs><style>.cls-1{fill:#fff;}</style></defs><title>Recurso 8</title><g id="Capa_2" data-name="Capa 2"><g id="Capa_1-2" data-name="Capa 1"><path class="cls-1" d="M110.49,21.22l8.83,13c-.34,0-.57.05-.8.05-2.14,0-4.28,0-6.42,0a1.17,1.17,0,0,1-1.12-.62c-2.5-3.8-5-7.58-7.52-11.38a1.1,1.1,0,0,0-1.07-.58c-1,.05-1.91,0-2.93,0V34.18h-7V.56h.62c4.57,0,9.15,0,13.72,0a13.46,13.46,0,0,1,5.52,1.15,9.11,9.11,0,0,1,5.3,6.06,12.4,12.4,0,0,1,.06,6.7,9.07,9.07,0,0,1-6.3,6.46Zm-11-5.33c2.39,0,4.7,0,7,0A4.57,4.57,0,0,0,110.37,14a4.86,4.86,0,0,0,.33-4.92,4.21,4.21,0,0,0-4-2.44c-2.33-.09-4.67,0-7,0a.68.68,0,0,0-.25.09Z"/><path class="cls-1" d="M165.85,16.94c-.06,5.14-1.28,9.44-4.53,13a15.12,15.12,0,0,1-12.85,4.83c-7.94-.6-13.32-6.62-14.32-14.36a19.49,19.49,0,0,1,2.16-12.56C139.54,2.2,144.55-.29,151,.05c8.09.43,13.56,6.44,14.65,14.17C165.75,15.27,165.79,16.32,165.85,16.94Zm-7.13,1.14a15,15,0,0,0-1.25-6.78,8,8,0,0,0-7.32-5,7.54,7.54,0,0,0-7.45,4.36,14,14,0,0,0,.16,13.73,8.06,8.06,0,0,0,13.86.42A12.32,12.32,0,0,0,158.72,18.08Z"/><path class="cls-1" d="M220,18c.11-5.38,1.31-9.72,4.6-13.25A15,15,0,0,1,236.79,0c8.59.43,14,6.87,14.91,14.65a19.76,19.76,0,0,1-2.11,12.15,15.34,15.34,0,0,1-15.24,7.91c-7.21-.64-12.53-5.8-13.95-13.13C220.13,20.21,220.05,18.78,220,18Zm24.81-.53a13.84,13.84,0,0,0-1.06-5.76c-1.38-3.18-3.68-5.19-7.26-5.41a7.65,7.65,0,0,0-7.83,4.58,14.4,14.4,0,0,0-.14,12.69,7.71,7.71,0,0,0,7.79,4.89c3.51-.13,5.86-2,7.31-5.11A13.67,13.67,0,0,0,244.76,17.49Z"/><path class="cls-1" d="M76.13,34.24c-2.37,0-4.62,0-6.88,0-.18,0-.42-.35-.51-.58-.86-2.27-1.71-4.54-2.53-6.83a.88.88,0,0,0-1-.7c-3.71,0-7.43,0-11.14,0a.84.84,0,0,0-1,.66c-.82,2.31-1.67,4.62-2.52,6.92-.08.21-.31.53-.47.53-2.23,0-4.46,0-6.79,0C47.66,23,51.94,11.78,56.22.58h7C67.52,11.76,71.81,23,76.13,34.24Zm-12.39-14c-1.37-3.71-2.7-7.33-4.09-11.11-1.39,3.79-2.72,7.42-4.07,11.08l.44,0Z"/><path class="cls-1" d="M29.84,11.46c-2.32,0-4.51,0-6.69,0-.18,0-.41-.29-.5-.5a7.49,7.49,0,0,0-3.37-3.86A7.94,7.94,0,0,0,9.62,9.23C6.29,13.4,6.43,21.6,9.78,25.77c3,3.75,10.49,4.12,12.78-1.83a.89.89,0,0,1,1-.66c2,0,4.08,0,6.2,0a5.42,5.42,0,0,1-.08.66A13.22,13.22,0,0,1,16.6,34.79C8.23,35,1.82,29.76.39,21.43a19.85,19.85,0,0,1,2-13.59C5.54,2.23,10.49-.28,16.89.05a13.21,13.21,0,0,1,9.77,4.48A14.36,14.36,0,0,1,29.84,11.46Z"/><path class="cls-1" d="M190,28h15.67V34.2H183V.58H190Z"/></g></g></svg>