<svg xmlns="http://www.w3.org/2000/svg" viewBox="0 0 262.14 133.43"><defs><style>.cls-1{fill:#fff;}</style></defs><title>Recurso 11</title><g id="Capa_2" data-name="Capa 2"><g id="Capa_1-2" data-name="Capa 1"><path class="cls-1" d="M19.12,93.8h-2.8a1.86,1.86,0,0,1-.14-.25,4.62,4.62,0,0,0-2.61-2.79,7.29,7.29,0,0,0-9.25,2.71A8.7,8.7,0,0,0,4,102.4a6.92,6.92,0,0,0,5.32,3.77,7.65,7.65,0,0,0,4.58-.48,5.82,5.82,0,0,0,3.4-4.62H12.6V98.56c.47-.13,9.23-.15,9.87,0V101H20.36l-.23.89a8.8,8.8,0,0,1-7.86,6.85,12.11,12.11,0,0,1-4.94-.33A9.32,9.32,0,0,1,1.06,103,11,11,0,0,1,2.72,91a9.52,9.52,0,0,1,6.69-3.39,10.15,10.15,0,0,1,5.9,1.1,7,7,0,0,1,3.76,4.76C19.09,93.52,19.1,93.62,19.12,93.8Z"/><path class="cls-1" d="M66.84,108.93A10.34,10.34,0,0,1,56.35,99.2a10.85,10.85,0,0,1,2.27-7.85,9.85,9.85,0,0,1,7.13-3.79,10.79,10.79,0,0,1,5.36.77,10,10,0,0,1,6,7.52,10.76,10.76,0,0,1-2.6,9.79,9.62,9.62,0,0,1-6,3.12C68,108.85,67.41,108.87,66.84,108.93ZM67,90.09a7.24,7.24,0,0,0-6.12,3,8.85,8.85,0,0,0,0,10.11,7.35,7.35,0,0,0,12.1-.19,8.48,8.48,0,0,0,.49-8.85A7,7,0,0,0,67,90.09Z"/><path class="cls-1" d="M101,98.05c.12.06.2.11.3.15a4.89,4.89,0,0,1,2.8,5.2c-.39,3-2.47,4.76-5.5,5-.92.06-1.85,0-2.77,0H90.79V88a3.56,3.56,0,0,1,.47,0c2.18,0,4.35,0,6.53,0a8.65,8.65,0,0,1,2.67.41,5.24,5.24,0,0,1,2,8.68A12.58,12.58,0,0,1,101,98.05Zm-7.42,1.38v6.31c.07,0,.1.07.14.07,1.56,0,3.12.08,4.67,0a3.07,3.07,0,0,0,2.71-4.22A3.16,3.16,0,0,0,98,99.4c-1.35,0-2.71,0-4.06,0Zm0-2.71a1.45,1.45,0,0,0,.29,0h4.18a4.91,4.91,0,0,0,.67-.09,2.92,2.92,0,0,0,2.39-2.56,3,3,0,0,0-1.69-3.24,4.56,4.56,0,0,0-1.86-.35H94.21c-.2,0-.39,0-.6,0Z"/><path class="cls-1" d="M201.09,69.88a10.18,10.18,0,0,1-10.35-9.6,10.61,10.61,0,0,1,3-8.66,9.76,9.76,0,0,1,6.67-2.89,10.59,10.59,0,0,1,4.6.67,9.83,9.83,0,0,1,6.19,7.22,10.62,10.62,0,0,1-2.36,9.89,9.62,9.62,0,0,1-6.67,3.31C201.83,69.85,201.46,69.86,201.09,69.88Zm7.69-10.09A9.68,9.68,0,0,0,207.72,55,7.47,7.47,0,0,0,195,54.31a8.51,8.51,0,0,0-.39,9.33,7.43,7.43,0,0,0,10.84,2.51A8.08,8.08,0,0,0,208.78,59.79Z"/><path class="cls-1" d="M.66,69.42V49.19a4.7,4.7,0,0,1,.5,0c1.85,0,3.7,0,5.55,0a11.09,11.09,0,0,1,6,1.57,9.68,9.68,0,0,1,4.58,7.37A9.82,9.82,0,0,1,14.85,66,9.42,9.42,0,0,1,8.37,69.3c-1.68.15-3.37.09-5,.11C2.46,69.43,1.6,69.42.66,69.42ZM3.26,67l.35,0c1.23,0,2.46,0,3.7,0a7.14,7.14,0,0,0,4.39-1.55,7.71,7.71,0,0,0,2.91-6.78,7.46,7.46,0,0,0-7.42-7.12c-1.19,0-2.38,0-3.57,0a1.75,1.75,0,0,0-.36.07Z"/><path class="cls-1" d="M127,69.42c-1,0-1.86,0-2.72,0-.28,0-.39-.15-.52-.35l-2-3.19-1.6-2.56c-.11-.18-.2-.35-.46-.35h-3.9c-.06.72,0,1.41,0,2.1s0,1.44,0,2.15v2.14h-2.57V49.19a4.17,4.17,0,0,1,.52,0c2.11,0,4.23,0,6.34,0a8.36,8.36,0,0,1,2.67.41,6.67,6.67,0,0,1,4.47,6.62,6.59,6.59,0,0,1-4.14,6.23l-.3.15Zm-11.17-8.87c1.65,0,3.23,0,4.81,0a3.73,3.73,0,0,0,2.68-1.23,4.67,4.67,0,0,0,.91-5.1,4.11,4.11,0,0,0-4.1-2.67h-3.76c-.17,0-.35,0-.54.05Z"/><path class="cls-1" d="M121.37,88h2.07l7.06,20.41h-3l-1.06-3h-8.05l-1,3h-3C116.69,101.56,119,94.78,121.37,88Zm4.12,14.73c-.25-1.28-2.84-9.34-3.13-9.71l-3.09,9.71Z"/><path class="cls-1" d="M54.92,63h2.52c0,.29.08.56.12.82a4.15,4.15,0,0,0,3.94,3.67,5.38,5.38,0,0,0,2.6-.38A3.29,3.29,0,0,0,65.38,62a3.87,3.87,0,0,0-1.61-1.1c-1.08-.39-2.18-.72-3.26-1.12a20.27,20.27,0,0,1-2.14-.92,5.32,5.32,0,0,1,.17-9.45,7.32,7.32,0,0,1,6.09-.21,5.78,5.78,0,0,1,3.6,5.47.86.86,0,0,1,0,.15H65.66c0-.22-.07-.44-.11-.66A3.45,3.45,0,0,0,61.6,51.1a5.55,5.55,0,0,0-1.61.37,2.66,2.66,0,0,0-1.76,2.33,2.72,2.72,0,0,0,1.24,2.71,9.61,9.61,0,0,0,1.77.85c1.07.41,2.18.73,3.25,1.14a8.18,8.18,0,0,1,2.67,1.61,4.42,4.42,0,0,1,1.52,3.26,8.45,8.45,0,0,1-.19,2.13A5.06,5.06,0,0,1,65.64,69,7.94,7.94,0,0,1,58.17,69a6.25,6.25,0,0,1-3.29-5.68C54.88,63.19,54.91,63.11,54.92,63Z"/><path class="cls-1" d="M175.58,49.2v2.33H170.4V69.29a8.09,8.09,0,0,1-2.66,0V51.56h-5.19V49.24C163,49.12,174.53,49.07,175.58,49.2Z"/><path class="cls-1" d="M88.58,51.55H83.46a5.86,5.86,0,0,1,0-2.37h13v2.35H91.19V69.37H88.58Z"/><path class="cls-1" d="M148.41,105.82h6.51v2.56h-9.35c-.13-.46-.17-19.65,0-20.43h2.66l.06.07,0,0s0,.08,0,.12v.06c0,.06,0,.12,0,.18v17.13a.13.13,0,0,0,0,.06.13.13,0,0,0,0,.06S148.36,105.72,148.41,105.82Z"/><path class="cls-1" d="M37.74,105.82h6.59v2.56H34.94V88h2.78c0,.62,0,1.27,0,1.91v15.91Z"/><path class="cls-1" d="M128.82,65.76h.53c.07,18.48,6.34,34.47,19.38,47.55s29,19.39,47.46,19.52c0,0,.07.06.07.09s0,.29,0,.51a65.8,65.8,0,0,1-37-10.71A66.27,66.27,0,0,1,128.82,65.76Z"/><path class="cls-1" d="M37.84,69.42H35.66l-.45,0V49.2a2,2,0,0,1,.31-.05h2.32Z"/><path class="cls-1" d="M147.39,69.38h-2.63V49.14h2.57C147.47,49.64,147.52,68.25,147.39,69.38Z"/><path class="cls-1" d="M234.1,13.08l.38-.52,2.75,2.08-.39.52Z"/><path class="cls-1" d="M231.61,10.59l-.35.54-2.92-1.77.3-.57Z"/><path class="cls-1" d="M215.76,3.79l.19-.57a32.16,32.16,0,0,1,3.26,1.12l-.21.58Z"/><path class="cls-1" d="M259.75,48.8l-.58.21c-.34-1.09-.67-2.15-1-3.26l.56-.24C259.15,46.59,259.43,47.69,259.75,48.8Z"/><path class="cls-1" d="M225.56,7.12l-.26.59-3.1-1.46.25-.6Z"/><path class="cls-1" d="M255.65,39.35l.58-.28,1.34,3.16-.58.26Z"/><path class="cls-1" d="M248.7,27.53l.51-.39,2,2.82-.52.38Z"/><path class="cls-1" d="M209.24,1.4l3.34.79-.1.62L209.14,2Z"/><path class="cls-1" d="M244.34,22.22l.48-.43,2.26,2.6-.5.42Z"/><path class="cls-1" d="M252.48,33.26l.54-.34,1.67,3-.53.37Z"/><path class="cls-1" d="M202.38,1V.4a23.71,23.71,0,0,1,3.33.38c0,.06.07.1.07.13s0,.28,0,.49Z"/><path class="cls-1" d="M260,52.34l.63-.13c.22,1.12.43,2.22.66,3.36l-.62.14C260.44,54.58,260.22,53.49,260,52.34Z"/><path class="cls-1" d="M242.4,19.26l-.43.48-2.51-2.35.43-.49Z"/><path class="cls-1" d="M261.13,59.11h.64l.28,3.31a2.1,2.1,0,0,1-.25.09c-.1,0-.2,0-.36,0C261.34,61.4,261.24,60.29,261.13,59.11Z"/><path class="cls-1" d="M195.34.64V0c1.16-.1,2.32,0,3.53,0l0,.58Z"/><path class="cls-1" d="M242.78,112.89l.36.47-1.07,1.1-.48-.42Z"/><path class="cls-1" d="M246.55,108.62l.47.45-1,1.18-.52-.39Z"/><path class="cls-1" d="M255,97l-.74,1.41-.56-.3.71-1.38Z"/><path class="cls-1" d="M215,130.51l-.18-.6,1.47-.48.24.6Z"/><path class="cls-1" d="M238.54,116.81l.42.49-1.2,1-.42-.49Z"/><path class="cls-1" d="M247.85,108l-.5-.4.94-1.23.54.36Z"/><path class="cls-1" d="M231.69,122l.36.54-1.33.85-.34-.54Z"/><path class="cls-1" d="M227.11,125.46l-1.4.73-.32-.55,1.38-.73Z"/><path class="cls-1" d="M213.59,130.27l.16.62-1.5.4-.19-.6Z"/><path class="cls-1" d="M211,131.61l-1.52.35-.16-.61,1.53-.36Z"/><path class="cls-1" d="M219,128.46l.23.59-1.47.56-.23-.6Z"/><path class="cls-1" d="M220.45,128.59l-.24-.58,1.43-.62.28.57Z"/><path class="cls-1" d="M250.51,104.42l-.9,1.29-.53-.34.88-1.3Z"/><path class="cls-1" d="M257.83,90.49l-.59-.25.52-1.44.61.17C258.19,89.47,258,89.94,257.83,90.49Z"/><path class="cls-1" d="M251.23,103.36l-.51-.39.81-1.28.57.3Z"/><path class="cls-1" d="M234.05,120.34l.37.54-1.28.9-.37-.52Z"/><path class="cls-1" d="M229.26,123.5l.35.53-1.35.8-.35-.53Z"/><path class="cls-1" d="M236.33,118.64l.4.48-1.23,1-.41-.51Z"/><path class="cls-1" d="M261.83,73.64l-.62-.07c0-.52.08-1,.12-1.53l.64,0Z"/><path class="cls-1" d="M258.8,87.75l-.6-.22.47-1.47.61.18Z"/><path class="cls-1" d="M255.63,94.09l.57.26-.65,1.42-.61-.23Z"/><path class="cls-1" d="M244.66,110.82l.49.4-1.06,1.18-.49-.42Z"/><path class="cls-1" d="M240.67,114.91l.44.46L240,116.44l-.44-.47Z"/><path class="cls-1" d="M223.11,127.44l-.28-.57,1.39-.66.32.56Z"/><path class="cls-1" d="M256.75,91.48l.6.2-.6,1.46-.61-.21Z"/><path class="cls-1" d="M260.39,82.17l-.61-.13.31-1.49.64.06Z"/><path class="cls-1" d="M260.07,83.44,259.66,85l-.61-.16.39-1.49Z"/><path class="cls-1" d="M208,131.59l.13.56a4.53,4.53,0,0,1-1.53.31l-.1-.5c.06-.06.09-.1.12-.1Z"/><path class="cls-1" d="M253,99.2l.55.32-.78,1.36-.56-.3Z"/><path class="cls-1" d="M203.73,132.92l-.07-.62,1.49-.23.17.61Z"/><path class="cls-1" d="M260.86,76.43c.06-.53.12-1,.19-1.54l.62,0-.19,1.53Z"/><path class="cls-1" d="M261,79.34l-.56-.1a1.23,1.23,0,0,1,0-.26c.07-.4.15-.8.23-1.26l.63.07C261.17,78.33,261.09,78.8,261,79.34Z"/><path class="cls-1" d="M200.87,133.21l-.08-.62,1.53-.16.12.61Z"/><path class="cls-1" d="M262.05,70.82l-.63-.15.1-1.46h.61C262.11,69.74,262.08,70.23,262.05,70.82Z"/><path class="cls-1" d="M199.52,133.29l-1.54.07,0-.62h1.54Z"/><path class="cls-1" d="M262.14,67.49h-.56V66h.56Z"/><path class="cls-1" d="M135,38.43l.56.25-.4.91-.59-.27Z"/><path class="cls-1" d="M163,9.17l-.31-.54.85-.5.32.56Z"/><path class="cls-1" d="M158.35,11.26l.36.53-.8.54-.38-.49Z"/><path class="cls-1" d="M132.71,44l.6.25-.33.91-.59-.21Z"/><path class="cls-1" d="M134.41,41.41l-.6-.22.39-.91.59.22Z"/><path class="cls-1" d="M169.82,5.1l.92-.38.26.57-.9.38Z"/><path class="cls-1" d="M155.88,13l.81-.59.39.5-.78.58Z"/><path class="cls-1" d="M192.29,0l0,.62-.94.11-.09-.6Z"/><path class="cls-1" d="M174.52,3.33l.22.6-.91.32-.25-.58Z"/><path class="cls-1" d="M129.42,63.73v1l-.64-.09.07-.91Z"/><path class="cls-1" d="M133.42,42.12l.6.24-.35.92-.59-.21Z"/><path class="cls-1" d="M137,36l-.57-.27.47-.89.56.31Z"/><path class="cls-1" d="M141.66,28.35l-.57.81-.54-.35.57-.81Z"/><path class="cls-1" d="M142.32,26.38l.52.36-.59.8-.52-.37Z"/><path class="cls-1" d="M154.69,14.71l-.38-.5.76-.61.41.49Z"/><path class="cls-1" d="M132.08,48l-.3.93-.6-.17.28-.94Z"/><path class="cls-1" d="M131.29,50.87l-.58-.09.18-1,.64.09Z"/><path class="cls-1" d="M137.85,33.05l.55.34-.49.83-.57-.27Z"/><path class="cls-1" d="M138.92,32.51l-.55-.32.52-.85.53.33Z"/><path class="cls-1" d="M145.36,23.64l-.66.76-.48-.41.62-.74Z"/><path class="cls-1" d="M146.18,21.72l.48.43-.63.72-.5-.37Z"/><path class="cls-1" d="M139.42,30.5l.55-.84.54.33-.52.82Z"/><path class="cls-1" d="M153.14,16l-.39-.49.74-.63.43.49Z"/><path class="cls-1" d="M149.06,18.86l.41.4-.7.73-.49-.44Z"/><path class="cls-1" d="M159.2,10.7l.83-.53.35.52-.82.54Z"/><path class="cls-1" d="M162.08,9.67l-.82.5-.37-.53.85-.52Z"/><path class="cls-1" d="M130.21,52.73l.24-1,.6.12-.19.93Z"/><path class="cls-1" d="M168.89,5.5l.28.55-.88.42L168,5.9Z"/><path class="cls-1" d="M176.46,2.73l.16.61-.91.29-.2-.59Z"/><path class="cls-1" d="M165.58,7.77l-.87.43-.33-.54.88-.46Z"/><path class="cls-1" d="M182.3,1.29l.14.62-.95.2-.13-.61Z"/><path class="cls-1" d="M189.38.92l-.1-.61.95-.13.14.6Z"/><path class="cls-1" d="M130.28,55.78l-.13,1-.64-.05.14-1Z"/><path class="cls-1" d="M128.87,62.66l.08-.94h.61l-.06.94Z"/><path class="cls-1" d="M129.84,54.71l.18-1,.6.11-.14.93Z"/><path class="cls-1" d="M166.48,7.32l-.3-.57.88-.43.3.57Z"/><path class="cls-1" d="M132.08,45.92l.58.19-.29.92-.61-.15Z"/><path class="cls-1" d="M186.34,1.24l-.94.15-.08-.63,1-.13Z"/><path class="cls-1" d="M172.64,4l.21.6-.9.33-.25-.56Z"/><path class="cls-1" d="M183.41,1.72l-.06-.63.94-.16.09.61Z"/><path class="cls-1" d="M143.57,24.78l.5.4-.62.77-.49-.39Z"/><path class="cls-1" d="M136.49,36.89l-.44.88-.58-.27.45-.88Z"/><path class="cls-1" d="M178.58,2.81l-.94.24-.22-.59.94-.25Z"/><path class="cls-1" d="M147.31,21.47l-.43-.46.74-.82.38.54Z"/><path class="cls-1" d="M129,60.66l.14-.94.58,0-.06.91Z"/><path class="cls-1" d="M188.36,1l-1,.12-.1-.61,1-.12Z"/><path class="cls-1" d="M129.37,57.73l.6,0-.1,1-.63,0Z"/><path class="cls-1" d="M179.55,2.54l-.17-.6,1-.21.17.6Z"/><path class="cls-1" d="M151.21,16.79l.75-.66.42.48-.72.63Z"/><path class="cls-1" d="M194.28.07V.61h-.91l0-.54Z"/><path class="cls-1" d="M150.89,17.92l-.73.67-.42-.46.69-.66Z"/></g></g></svg>