<svg xmlns="http://www.w3.org/2000/svg" viewBox="0 0 269.25 78.72"><defs><style>.cls-1{fill:#fff;}.cls-2{fill:#c1c1c1;}</style></defs><title>Recurso 9</title><g id="Capa_2" data-name="Capa 2"><g id="Capa_1-2" data-name="Capa 1"><path class="cls-1" d="M226.35,32.66c-3.31,0-6.62,0-9.93,0-.51,0-.67,0-.55.65.74,3.52,3.42,5.37,7.15,6a12,12,0,0,0,7.57-1.61c1-.51,1.92-1.06,2.91-1.54a3.92,3.92,0,0,1,5.66,2.74,3.4,3.4,0,0,1-.71,3A11,11,0,0,1,234.16,45a22.66,22.66,0,0,1-15.26,1.84,16.84,16.84,0,0,1-12.78-15.44,18.79,18.79,0,0,1,4.21-13.78,16.45,16.45,0,0,1,26.24,1.15,17.06,17.06,0,0,1,3.34,9,9,9,0,0,1-.08,2,3.27,3.27,0,0,1-3.49,2.87c-3.33,0-6.66,0-10,0Zm-10.76-6.19c4.81,0,9.62,0,14.43,0,.45,0,.41-.21.36-.51-.46-2.65-2.15-6-6.36-6.53A7.48,7.48,0,0,0,215.59,26.47Z"/><path class="cls-1" d="M149.24,32.66c-3.31,0-6.61,0-9.92,0-.57,0-.66.16-.55.68.6,3,2.89,5.06,6.28,5.78a11.94,11.94,0,0,0,8.45-1.47c1-.54,2-1.09,3-1.56a3.69,3.69,0,0,1,4.93,1.38,3.61,3.61,0,0,1-.49,4.84,15.24,15.24,0,0,1-6.48,3.78c-4.6,1.55-9.26,2-13.92.39-6.64-2.3-10.38-7.1-11.37-14a18.36,18.36,0,0,1,4.14-14.94,16.37,16.37,0,0,1,24-1.19,17.08,17.08,0,0,1,5.49,12.28c0,2.65-1.21,4-3.87,4-3.23.06-6.46,0-9.7,0Zm-3.31-6.19h6.9c.25,0,.56.11.47-.4a8.14,8.14,0,0,0-2.62-5A7.23,7.23,0,0,0,143,20c-2.67,1.06-4,3.28-4.52,6-.1.53.2.48.55.48Z"/><path class="cls-1" d="M84.08,15.37a8.87,8.87,0,0,1,5.07-3.23,15.79,15.79,0,0,1,10,.69c4.7,2.06,6.9,5.87,7,10.88.1,6.09,0,12.18,0,18.27,0,3.52-2.78,5.7-6.07,4.81A4.51,4.51,0,0,1,96.82,43a14.44,14.44,0,0,1-.12-1.87c0-5.28,0-10.57,0-15.86A5.4,5.4,0,0,0,93,19.85a6.52,6.52,0,0,0-7,1.3,6.4,6.4,0,0,0-1.61,4.48V41.5a8.27,8.27,0,0,1-.19,1.86A4.7,4.7,0,0,1,75,42.57c0-.32,0-.65,0-1V17.39a6.82,6.82,0,0,1,.32-2.29,4.82,4.82,0,0,1,7.33-2.2A4.19,4.19,0,0,1,84.08,15.37Z"/><path class="cls-1" d="M123.16,31.76v9.93A5.37,5.37,0,0,1,122,45.46a4.59,4.59,0,0,1-5,1.29,4.26,4.26,0,0,1-3.12-3.67,9.11,9.11,0,0,1-.13-1.65q0-10.07,0-20.15c0-.66-.15-.87-.82-.82a9.26,9.26,0,0,1-2.17-.05,3.69,3.69,0,0,1-3.24-4,3.89,3.89,0,0,1,3.36-3.9,14.14,14.14,0,0,1,2.25-.07c.52,0,.61-.17.62-.64a51,51,0,0,1,.1-5.93,4.51,4.51,0,0,1,4.71-4.12,4.58,4.58,0,0,1,4.61,4.5c.08,1.83.06,3.66,0,5.49,0,.58.17.71.72.7a15.16,15.16,0,0,1,3.23.1c2.35.42,3.38,1.78,3.26,4.25-.1,2.16-1.46,3.5-3.79,3.67a21,21,0,0,1-2.63,0c-.61,0-.8.13-.79.77C123.18,24.75,123.16,28.26,123.16,31.76Z"/><path class="cls-1" d="M254.91,31.81c0,3.43,0,6.86,0,10.29a4.68,4.68,0,0,1-3.28,4.69c-3.3.94-6.14-1.26-6.14-4.8q0-10.29,0-20.59c0-.77-.19-1-.95-.94a7.54,7.54,0,0,1-2.32-.09,3.75,3.75,0,0,1-3-4.23,3.89,3.89,0,0,1,3.37-3.66,13.24,13.24,0,0,1,2.18-.06c.58,0,.7-.18.7-.72,0-1.91-.08-3.82.06-5.71a4.47,4.47,0,0,1,4.73-4.25,4.55,4.55,0,0,1,4.59,4.51c.08,1.82,0,3.65,0,5.48,0,.51.11.7.66.69a20,20,0,0,1,3,.06,4,4,0,0,1-.29,8,22.09,22.09,0,0,1-2.7,0c-.52,0-.68.13-.67.66C254.92,24.69,254.91,28.25,254.91,31.81Z"/><path class="cls-1" d="M175.51,15.87a15.52,15.52,0,0,1,2.05-2.26,6.27,6.27,0,0,1,7.39-.67,4.86,4.86,0,0,1,1.65,5.31A3.36,3.36,0,0,1,184.77,20c-1.68.83-3.51,1.32-5.16,2.21a13.86,13.86,0,0,0-2,1.17,5,5,0,0,0-2.14,4.09q0,7.26,0,14.51A4.73,4.73,0,1,1,166,42q0-12.7,0-25.4a4.43,4.43,0,0,1,4.37-4.54,6.9,6.9,0,0,1,2.67.3,3,3,0,0,1,2.37,2.77C175.43,15.33,175.46,15.54,175.51,15.87Z"/><path class="cls-1" d="M204.33,25.92c0,3.45.06,6.91,0,10.36a11.81,11.81,0,0,1-2.09,7.09,9.51,9.51,0,0,1-7.64,3.81c-3.65.15-7-.62-9.64-3.26a4.22,4.22,0,0,1,.4-6.34,3.33,3.33,0,0,1,3.36-.32c1.21.45,2.39,1,3.59,1.51A1.55,1.55,0,0,0,194.6,38a4.32,4.32,0,0,0,.57-2.22c0-5.44,0-10.87,0-16.31a33.21,33.21,0,0,1,.1-4.57,4.17,4.17,0,0,1,4.07-3.71,4.38,4.38,0,0,1,4.72,2.9,5.64,5.64,0,0,1,.25,1.78V25.92Z"/><path class="cls-2" d="M39.66,26.59h-8.2l6.13,6.16c0,.1,0,.18.13.18h0c0,.12,0,.25,0,.37A2.87,2.87,0,0,1,34.68,37a7.89,7.89,0,0,1-1.16-.22h0c0-.1-.09-.13-.17-.13L27.8,31.33c-.2-.19-.41-.36-.61-.54l-4-4a.78.78,0,0,0-.6-.23l-5.68,0-7.19,0-1.19,0C6.79,26,6,25.05,6.11,23.41A2.94,2.94,0,0,1,8.4,20.78l8.54-.05,5.61,0a.66.66,0,0,0,.55-.16c1.38-1.33,2.79-2.62,4.09-4l5.47-5.28c.27-.26.55-.5.83-.74.09,0,.16,0,.19-.11h0l.74-.1a3,3,0,0,1,3.4,2.2,4.8,4.8,0,0,1-.13,1.92h0c-.11,0-.13.08-.12.18-1.85,2-3.86,3.83-5.78,5.75-.1.1-.27.14-.26.41H40c1.92.72,2.74,2,2.25,3.71A3,3,0,0,1,39.66,26.59Z"/><path class="cls-1" d="M69.74,29.56c0,4.16,0,8.32,0,12.48a4.72,4.72,0,1,1-9.43.22q-.06-12.75,0-25.49a4.72,4.72,0,1,1,9.43.09C69.77,21.09,69.74,25.33,69.74,29.56Z"/><path class="cls-1" d="M16.94,26.64l5.68,0a.78.78,0,0,1,.6.23l4,4q0,6.75,0,13.52a2.88,2.88,0,0,1-1.92,2.85,3,3,0,0,1-3.39-.92,2.78,2.78,0,0,1-.6-1.89q0-6.3,0-12.62v-.81c-.38,0-.5.22-.67.38l-9,8.85a3.14,3.14,0,0,1-4,.69,2.89,2.89,0,0,1-.47-4.63c2.36-2.35,4.75-4.67,7.13-7Z"/><path class="cls-1" d="M27.19,16.56c-1.3,1.41-2.71,2.7-4.09,4a.66.66,0,0,1-.55.16l-5.61,0-6.09-6C9.6,13.49,8.33,12.29,7.09,11A2.89,2.89,0,0,1,7,7a3.08,3.08,0,0,1,4.22-.09C12.41,8,13.51,9.1,14.64,10.2c2,2,4.07,4,6.12,6a4.49,4.49,0,0,0,.39.33,1.19,1.19,0,0,0,.12-.83c0-4.21,0-8.42,0-12.63A2.82,2.82,0,0,1,24.22,0a2.91,2.91,0,0,1,2.94,3.11C27.18,7.59,27.18,12.07,27.19,16.56Z"/><path class="cls-1" d="M148.39,68.38c-.31-5.15,4.7-10,10.39-9.89a10,10,0,1,1-.16,20C152.39,78.44,148.14,73.26,148.39,68.38Zm10.24-7.21A7.31,7.31,0,0,0,151.55,71c1.14,3,4.23,4.8,7.85,4.64a7.32,7.32,0,0,0,6.66-8.82A7.42,7.42,0,0,0,158.63,61.17Z"/><path class="cls-1" d="M172.15,58.32l13.61,14a1.22,1.22,0,0,0,.13-.82c0-3.88,0-7.76,0-11.65,0-.57.13-.77.74-.77,1.92,0,1.92,0,1.92,1.92V78.72L174.72,64.58v1c0,3.83,0,7.66,0,11.5,0,.59-.16.76-.76.75-1.83,0-1.83,0-1.83-1.84V58.32Z"/><path class="cls-1" d="M198.08,58.5a7.38,7.38,0,0,1,5.25,2.19c.34.35.4.61,0,.89a.87.87,0,0,0-.11.09c-.46.35-.87.88-1.38,1s-.91-.59-1.37-.9a4.3,4.3,0,0,0-4.28-.05,1.87,1.87,0,0,0-.13,3.2,11.18,11.18,0,0,0,2.29,1.28,13.49,13.49,0,0,1,4,2.33,5.69,5.69,0,0,1,1.4,6.59,5.89,5.89,0,0,1-6.05,3.26,7,7,0,0,1-6-4.51c-.21-.46-.13-.69.37-.78l.14,0a5.47,5.47,0,0,1,1.66-.39c.59,0,.63.82.95,1.24a4.15,4.15,0,0,0,4.07,1.73,2.88,2.88,0,0,0,2.52-2.07,3.22,3.22,0,0,0-1.25-3.32,12.45,12.45,0,0,0-2.92-1.51,9.7,9.7,0,0,1-3-1.72,4.57,4.57,0,0,1-1.63-4.84,5.08,5.08,0,0,1,3.8-3.5A5,5,0,0,1,198.08,58.5Z"/><path class="cls-1" d="M109.75,74.15a16.19,16.19,0,0,0,0,2,1.19,1.19,0,0,1-.9,1.39,11.16,11.16,0,0,1-12.3-2.24,9.77,9.77,0,0,1,3.45-16,12.48,12.48,0,0,1,9.36.31.51.51,0,0,1,.38.56c0,.62,0,1.25,0,1.88s-.19.6-.65.38a11.64,11.64,0,0,0-5.66-1.18,7.22,7.22,0,0,0-6.33,10.11,7.36,7.36,0,0,0,6.48,4.33,9.78,9.78,0,0,0,5.3-1.09Z"/><path class="cls-1" d="M93.53,77.77H91.1c-.37,0-.44-.29-.55-.53C90,76,89.41,74.79,88.88,73.55a.73.73,0,0,0-.8-.5c-2.25,0-4.51,0-6.76,0a.79.79,0,0,0-.84.57C80,74.83,79.39,76,78.87,77.25a.75.75,0,0,1-.86.53,10.14,10.14,0,0,0-1.35,0c-.57,0-.71-.12-.46-.67.76-1.64,1.49-3.29,2.23-4.93q3-6.74,6.07-13.48c0-.08.11-.16.21-.32ZM84.68,64.28c-1,2.26-2,4.37-2.92,6.52h5.87C86.65,68.63,85.7,66.55,84.68,64.28Z"/><path class="cls-1" d="M119.76,58.35l8.83,19.42c-.87,0-1.62,0-2.37,0-.4,0-.49-.27-.61-.55-.55-1.2-1.1-2.41-1.63-3.63a.8.8,0,0,0-.84-.56c-2.26,0-4.51,0-6.77,0a.73.73,0,0,0-.79.51c-.53,1.24-1.12,2.46-1.65,3.71a.68.68,0,0,1-.78.51,8.69,8.69,0,0,0-1.35,0c-.62,0-.81-.08-.51-.73,1.31-2.84,2.58-5.7,3.87-8.56l4.2-9.3C119.47,58.94,119.59,58.7,119.76,58.35Zm3,12.5-3-6.55L117,70.39c-.12.25-.2.47.24.47Z"/><path class="cls-1" d="M68.62,78.42,64.06,68.13c-1.23-2.79-2.45-5.59-3.7-8.37-.23-.5-.24-.67.4-.67,2.1,0,2.08,0,2.94,1.95,1.48,3.39,3,6.77,4.49,10.15a2.21,2.21,0,0,0,.5.87,2.5,2.5,0,0,0,.5-.9c1.71-3.84,3.42-7.67,5.12-11.52a.75.75,0,0,1,.84-.54,8.54,8.54,0,0,0,1.43,0c.59-.05.75.08.48.68Q73,68.84,68.9,77.92C68.84,78.05,68.76,78.17,68.62,78.42Z"/><path class="cls-1" d="M135.28,69.77c0,2.43,0,4.86,0,7.29,0,.55-.14.73-.71.73-1.93,0-1.93,0-1.93-1.91V62.65c0-1,0-1-1-1s-1.91,0-2.86,0c-.38,0-.51-.1-.53-.5-.1-2.08-.11-2.08,2-2.08,2.93,0,5.86,0,8.79,0,.57,0,.71.17.71.72,0,1.86,0,1.86-1.88,1.86-.63,0-1.26,0-1.88,0s-.69.14-.68.67C135.29,64.81,135.28,67.29,135.28,69.77Z"/><path class="cls-1" d="M145.08,68.52c0,2.85,0,5.7,0,8.55,0,.57-.16.72-.72.72-1.85,0-1.85,0-1.85-1.82,0-5.36,0-10.71,0-16.07,0-.67.18-.84.84-.83,1.74,0,1.74,0,1.74,1.71Z"/><path class="cls-1" d="M8.4,20.78a2.94,2.94,0,0,0-2.29,2.63C6,25.05,6.79,26,8.56,26.57c-1.9,0-3.8.07-5.7,0A3,3,0,0,1,0,23.6a2.93,2.93,0,0,1,3-2.84C4.8,20.75,6.6,20.77,8.4,20.78Z"/><path class="cls-1" d="M39.66,26.59a3,3,0,0,0,2.55-2.11c.49-1.67-.33-3-2.25-3.71,1.88,0,3.75,0,5.63,0a2.89,2.89,0,0,1,.51,5.72A9.14,9.14,0,0,1,44,26.6C42.56,26.61,41.11,26.59,39.66,26.59Z"/><path class="cls-1" d="M33.52,36.82a7.89,7.89,0,0,0,1.16.22,2.87,2.87,0,0,0,3.07-3.74c0-.12,0-.25,0-.37.24,0,.35.18.49.31,1,1,2,2,3,3a2.81,2.81,0,0,1,.12,4.09,3,3,0,0,1-4.25.08A47,47,0,0,1,33.52,36.82Z"/><path class="cls-1" d="M37.7,14.44a4.8,4.8,0,0,0,.13-1.92,3,3,0,0,0-3.4-2.2l-.74.1c0-.41.41-.54.64-.78C35.21,8.75,36.09,7.86,37,7a2.94,2.94,0,0,1,3.18-.77,2.89,2.89,0,0,1,2,2.43,2.41,2.41,0,0,1-.54,2A34.34,34.34,0,0,1,37.7,14.44Z"/><path class="cls-1" d="M269.25,43.25a3.54,3.54,0,1,1-7.07,0,3.55,3.55,0,1,1,7.07,0Zm-.65,0a2.9,2.9,0,1,0-2.92,3.17A3,3,0,0,0,268.6,43.27Z"/><path class="cls-1" d="M33.68,10.43c0,.1-.1.11-.19.11S33.57,10.38,33.68,10.43Z"/><path class="cls-1" d="M37.58,14.61c0-.1,0-.17.12-.18S37.67,14.58,37.58,14.61Z"/><path class="cls-1" d="M37.72,32.93c-.12,0-.14-.08-.13-.18S37.74,32.83,37.72,32.93Z"/><path class="cls-1" d="M33.35,36.7c.08,0,.16,0,.17.13A.14.14,0,0,1,33.35,36.7Z"/><path class="cls-1" d="M267.39,45.11a.65.65,0,0,1-1-.42c-.09-.23-.25-.44-.33-.67-.16-.41-.49-.27-.77-.27s-.24.3-.26.5,0,.3,0,.45,0,.5-.36.5-.31-.31-.32-.53c0-1,0-2,0-3,0-.4.11-.53.5-.5s.91,0,1.35,0a1.15,1.15,0,0,1,.74,2c-.44.42-.29.67-.06,1S267.2,44.77,267.39,45.11Zm-1.81-3.37c-.31,0-.65,0-.53.49s-.4.93.42.93c.49,0,1,0,1-.67S266.11,41.78,265.58,41.74Z"/></g></g></svg>