<svg xmlns="http://www.w3.org/2000/svg" viewBox="0 0 211.77 80.59"><defs><style>.cls-1{fill:#fff;}</style></defs><title>Recurso 7</title><g id="Capa_2" data-name="Capa 2"><g id="Capa_1-2" data-name="Capa 1"><path class="cls-1" d="M211.77.07V80.59H.07c0-.18,0-.36,0-.53V.31a2.08,2.08,0,0,1,0-.23A1.63,1.63,0,0,1,.7.05H211.27ZM52.5,37.33,51,35.21c-.5-.69-1-1.38-1.51-2.08L47.92,31,46.4,29c-.5-.69-1-1.39-1.52-2.08H27.16l-.18,0A.2.2,0,0,0,27,27a.53.53,0,0,0,0,.13c0,1.37,0,2.74,0,4.11a0,0,0,0,0,0,0s0,0,0,0a.87.87,0,0,0,.36,0h2.34a.74.74,0,0,1,.36,0,1.27,1.27,0,0,1,0,.43V49.09a1.83,1.83,0,0,1,0,.21H27.3a.63.63,0,0,0-.35,0c0,.07,0,.15,0,.22,0,1.3,0,2.61,0,3.91,0,.07,0,.15,0,.24H38.1l.21,0v-3c0-.4,0-.8,0-1.2a1.2,1.2,0,0,0,0-.24H36.22c-.35,0-.69,0-1,0a.3.3,0,0,1,0-.11V37.86s0,0,0-.06a.75.75,0,0,1,.23.27L44.34,50.3l2.3,3.16c.07.08.11.2.24.24s.15-.19.22-.28l9-12.44,2.2-3c0-.06.08-.16.2-.17q0,5.72,0,11.4a.41.41,0,0,1,0,.12,6.4,6.4,0,0,1-.76,0H55.39a1.29,1.29,0,0,0,0,.25c0,1.41,0,3.86,0,4.13l.09,0q10.16,0,20.32,0l.1,0a.78.78,0,0,0,0-.16v-4s0-.1,0-.18H73.08a.4.4,0,0,1-.31-.06c0-.12,0-.25,0-.38V31.76a1.69,1.69,0,0,1,0-.23,1.77,1.77,0,0,1,0-.21h2.75a.5.5,0,0,0,.37-.07V27.18c0-.1,0-.2-.06-.28-.31,0-15.49,0-15.78,0l-.74,1-.76,1-.75,1-.76,1.05-.74,1-.77,1.06c-.25.34-.5.68-.74,1l-.77,1-.74,1C53.05,36.6,52.81,37,52.5,37.33Zm132.33,7.84c0-.07.06-.08.06-.1,0-.18,0-.36.05-.54a9.09,9.09,0,0,0-.68-4.31,10.63,10.63,0,0,0-2.88-3.92,14,14,0,0,0-4-2.43,18.92,18.92,0,0,0-6.34-1.38,24.38,24.38,0,0,0-5.59.31,17.83,17.83,0,0,0-3.65,1,12.35,12.35,0,0,0-4.38,2.87,9.79,9.79,0,0,0-2.84,8,9.62,9.62,0,0,0,1,3.47,10.45,10.45,0,0,0,3.64,4,14.33,14.33,0,0,0,3.82,1.73,22.74,22.74,0,0,0,5.86.85,23.83,23.83,0,0,0,3.27-.11,20.7,20.7,0,0,0,3.74-.69,15.87,15.87,0,0,0,4.62-2.12A11.45,11.45,0,0,0,183.49,49a8.3,8.3,0,0,0,1.11-2c0-.07.07-.14,0-.23h-7.46a.46.46,0,0,0-.34.06l-.11.3A5.12,5.12,0,0,1,174,50a5.54,5.54,0,0,1-3.59.35,3.75,3.75,0,0,1-2-1.17,3,3,0,0,1-.78-2c0-.58,0-1.16,0-1.74,0-.08,0-.17,0-.28,1.16,0,2.31,0,3.45,0h13.76Zm-54,0,.05-.1c0-.14,0-.29,0-.43a9.23,9.23,0,0,0-.33-3.47A10.25,10.25,0,0,0,128,36.94a13.23,13.23,0,0,0-4-2.79,18.86,18.86,0,0,0-7-1.67,27,27,0,0,0-3.24,0,23.9,23.9,0,0,0-3,.42,16.26,16.26,0,0,0-3.91,1.33,11.85,11.85,0,0,0-4,3.07,9.76,9.76,0,0,0-2.26,7.27,9.58,9.58,0,0,0,1.32,4.06,10.71,10.71,0,0,0,3.65,3.65,14.37,14.37,0,0,0,3.76,1.61,22.84,22.84,0,0,0,5.51.79,26.72,26.72,0,0,0,4-.17,20,20,0,0,0,3.74-.82,15,15,0,0,0,4.51-2.29,11,11,0,0,0,2.6-2.71,7.83,7.83,0,0,0,.85-1.62c0-.1.11-.2.06-.33l-.21,0c-2,0-7.27,0-7.6,0l-.09.23a5.32,5.32,0,0,1-1.49,2.19,5.52,5.52,0,0,1-5,1.13,3.83,3.83,0,0,1-1.87-1.12,2.91,2.91,0,0,1-.79-2V45.44a1.48,1.48,0,0,1,0-.27c.46,0,.9,0,1.35,0h15.87Zm19.38,4.13V27.08c0-.07,0-.13,0-.18-.3,0-16.92-.06-17.75,0l-.18,0a1.5,1.5,0,0,0,0,.2c0,1.25,0,3.89,0,4.19l.26,0H135c.11,0,.23,0,.34.08V49.11c0,.07,0,.13,0,.2h-2.76a.39.39,0,0,0-.33.08v4.15c0,.06,0,.11,0,.16a.37.37,0,0,0,.11,0h20.88l.13,0a.31.31,0,0,0,0-.13c0-1.38,0-2.76,0-4.14a.37.37,0,0,0,0-.11c-.34,0-.68,0-1,0h-1A9.77,9.77,0,0,1,150.17,49.29Zm-71.38,0c0,.1,0,.15,0,.21v4a1.55,1.55,0,0,0,0,.17H99.11a.86.86,0,0,0,.21,0V49.61a.36.36,0,0,0-.08-.3H97a6.45,6.45,0,0,1-.76,0,1.4,1.4,0,0,1,0-.45V34.09c0-.11,0-.23,0-.34a.88.88,0,0,0,0-.2H79l-.21,0v4.15a2.4,2.4,0,0,0,0,.24h2.32a6,6,0,0,1,.74,0l0,.05a.19.19,0,0,1,0,.07V48.92c0,.1,0,.2,0,.3a0,0,0,0,1,0,0l-.05,0c-.31,0-.65,0-1,0H78.79Zm6.28-20.23c0,.07,0,.11.05.14L87,32.89a.6.6,0,0,0,.11.14l6.31-3.3a.44.44,0,0,0,.11-.09s0-.09,0-.12c-.63-1.21-1.26-2.41-1.9-3.61a.45.45,0,0,0-.11-.14Z"/><path class="cls-1" d="M211.77.07l-.5,0H.7a1.63,1.63,0,0,0-.58,0,2.08,2.08,0,0,0,0,.23V80.06c0,.17,0,.35,0,.53H0s0,0,0-.07V0H211.77Z"/><path d="M52.5,37.33c.31-.37.55-.73.81-1.08l.74-1,.77-1c.24-.35.49-.69.74-1l.77-1.06.74-1L57.83,30l.75-1,.76-1,.74-1c.29,0,15.47,0,15.78,0,.09.08.06.18.06.28v4.06a.5.5,0,0,1-.37.07H72.8a1.77,1.77,0,0,0,0,.21,1.69,1.69,0,0,0,0,.23V48.87c0,.13,0,.26,0,.38a.4.4,0,0,0,.31.06h2.81c0,.08,0,.13,0,.18v4a.78.78,0,0,1,0,.16l-.1,0q-10.17,0-20.32,0l-.09,0c-.06-.27-.08-2.72,0-4.13a1.29,1.29,0,0,1,0-.25h2.34a6.4,6.4,0,0,0,.76,0,.41.41,0,0,0,0-.12q0-5.68,0-11.4c-.12,0-.16.11-.2.17l-2.2,3-9,12.44c-.07.09-.14.19-.22.28s-.17-.16-.24-.24l-2.3-3.16L35.43,38.07a.75.75,0,0,0-.23-.27s0,0,0,.06V49.19a.3.3,0,0,0,0,.11c.34,0,.68,0,1,0h2.05a1.2,1.2,0,0,1,0,.24c0,.4,0,.8,0,1.2v3l-.21,0H27c0-.09,0-.17,0-.24,0-1.3,0-2.61,0-3.91,0-.07,0-.15,0-.22a.63.63,0,0,1,.35,0h2.75a1.83,1.83,0,0,0,0-.21V31.78a1.27,1.27,0,0,0,0-.43.74.74,0,0,0-.36,0H27.34a.87.87,0,0,1-.36,0s0,0,0,0a0,0,0,0,1,0,0c0-1.37,0-2.74,0-4.11A.53.53,0,0,1,27,27a.2.2,0,0,1,0-.08l.18,0H44.88c.52.69,1,1.39,1.52,2.08L47.92,31l1.53,2.1c.5.7,1,1.39,1.51,2.08Z"/><path d="M184.83,45.17H171.07c-1.14,0-2.29,0-3.45,0,0,.11,0,.2,0,.28,0,.58,0,1.16,0,1.74a3,3,0,0,0,.78,2,3.75,3.75,0,0,0,2,1.17A5.54,5.54,0,0,0,174,50a5.12,5.12,0,0,0,2.7-2.91l.11-.3a.46.46,0,0,1,.34-.06h7.46c.08.09,0,.16,0,.23a8.3,8.3,0,0,1-1.11,2,11.45,11.45,0,0,1-2.88,2.76A15.87,15.87,0,0,1,176,53.92a20.7,20.7,0,0,1-3.74.69,23.83,23.83,0,0,1-3.27.11,22.74,22.74,0,0,1-5.86-.85,14.33,14.33,0,0,1-3.82-1.73,10.45,10.45,0,0,1-3.64-4,9.62,9.62,0,0,1-1-3.47,9.79,9.79,0,0,1,2.84-8,12.35,12.35,0,0,1,4.38-2.87,17.83,17.83,0,0,1,3.65-1,24.38,24.38,0,0,1,5.59-.31,18.92,18.92,0,0,1,6.34,1.38,14,14,0,0,1,4,2.43,10.63,10.63,0,0,1,2.88,3.92,9.09,9.09,0,0,1,.68,4.31c0,.18,0,.36-.05.54C184.89,45.09,184.87,45.1,184.83,45.17Zm-17.22-3.52c.31.05,4,.05,4.34,0a.8.8,0,0,0,0-.15c0-.88,0-1.76,0-2.64a2.23,2.23,0,0,0-.61-1.48,2.15,2.15,0,0,0-3.05-.12,2.26,2.26,0,0,0-.73,1.67c0,.81,0,1.62,0,2.44C167.6,41.46,167.6,41.54,167.61,41.65Z"/><path d="M130.79,45.16H114.92c-.45,0-.89,0-1.35,0a1.48,1.48,0,0,0,0,.27v1.74a2.91,2.91,0,0,0,.79,2,3.83,3.83,0,0,0,1.87,1.12,5.52,5.52,0,0,0,5-1.13A5.32,5.32,0,0,0,122.66,47l.09-.23c.33-.06,5.63-.08,7.6,0l.21,0c.05.13,0,.23-.06.33a7.83,7.83,0,0,1-.85,1.62,11,11,0,0,1-2.6,2.71,15,15,0,0,1-4.51,2.29,20,20,0,0,1-3.74.82,26.72,26.72,0,0,1-4,.17,22.84,22.84,0,0,1-5.51-.79,14.37,14.37,0,0,1-3.76-1.61,10.71,10.71,0,0,1-3.65-3.65,9.58,9.58,0,0,1-1.32-4.06,9.76,9.76,0,0,1,2.26-7.27,11.85,11.85,0,0,1,4-3.07,16.26,16.26,0,0,1,3.91-1.33,23.9,23.9,0,0,1,3-.42,27,27,0,0,1,3.24,0,18.86,18.86,0,0,1,7,1.67,13.23,13.23,0,0,1,4,2.79,10.25,10.25,0,0,1,2.55,4.22,9.23,9.23,0,0,1,.33,3.47c0,.14,0,.29,0,.43Zm-17.25-3.51c.31.05,4,.05,4.35,0a1.33,1.33,0,0,0,0-.21c0-.85,0-1.7,0-2.54a2.34,2.34,0,0,0-.36-1.2,2.15,2.15,0,0,0-3.52-.19,2.29,2.29,0,0,0-.51,1.45c0,.79,0,1.58,0,2.37Z"/><path d="M150.17,49.29a9.77,9.77,0,0,0,1.07,0h1c.34,0,.68,0,1,0a.37.37,0,0,1,0,.11c0,1.38,0,2.76,0,4.14a.31.31,0,0,1,0,.13l-.13,0H132.3a.37.37,0,0,1-.11,0c0-.05,0-.1,0-.16V49.39a.39.39,0,0,1,.33-.08h2.76c0-.07,0-.13,0-.2V31.39c-.11-.11-.23-.08-.34-.08h-2.5l-.26,0c-.05-.3-.07-2.94,0-4.19a1.5,1.5,0,0,1,0-.2l.18,0c.83,0,17.45,0,17.75,0,0,.05,0,.11,0,.18V49.29Z"/><path d="M78.79,49.31h2.07c.34,0,.68,0,1,0l.05,0a0,0,0,0,0,0,0c0-.1,0-.2,0-.3V38.1a.19.19,0,0,0,0-.07l0-.05a6,6,0,0,0-.74,0H78.8a2.4,2.4,0,0,1,0-.24V33.58l.21,0H96.11a.88.88,0,0,1,0,.2c0,.11,0,.23,0,.34V48.85a1.4,1.4,0,0,0,0,.45,6.45,6.45,0,0,0,.76,0h2.29a.36.36,0,0,1,.08.3V53.7a.86.86,0,0,1-.21,0H78.79a1.55,1.55,0,0,1,0-.17v-4C78.76,49.46,78.78,49.41,78.79,49.31Z"/><path d="M85.07,29.08l6.43-3.31a.45.45,0,0,1,.11.14c.64,1.2,1.27,2.4,1.9,3.61,0,0,0,.08,0,.12a.44.44,0,0,1-.11.09L87.14,33a.6.6,0,0,1-.11-.14l-1.91-3.67S85.1,29.15,85.07,29.08Z"/><path class="cls-1" d="M167.61,41.65c0-.11,0-.19,0-.28,0-.82,0-1.63,0-2.44a2.26,2.26,0,0,1,.73-1.67,2.15,2.15,0,0,1,3.05.12,2.23,2.23,0,0,1,.61,1.48c0,.88,0,1.76,0,2.64a.8.8,0,0,1,0,.15C171.65,41.7,167.92,41.7,167.61,41.65Z"/><path class="cls-1" d="M113.54,41.65v-.32c0-.79,0-1.58,0-2.37a2.29,2.29,0,0,1,.51-1.45,2.15,2.15,0,0,1,3.52.19,2.34,2.34,0,0,1,.36,1.2c0,.84,0,1.69,0,2.54a1.33,1.33,0,0,1,0,.21C117.57,41.7,113.85,41.7,113.54,41.65Z"/></g></g></svg>